SplineFontDB: 3.0
FontName: Amatic
FullName: Amatic Bold
FamilyName: Amatic
Weight: Heavy
Copyright: vernon adams 2011
Version: 001.001
ItalicAngle: 0
UnderlinePosition: -102
UnderlineWidth: 102
Ascent: 1638
Descent: 410
sfntRevision: 0x00010000
LayerCount: 2
Layer: 0 0 "Back"  1
Layer: 1 0 "Fore"  0
XUID: [1021 14 500265001 8164902]
FSType: 0
OS2Version: 3
OS2_WeightWidthSlopeOnly: 0
OS2_UseTypoMetrics: 1
CreationTime: 1333030389
ModificationTime: 1333058165
PfmFamily: 81
TTFWeight: 900
TTFWidth: 5
LineGap: 0
VLineGap: 0
Panose: 0 0 0 0 0 0 0 0 0 0
OS2TypoAscent: 410
OS2TypoAOffset: 1
OS2TypoDescent: 357
OS2TypoDOffset: 1
OS2TypoLinegap: 0
OS2WinAscent: -172
OS2WinAOffset: 1
OS2WinDescent: -507
OS2WinDOffset: 1
HheadAscent: -172
HheadAOffset: 1
HheadDescent: 507
HheadDOffset: 1
OS2SubXSize: 1331
OS2SubYSize: 1228
OS2SubXOff: 0
OS2SubYOff: 153
OS2SupXSize: 1331
OS2SupYSize: 1228
OS2SupXOff: 0
OS2SupYOff: 716
OS2StrikeYSize: 102
OS2StrikeYPos: 813
OS2Vendor: 'newt'
OS2CodePages: 20000093.00000000
OS2UnicodeRanges: 00000007.00000000.00000000.00000000
DEI: 91125
LangName: 1033 "" "" "Bold" "vernon adams : Amatic : 17-8-2011" "" "Version 1.000" "" "vernon adams" "" "" "" "" "" "" "http://scripts.sil.org/OFL" "" "Amatic" "Bold" 
Encoding: UnicodeBmp
UnicodeInterp: none
NameList: Adobe Glyph List
DisplaySize: -48
AntiAlias: 1
FitToEm: 1
WinInfo: 17 17 10
BeginPrivate: 9
BlueValues 27 [-56 0 1378 1378 1595 1595]
OtherBlues 11 [-434 -434]
BlueScale 8 0.012692
BlueShift 2 12
StdHW 4 [96]
StdVW 5 [118]
StemSnapH 16 [96 104 111 386]
StemSnapV 16 [97 118 141 195]
ForceBold 4 true
EndPrivate
BeginChars: 65539 386

StartChar: .notdef
Encoding: 65536 -1 0
Width: 1332
Flags: MW
HStem: 0 102<266 1066 266 1199> 990 102<266 1066 266 266>
VStem: 102 102 820 102
LayerCount: 2
Fore
SplineSet
133 0 m 1
 133 1092 l 1
 1199 1092 l 1
 1199 0 l 1
 133 0 l 1
266 102 m 1
 1066 102 l 1
 1066 990 l 1
 266 990 l 1
 266 102 l 1
EndSplineSet
EndChar

StartChar: exclam
Encoding: 33 33 2
Width: 458
Flags: MW
HStem: -52 21G<200 200> 1552 20G<246 291.5>
VStem: 123 137 141 68
LayerCount: 2
Fore
SplineSet
200 -38 m 1xd0
 155 -29 119 2 99 33 c 1
 99 78 147 125 210 125 c 0
 281 125 319 77 319 26 c 0
 319 -29 264 -49 200 -52 c 1
 200 -38 l 1xd0
223 303 m 0
 186 303 184 405 184 458 c 0
 184 468 184 476 184 482 c 0xd0
 184 596 182 713 182 821 c 0
 182 1045 160 1269 160 1493 c 0
 160 1537 219 1572 273 1572 c 0
 310 1572 338 1550 338 1522 c 0xe0
 338 1195 272 870 272 543 c 0
 272 505 267 467 267 430 c 0
 267 387 267 303 223 303 c 0
EndSplineSet
EndChar

StartChar: quotedbl
Encoding: 34 34 3
Width: 647
Flags: MW
HStem: 1193 385<185.5 191 447 454.5>
VStem: 111 90 297 95
LayerCount: 2
Fore
SplineSet
386 1531 m 0
 386 1559 429 1578 465 1578 c 0
 490 1578 503 1556 509 1531 c 1
 505 1433 476 1193 433 1193 c 0
 416 1193 386 1435 386 1531 c 0
144 1531 m 0
 144 1559 174 1578 197 1578 c 0
 236 1578 259 1556 259 1525 c 0
 259 1521 262 1514 262 1511 c 0
 262 1407 217 1193 165 1193 c 0
 160 1193 144 1435 144 1531 c 0
EndSplineSet
EndChar

StartChar: numbersign
Encoding: 35 35 4
Width: 1196
Flags: MW
HStem: -92 21G<695 804.5> 586 99 960 87 1546 20G<887 1022.5> 1547 20G<436 472>
VStem: 303 121
LayerCount: 2
Fore
SplineSet
959 586 m 1xf4
 957 586 l 1
 945 480 890 -92 719 -92 c 0
 671 -92 629 -79 629 -47 c 0
 629 176 715 354 768 581 c 1
 669 585 568 585 469 585 c 2
 395 585 l 1
 366 449 325 -84 234 -84 c 0
 208 -84 175 -62 175 -40 c 0
 175 185 239 386 268 576 c 1
 244 574 217 571 190 571 c 0
 132 571 79 583 79 637 c 0
 79 676 144 683 204 683 c 0
 236 683 268 681 284 681 c 1
 304 769 316 859 325 948 c 1
 308 947 283 945 258 945 c 0
 199 945 132 955 132 1004 c 2
 132 1047 l 1
 160 1047 226 1046 253 1046 c 0
 387 1046 394 1296 394 1420 c 0
 394 1434 394 1447 394 1457 c 0
 394 1468 392 1481 392 1494 c 0
 392 1530 400 1567 472 1567 c 1xec
 551 1520 l 1
 551 1365 478 1213 474 1058 c 1
 512 1054 550 1054 589 1054 c 2
 674 1054 l 2
 1046 1054 764 1566 1010 1566 c 0
 1035 1566 1072 1547 1072 1528 c 0
 1072 1434 999 1155 977 1056 c 1
 1063 1056 l 1
 1119 1020 l 1
 1110 991 1096 959 1049 959 c 2
 962 959 l 1
 937 872 931 786 929 698 c 1
 938 698 947 699 957 699 c 0
 1010 699 1067 687 1067 637 c 0
 1067 595 1011 586 967 586 c 2
 959 586 l 1xf4
404 686 m 1
 403 686 l 1
 413 685 425 685 435 685 c 0
 547 685 665 685 782 681 c 1
 804 770 827 861 829 952 c 1
 763 959 695 960 628 960 c 0
 567 960 505 959 446 954 c 1
 414 867 408 776 404 686 c 1
EndSplineSet
EndChar

StartChar: dollar
Encoding: 36 36 5
Width: 754
Flags: MW
HStem: -17 258<253.5 426> 162 79<286.5 303.5 253.5 355> 162 160<164 355> 1349 178<324 548> 1349 290<253 548>
VStem: 70 80 177 67 177 268 270 73 432 98
LayerCount: 2
Fore
SplineSet
282 1084 m 1x56c0
 282 1085 l 1
 263 1193 257 1307 251 1419 c 1
 199 1382 195 1330 195 1287 c 0
 195 1218 231 1149 282 1084 c 1x56c0
560 386 m 1
 562 384 l 1
 562 517 443 652 402 734 c 1
 410 579 429 424 433 269 c 1
 498 299 560 342 560 386 c 1
166 323 m 1
 164 322 l 1x36c0
 226 322 213 241 294 241 c 0
 313 241 332 245 351 246 c 1
 350 359 313 808 313 808 c 1
 209 978 91 1085 91 1284 c 0
 91 1354 122 1488 238 1516 c 1
 235 1532 230 1557 230 1582 c 0
 230 1611 237 1639 269 1639 c 0
 319 1639 317 1619 317 1575 c 0x8ec0
 317 1551 320 1527 328 1527 c 0
 397 1527 579 1450 579 1397 c 0x95
 579 1362 564 1349 532 1349 c 0
 446 1349 352 1425 325 1437 c 1
 325 1388 330 1340 330 1291 c 0
 330 1196 346 1102 359 1008 c 1
 377 1012 689 539 689 419 c 0
 689 278 564 203 446 178 c 1
 447 154 454 108 454 63 c 0
 454 22 445 -17 407 -17 c 0x96c0
 365 -17 355 18 355 44 c 2
 355 162 l 1
 218 162 112 181 112 280 c 0
 112 303 137 323 166 323 c 1
EndSplineSet
EndChar

StartChar: percent
Encoding: 37 37 6
Width: 1636
Flags: MW
HStem: 3 113<1128 1157 1157 1159> 701 100<297 353 353 354> 734 105<1107 1188> 1450 104<307 415>
VStem: 76 102 383 91 383 429 684 99 1089 100
LayerCount: 2
Fore
SplineSet
1187 733 m 1xbd80
 1188 734 l 1
 1026 734 1018 482 1018 389 c 0
 1018 380 1018 372 1018 366 c 0
 1018 329 1088 116 1168 116 c 0
 1407 116 1416 303 1416 386 c 2
 1416 434 l 2
 1416 547 1400 733 1187 733 c 1xbd80
332 1450 m 0
 282 1450 232 1211 232 1166 c 0
 232 1103 241 801 353 801 c 0xda80
 493 801 498 1018 498 1093 c 0
 498 1180 498 1450 332 1450 c 0
1057 1488 m 1
 1056 1488 l 1
 1056 1303 631 11 528 11 c 0
 494 11 460 55 460 66 c 0
 460 126 828 1537 973 1537 c 0
 1009 1537 1057 1518 1057 1488 c 1
1159 3 m 2
 1157 3 l 2
 931 3 889 271 889 371 c 0
 889 383 889 396 889 410 c 0
 889 561 900 839 1200 839 c 0xbd80
 1534 839 1546 604 1546 430 c 2
 1546 379 l 2
 1546 230 1499 3 1159 3 c 2
354 701 m 2xdd80
 353 701 l 2
 100 701 99 1026 99 1164 c 0
 99 1256 142 1554 319 1554 c 0
 585 1554 616 1301 616 1148 c 0
 616 1111 620 1064 620 1014 c 0
 620 869 590 701 354 701 c 2xdd80
EndSplineSet
EndChar

StartChar: ampersand
Encoding: 38 38 7
Width: 1626
Flags: MW
HStem: 198 21G<459 727.5> 199 83 1708 20G<503 652>
VStem: 85 96 299 152 323 157 584 150 933 92 933 256
LayerCount: 2
Fore
SplineSet
586 1471 m 1x7b
 587 1471 l 1
 587 1409 591 1348 591 1286 c 2
 591 1263 l 1
 657 1328 760 1461 760 1531 c 0
 760 1566 753 1628 654 1630 c 1
 622 1617 604 1598 586 1580 c 1
 586 1471 l 1x7b
952 1452 m 1
 953 1451 l 1
 870 1366 625 1164 625 1085 c 0
 625 962 908 505 1077 417 c 1
 1182 531 1213 656 1213 779 c 2
 1213 788 l 1
 1165 788 1121 803 1102 823 c 1
 1102 875 l 1
 1217 875 1405 884 1471 901 c 1
 1507 895 1546 880 1546 847 c 0x7680
 1546 797 1446 791 1399 791 c 2
 1333 791 l 1
 1333 745 1330 699 1327 653 c 1
 1329 653 1330 650 1330 644 c 0
 1330 601 1268 426 1223 355 c 1
 1267 320 1327 292 1392 292 c 0
 1428 292 1463 298 1499 298 c 1
 1549 267 l 1
 1549 206 1477 199 1414 199 c 0x7b
 1317 199 1232 233 1120 276 c 1
 968 227 821 198 634 198 c 0
 284 198 111 382 111 534 c 0
 111 780 206 913 420 1125 c 1xb7
 418 1219 389 1312 389 1406 c 2
 389 1576 l 2
 389 1632 427 1728 579 1728 c 0
 725 1728 955 1682 955 1600 c 0
 955 1565 942 1530 942 1496 c 0
 942 1481 942 1464 952 1452 c 1
466 968 m 1
 467 968 l 1
 309 850 236 708 236 569 c 0
 236 442 353 282 674 282 c 0
 760 282 929 307 990 337 c 1
 708 522 550 728 466 968 c 1
EndSplineSet
EndChar

StartChar: quoteright
Encoding: 8217 8217 8
Width: 581
Flags: MW
HStem: 1193 385<126 364 126 364>
VStem: 152 195
LayerCount: 2
Fore
SplineSet
126 1193 m 1
 126 1264 l 1
 172 1298 261 1338 274 1389 c 1
 231 1413 198 1449 198 1491 c 0
 198 1543 266 1578 329 1578 c 0
 399 1578 429 1536 451 1491 c 1
 451 1485 l 2
 451 1481 446 1476 446 1471 c 0
 446 1379 329 1193 205 1193 c 2
 126 1193 l 1
EndSplineSet
EndChar

StartChar: parenleft
Encoding: 40 40 9
Width: 612
Flags: MW
HStem: -361 21G<359 501> 1631 20G<399 458 458 458>
VStem: 86 102
LayerCount: 2
Fore
SplineSet
245 879 m 2
 245 880 l 2
 245 454 451 13 559 -318 c 1
 548 -340 518 -361 484 -361 c 0
 234 -361 112 701 112 881 c 0
 112 1001 215 1651 399 1651 c 2
 458 1651 l 1
 454 1421 245 1155 245 879 c 2
EndSplineSet
EndChar

StartChar: parenright
Encoding: 41 41 10
Width: 634
Flags: MW
HStem: -303 21G<114.5 242.5> 1601 20G<186 234 234 341.5>
VStem: 308 102
LayerCount: 2
Fore
SplineSet
400 816 m 2
 400 815 l 2
 400 1087 186 1407 186 1610 c 2
 186 1621 l 1
 234 1621 l 2
 449 1621 494 942 532 817 c 1
 533 815 l 1
 533 651 353 -303 132 -303 c 0
 97 -303 62 -284 62 -255 c 0
 62 -217 150 -112 174 -71 c 0
 308 158 400 564 400 816 c 2
EndSplineSet
EndChar

StartChar: asterisk
Encoding: 42 42 11
Width: 1417
Flags: MW
HStem: 691 21G<989 1012.5> 1085 109 1085 462 1547 20G
LayerCount: 2
Fore
SplineSet
1062 1512 m 1
 1061 1512 l 1
 1061 1444 898 1269 833 1194 c 1
 900 1190 961 1189 1020 1189 c 0
 1056 1189 1130 1199 1196 1199 c 0
 1267 1199 1331 1187 1331 1137 c 0
 1331 1096 1284 1085 1239 1085 c 0
 1123 1085 1005 1094 818 1094 c 1
 881 1015 1089 819 1089 752 c 0
 1089 723 1036 691 989 691 c 1
 681 1011 l 1
 598 910 519 789 399 697 c 1
 335 697 l 1
 278 736 l 1
 278 742 l 2
 278 811 468 1011 529 1096 c 1
 187 1096 l 2
 181 1096 174 1096 168 1096 c 0
 120 1096 87 1099 87 1150 c 0
 87 1175 113 1198 147 1198 c 2
 499 1198 l 1
 442 1252 286 1455 286 1501 c 0
 286 1531 324 1547 359 1547 c 0
 448 1547 595 1307 649 1258 c 1
 690 1317 820 1567 972 1567 c 0
 1026 1567 1062 1542 1062 1512 c 1
EndSplineSet
EndChar

StartChar: plus
Encoding: 43 43 12
Width: 971
Flags: MW
HStem: 333 368<309 503> 591 110 591 377<428 807>
VStem: 91 328 305 114 305 358
LayerCount: 2
Fore
SplineSet
544 909 m 2x28
 544 885 l 2
 544 883 544 881 544 878 c 0x88
 544 864 543 839 543 812 c 0
 543 760 547 701 569 701 c 0
 602 701 664 709 724 709 c 0
 795 709 862 697 862 647 c 0
 862 615 828 591 786 591 c 0x44
 733 591 682 602 629 602 c 0
 585 602 544 593 544 553 c 0
 544 498 569 444 569 389 c 0
 569 353 524 333 482 333 c 0
 444 333 396 352 396 385 c 0x88
 396 451 404 518 404 584 c 2
 404 599 l 1
 368 599 283 590 231 590 c 0
 170 590 118 602 118 655 c 0
 118 682 140 708 178 708 c 0
 230 708 283 701 335 701 c 0x90
 356 701 375 702 396 705 c 1
 394 755 381 805 381 855 c 0
 381 900 390 968 466 968 c 0
 508 968 544 942 544 909 c 2x28
EndSplineSet
EndChar

StartChar: comma
Encoding: 44 44 13
Width: 563
Flags: MW
HStem: -202 386<116 354 116 354>
VStem: 144 195
LayerCount: 2
Fore
SplineSet
116 -202 m 1
 116 -130 l 1
 160 -96 251 -54 264 -4 c 1
 221 20 188 55 188 97 c 0
 188 149 256 184 319 184 c 0
 389 184 419 143 441 98 c 1
 441 91 l 2
 441 87 437 82 437 77 c 0
 437 -15 319 -202 195 -202 c 2
 116 -202 l 1
EndSplineSet
EndChar

StartChar: hyphen
Encoding: 45 45 14
Width: 856
Flags: MW
HStem: 701 21G<211.5 271> 778 20G<595 653.5>
VStem: 112 442
LayerCount: 2
Fore
SplineSet
721 739 m 0
 721 706 309 701 233 701 c 0
 190 701 146 725 146 760 c 0
 146 793 558 798 632 798 c 0
 675 798 721 775 721 739 c 0
EndSplineSet
EndChar

StartChar: period
Encoding: 46 46 15
Width: 475
Flags: MW
HStem: -32 152<220.5 266>
VStem: 113 150
LayerCount: 2
Fore
SplineSet
147 41 m 0
 147 82 194 120 247 120 c 0
 298 120 342 81 342 43 c 0
 342 -4 295 -32 237 -32 c 0
 187 -32 147 4 147 41 c 0
EndSplineSet
EndChar

StartChar: slash
Encoding: 47 47 16
Width: 744
Flags: MW
HStem: -31 21G<150 239.5> 1533 20G<519 610>
LayerCount: 2
Fore
SplineSet
90 30 m 0
 90 127 446 1553 592 1553 c 0
 628 1553 663 1533 663 1503 c 0
 663 1324 329 -31 150 -31 c 1
 123 -18 90 5 90 30 c 0
EndSplineSet
EndChar

StartChar: zero
Encoding: 48 48 17
Width: 960
Flags: MW
HStem: 7 93<437.5 629.5 437.5 684.5> 1458 105<350.5 533.5>
VStem: 105 87 105 130 567 95
LayerCount: 2
Fore
SplineSet
739 568 m 1xd8
 738 568 l 1
 738 767 679 1458 388 1458 c 0
 313 1458 250 1410 250 1338 c 0xe8
 250 1222 268 1106 268 990 c 0
 268 923 306 857 306 790 c 0
 306 685 322 100 553 100 c 0
 706 100 739 497 739 568 c 1xd8
388 1563 m 0
 859 1563 861 805 861 521 c 0
 861 373 851 7 518 7 c 0
 160 7 137 648 137 804 c 2
 137 1233 l 2
 137 1413 154 1563 388 1563 c 0
EndSplineSet
EndChar

StartChar: one
Encoding: 49 49 18
Width: 789
Flags: MW
HStem: -9 21G<311.5 353> -8 104<398.5 511> 1479 96<205.5 313>
VStem: 59 253 232 80 294 54 294 99 294 260
LayerCount: 2
Fore
SplineSet
383 120 m 0xa1
 383 519 302 923 302 1308 c 0x68
 302 1329 306 1356 306 1383 c 0
 306 1432 292 1479 214 1479 c 0
 197 1479 175 1477 152 1477 c 0
 113 1477 77 1483 77 1521 c 0
 77 1574 236 1575 292 1575 c 0
 334 1575 385 1574 409 1541 c 1
 407 1534 406 1527 406 1520 c 0x70
 406 1499 412 1477 412 1455 c 0
 412 1329 453 1205 453 1079 c 0x64
 453 756 511 433 511 109 c 2
 511 96 l 1x62
 544 98 576 102 609 102 c 1
 609 103 l 1
 656 103 721 99 721 52 c 0
 721 -4 510 -8 418 -8 c 0x61
 379 -8 368 -9 338 -9 c 0
 285 -9 230 -3 230 47 c 2
 230 91 l 1
 247 90 299 86 324 86 c 0
 355 86 383 93 383 120 c 0xa1
EndSplineSet
EndChar

StartChar: two
Encoding: 50 50 19
Width: 761
Flags: MW
HStem: -15 21G<152.5 243.5> 1327 259<307 309.5> 1567 20G<367 509>
VStem: 150 352 404 98
LayerCount: 2
Fore
SplineSet
78 55 m 1xb0
 78 54 l 1
 361 317 525 864 525 1236 c 0xc8
 525 1305 520 1492 398 1500 c 1
 325 1470 359 1327 260 1327 c 0
 211 1327 195 1357 195 1390 c 0
 195 1465 247 1586 367 1586 c 1xd0
 367 1587 l 1
 651 1587 653 1357 653 1201 c 0
 653 774 384 408 246 86 c 1
 346 99 446 107 547 107 c 1
 628 55 l 1
 581 4 l 1
 446 4 311 -15 176 -15 c 0
 129 -15 78 7 78 47 c 2
 78 55 l 1xb0
EndSplineSet
EndChar

StartChar: three
Encoding: 51 51 20
Width: 787
Flags: MW
HStem: -20 84 1360 213<130 442.5> 1477 96<276.5 386.5>
VStem: 238 222 358 102 436 103
LayerCount: 2
Fore
SplineSet
331 1573 m 0xd0
 554 1573 598 1293 598 1124 c 0xd0
 598 1040 534 993 478 927 c 1
 658 844 701 509 701 361 c 0
 701 213 684 -20 425 -20 c 0
 351 -20 229 5 229 76 c 2
 229 89 l 1
 273 89 l 1
 328 83 361 88 404 64 c 1
 554 69 567 207 567 294 c 0xc4
 567 482 564 694 404 849 c 1
 399 848 394 848 387 848 c 0
 361 848 333 857 309 865 c 1
 309 889 l 2xd0
 309 950 465 1016 465 1150 c 0
 465 1216 447 1477 326 1477 c 0xa8
 227 1477 259 1360 151 1360 c 0
 109 1360 81 1387 74 1416 c 1
 118 1501 205 1573 331 1573 c 0xd0
EndSplineSet
EndChar

StartChar: four
Encoding: 52 52 21
Width: 796
Flags: MW
HStem: -38 21G<529 584> 1523 20G<192 235>
VStem: 96 81 127 118 330 91 347 105 347 122 347 220
LayerCount: 2
Fore
SplineSet
451 587 m 1xd2
 451 588 l 1xe2
 450 779 429 967 429 1161 c 0
 429 1192 467 1207 493 1207 c 1
 548 1171 l 1
 548 1138 548 1105 548 1072 c 0xe8
 548 913 550 753 581 596 c 1
 601 597 629 601 658 601 c 0
 698 601 737 593 737 557 c 0xe1
 737 513 697 507 650 507 c 0
 631 507 588 505 588 489 c 0xe4
 588 436 596 190 615 155 c 1
 613 143 610 130 610 117 c 0
 610 103 613 89 623 76 c 1
 623 39 l 2
 623 9 609 -38 559 -38 c 0
 499 -38 480 23 480 59 c 2
 480 66 l 1
 489 90 489 115 489 140 c 0
 489 207 470 272 470 339 c 0
 470 369 472 398 472 428 c 0
 472 449 471 470 467 491 c 1
 398 489 306 480 230 480 c 1
 230 479 l 1
 190 479 156 493 125 512 c 1
 125 539 128 565 137 591 c 1
 128 628 125 666 125 706 c 0xe2
 125 844 165 991 165 1124 c 2
 165 1503 l 2
 165 1525 168 1543 216 1543 c 0
 254 1543 319 1524 319 1492 c 0
 319 1440 299 1386 299 1333 c 0
 299 1107 258 858 258 622 c 0
 258 607 260 591 264 576 c 1
 332 577 398 581 451 587 c 1xd2
EndSplineSet
EndChar

StartChar: five
Encoding: 53 53 22
Width: 760
Flags: MW
HStem: -37 21G<366 406.5> -36 21G<437.5 444> 1482 92<357 377 136 414 357 357>
VStem: 108 72 416 98
LayerCount: 2
Fore
SplineSet
141 1008 m 0xb8
 141 1043 155 1077 155 1112 c 0
 155 1256 119 1398 90 1540 c 1
 136 1574 l 1
 353 1574 l 2
 401 1574 463 1572 463 1524 c 2
 463 1513 l 1
 414 1482 l 1
 357 1482 l 1
 357 1477 l 1
 234 1477 l 1
 242 1314 266 1164 286 1002 c 1
 641 971 669 687 669 434 c 0
 669 234 669 95 444 -36 c 1x78
 431 -36 415 -37 398 -37 c 0
 334 -37 253 -31 253 21 c 0
 253 54 298 67 334 67 c 0
 359 67 384 61 403 50 c 1
 500 75 541 259 541 328 c 0
 541 415 511 914 377 914 c 2
 325 914 l 1
 325 907 l 1
 298 905 266 891 238 891 c 0
 150 891 141 955 141 1008 c 0xb8
EndSplineSet
EndChar

StartChar: six
Encoding: 54 54 23
Width: 856
Flags: MW
HStem: -15 87<401 497> -14 21G<497 625.5> 1566 20G<319.5 530.5>
VStem: 97 101 496 95
LayerCount: 2
Fore
SplineSet
497 -14 m 1x78
 497 -15 l 1xb8
 149 -15 126 418 126 709 c 0
 126 778 127 837 127 884 c 0
 127 1040 129 1586 510 1586 c 0
 551 1586 611 1567 611 1545 c 0
 611 1505 516 1482 446 1475 c 1
 325 1419 268 1044 259 949 c 1
 283 951 305 952 328 952 c 0
 755 952 768 396 768 236 c 0
 768 114 754 -14 497 -14 c 1x78
257 769 m 0x78
 257 635 270 72 532 72 c 0xb8
 642 72 645 176 645 211 c 0
 645 319 601 859 352 881 c 1
 264 852 257 813 257 769 c 0x78
EndSplineSet
EndChar

StartChar: seven
Encoding: 55 55 24
Width: 612
Flags: MW
HStem: -11 21G<162 194.5> 1499 84<295.5 386>
LayerCount: 2
Fore
SplineSet
99 24 m 1
 99 484 372 1003 386 1495 c 1
 365 1497 344 1499 323 1499 c 0
 268 1499 210 1494 154 1490 c 1
 126 1500 92 1523 92 1550 c 0
 92 1581 274 1583 336 1583 c 2
 386 1583 l 2
 446 1583 503 1579 521 1524 c 1
 426 1167 403 451 252 119 c 1
 253 114 253 108 253 101 c 0
 253 55 227 -11 162 -11 c 1
 99 24 l 1
EndSplineSet
EndChar

StartChar: eight
Encoding: 56 56 25
Width: 835
Flags: MW
HStem: -82 88<384.5 506.5 384.5 521> 1587 20G<284 374 374 374>
VStem: 75 100 120 96 347 145 488 94
LayerCount: 2
Fore
SplineSet
158 198 m 1xe4
 157 198 l 1
 157 430 222 660 281 863 c 1xd4
 281 863 98 1225 98 1421 c 0
 98 1510 149 1607 284 1607 c 2
 374 1607 l 1
 636 1530 640 1466 640 1313 c 0xe8
 640 1160 565 1010 492 862 c 1
 665 651 757 349 757 119 c 0
 757 103 755 87 749 72 c 1
 749 60 l 1
 701 -24 622 -82 420 -82 c 0
 199 -82 158 98 158 198 c 1xe4
281 190 m 2
 281 188 l 2
 281 148 345 6 424 6 c 0
 589 6 635 74 635 140 c 0
 635 359 517 574 389 783 c 1
 306 628 281 354 281 190 c 2
300 1515 m 1
 259 1487 228 1449 228 1413 c 0
 228 1308 294 1072 362 969 c 1
 417 1080 452 1196 452 1312 c 0xe8
 452 1342 419 1518 345 1518 c 1
 300 1515 l 1
EndSplineSet
EndChar

StartChar: nine
Encoding: 57 57 26
Width: 700
Flags: MW
HStem: -34 21G<447 479.5> 1527 87<294 388.5>
VStem: 68 370 331 82
LayerCount: 2
Fore
SplineSet
537 237 m 0xd0
 537 188 520 139 520 90 c 0
 520 78 521 64 521 49 c 0
 521 9 512 -34 447 -34 c 1
 391 4 l 1
 430 94 433 502 433 686 c 0
 433 772 429 848 427 931 c 1
 234 965 88 1087 88 1243 c 0
 88 1370 123 1614 345 1614 c 0
 529 1614 569 1547 569 1420 c 0xe0
 569 1026 537 631 537 237 c 0xd0
218 1247 m 0
 218 1228 223 1178 239 1162 c 1
 256 1047 318 1057 430 1009 c 1
 440 1148 442 1288 442 1427 c 0
 442 1480 430 1527 347 1527 c 0
 241 1527 218 1306 218 1247 c 0
EndSplineSet
EndChar

StartChar: colon
Encoding: 58 58 27
Width: 472
Flags: MW
HStem: 177 152<206.5 252> 951 152<232.5 278>
VStem: 123 149
LayerCount: 2
Fore
SplineSet
133 250 m 0
 133 291 180 329 233 329 c 0
 284 329 327 290 327 252 c 0
 327 206 281 177 223 177 c 0
 173 177 133 213 133 250 c 0
160 1024 m 0
 160 1064 206 1103 259 1103 c 0
 310 1103 354 1064 354 1026 c 0
 354 979 307 951 249 951 c 0
 199 951 160 987 160 1024 c 0
EndSplineSet
EndChar

StartChar: semicolon
Encoding: 59 59 28
Width: 543
Flags: MW
HStem: -11 370<161.5 346.5> 952 152<299.5 345>
VStem: 139 192 175 156
LayerCount: 2
Fore
SplineSet
227 1025 m 0xd0
 227 1065 273 1104 326 1104 c 0
 377 1104 421 1065 421 1027 c 0
 421 980 374 952 316 952 c 0
 267 952 227 988 227 1025 c 0xd0
172 -11 m 0
 151 -11 117 10 117 27 c 2
 117 51 l 1
 161 83 246 122 257 171 c 1
 214 195 181 230 181 272 c 0xe0
 181 324 250 359 312 359 c 0
 381 359 430 309 430 258 c 0
 430 168 306 -11 172 -11 c 0
EndSplineSet
EndChar

StartChar: less
Encoding: 60 60 29
Width: 726
Flags: MW
HStem: -22 21G<512 627.5> 1426 20G<518 520> 1427 20G<470.5 512.5>
VStem: 70 117
LayerCount: 2
Fore
SplineSet
91 698 m 1xd0
 94 757 430 1447 511 1447 c 0xb0
 514 1447 516 1446 520 1446 c 1
 579 1411 l 1
 543 1193 243 869 243 702 c 0
 243 679 599 135 647 69 c 1
 647 66 647 63 647 59 c 0
 647 51 647 42 647 33 c 0
 647 6 644 -22 611 -22 c 0
 413 -22 166 578 91 698 c 1xd0
EndSplineSet
EndChar

StartChar: equal
Encoding: 61 61 30
Width: 1030
Flags: MW
HStem: 579 101 764 108<566.5 684>
LayerCount: 2
Fore
SplineSet
692 872 m 2
 782 872 899 866 899 818 c 0
 899 774 750 764 618 764 c 0
 515 764 420 770 416 770 c 0
 393 770 354 767 315 767 c 0
 238 767 155 776 155 826 c 0
 155 854 178 872 215 872 c 2
 692 872 l 2
614 680 m 2
 741 680 886 674 886 626 c 0
 886 597 860 579 823 579 c 0
 636 579 449 589 262 589 c 0
 221 589 155 592 155 634 c 0
 155 662 178 680 215 680 c 2
 614 680 l 2
EndSplineSet
EndChar

StartChar: greater
Encoding: 62 62 31
Width: 758
Flags: MW
HStem: -23 21G<129 161.5> -19 21G<199.5 208> 1426 20G<243 243>
VStem: 399 118
LayerCount: 2
Fore
SplineSet
243 1444 m 1xb0
 243 1443 l 1
 369 1399 668 799 672 698 c 1
 208 -19 l 1x70
 191 -19 170 -23 153 -23 c 0
 105 -23 84 19 83 49 c 1
 130 116 519 680 519 702 c 0
 519 908 187 1202 184 1411 c 1
 243 1446 l 1
 243 1444 l 1xb0
EndSplineSet
EndChar

StartChar: question
Encoding: 63 63 32
Width: 2088
Flags: MW
HStem: -190 126<744 829 744 1501.5> 1524 110<874.5 1077.5> 1832 106<1053 1054 1054 1159.5>
VStem: 101 119 514 71 514 79 514 137 918 195 1409 114
LayerCount: 2
Fore
SplineSet
1053 1938 m 2xf380
 1054 1938 l 2
 1918 1938 1980 1224 1980 807 c 0
 1980 470 1979 -190 1024 -190 c 0
 290 -190 257 366 131 765 c 1
 131 810 130 866 130 930 c 0
 130 1306 175 1938 1053 1938 c 2xf380
286 954 m 2
 286 953 l 2
 286 585 446 120 744 -64 c 1
 829 -64 l 1
 829 -84 l 1
 1746 -79 1832 396 1832 706 c 0
 1832 1023 1797 1354 1567 1655 c 1
 1567 1670 l 1
 1487 1727 1232 1832 1087 1832 c 0
 334 1832 286 1241 286 954 c 2
1599 198 m 1
 1604 198 l 1
 1604 174 1528 142 1477 142 c 0
 1206 142 1021 796 924 913 c 1
 807 913 l 1
 803 881 797 827 797 795 c 0
 797 599 846 405 846 209 c 0
 846 173 822 142 763 142 c 0
 716 142 668 168 668 207 c 0
 668 294 624 382 642 469 c 1
 642 1453 l 2
 642 1602 716 1634 949 1634 c 0
 1386 1634 1447 1432 1447 1269 c 0
 1447 1022 1174 1006 1149 968 c 1
 1156 887 1461 424 1518 313 c 1
 1518 270 1599 238 1599 198 c 1
965 1524 m 0
 784 1524 761 1474 761 1406 c 0xf980
 761 1363 771 1311 771 1262 c 0xf580
 771 1174 772 1085 802 999 c 1
 1057 1048 1193 1141 1193 1271 c 2
 1193 1280 l 2
 1193 1359 1190 1524 965 1524 c 0
EndSplineSet
EndChar

StartChar: at
Encoding: 64 64 33
Width: 1799
Flags: MW
HStem: -120 89<512 917.5> 306 104<766 947 766 949> 1246 105<756 858 857 858> 1612 107<557.5 1120.5>
VStem: 97 109 374 122 897 410 1192 115
LayerCount: 2
Fore
SplineSet
1551 776 m 1xfd
 1550 776 l 1
 1550 1089 1431 1612 810 1612 c 0
 305 1612 268 1272 268 999 c 0
 268 961 268 925 268 891 c 0
 268 879 268 864 268 847 c 0
 268 615 287 -31 737 -31 c 0
 1270 -31 1214 57 1527 169 c 1
 1527 179 l 1
 1600 140 l 1
 1534 -27 1082 -120 753 -120 c 0
 127 -120 126 683 126 956 c 0
 126 1262 135 1719 829 1719 c 0
 1596 1719 1699 1146 1699 767 c 0
 1699 645 1695 406 1422 406 c 0
 1348 406 1301 426 1269 449 c 1
 1209 368 1049 306 849 306 c 0
 489 306 486 661 486 851 c 0
 486 1047 491 1351 858 1351 c 0
 1331 1351 1303 818 1340 565 c 1
 1340 556 l 1
 1439 510 l 1
 1540 536 1551 723 1551 776 c 1xfd
857 1246 m 2
 858 1246 l 2
 654 1246 645 1013 645 888 c 0
 645 876 645 865 645 855 c 0
 645 678 651 410 881 410 c 0
 1013 410 1166 550 1166 605 c 2
 1166 759 l 2xfe
 1166 875 1109 1246 857 1246 c 2
EndSplineSet
EndChar

StartChar: A
Encoding: 65 65 34
Width: 928
Flags: MW
HStem: -1 21G<636 636> 1524 20G<500 500>
VStem: 487 38 489 36
LayerCount: 2
Fore
SplineSet
81 64 m 1xd0
 500 1544 l 1
 683 1526 l 1
 836 21 l 1
 774 9 719 1 636 -1 c 1
 636 321 l 1
 329 373 l 1
 223 23 l 1
 81 64 l 1xd0
634 448 m 1xe0
 572 1298 l 1
 574 1316 l 1
 346 465 l 1
 583 442 l 1
 634 448 l 1xe0
EndSplineSet
EndChar

StartChar: B
Encoding: 66 66 35
Width: 974
Flags: HMW
HStem: -17 21G<250 274 274 284> 1421 116<321.5 439>
VStem: 115 120 510 98
LayerCount: 2
Fore
SplineSet
352 1421 m 0
 291 1421 291 1376 291 1357 c 0
 291 1201 307 1044 309 888 c 1
 504.936081344 907.947900675 673 1097.00547605 673 1236 c 0
 673 1315.28571429 531.594855305 1421 352 1421 c 0
459 786 m 1
 305 786 l 1
 323 572.988505747 326 343.011494253 326 130 c 1
 593.331719128 148.845878136 699 251.641577061 699 369 c 0
 699 606.22096081 564.942836217 786 459 786 c 1
536 879 m 1
 534 879 l 1
 801.515098431 777.591894285 875 600.076742769 875 374 c 0
 875 97.6332486804 763 -17 284 -17 c 2
 274 -17 l 2
 159 34 l 0
 159 202 172 370 172 538 c 0
 172 815 154 1093 154 1370 c 2
 154 1512 l 2
 244 1537 l 0
 659.648351648 1537 820 1392 820 1201 c 0
 820 1082.6746988 731.404310144 937.774675116 536 879 c 1
EndSplineSet
EndChar

StartChar: C
Encoding: 67 67 36
Width: 898
Flags: HMW
HStem: -33 21G<524 592.5> -32 125<410.5 524> 1441 125<552 586.5 436 594 552 552>
VStem: 88 119 88 479
LayerCount: 2
Fore
SplineSet
524 -33 m 1xb0
 524 -32 l 1
 150 -32 114 426 114 793 c 0
 114 883 117 967 117 1038 c 0
 117 1384.65366823 167.134116409 1566 551 1566 c 0
 625.511902512 1566 746.200195312 1565.69386719 746.200195312 1565.09960938 c 1x68
 743 1420 l 1
 269.311464895 1420 252.924234831 1253.40697099 252.924234831 893.479243035 c 0
 252.924234831 866.724739972 253 838.901986731 253 810 c 0
 253 553 262 93 559 93 c 0x70
 665.812865497 93 769.339181287 126.559322034 840 192 c 1
 885 75 l 1
 788.888117063 1.10000610352 693.95532646 -33 524 -33 c 1xb0
EndSplineSet
EndChar

StartChar: D
Encoding: 68 68 37
Width: 1164
Flags: HMW
HStem: -4 21G<234.5 512.5> 1429 124<347 568> 1532 20G<302 346 339.5 346>
VStem: 69 146 101 114 146 98 695 109
LayerCount: 2
Fore
SplineSet
318 310 m 1xc6
 318 174 l 1xa6
 768.184300341 302.648648649 894 634.378378378 894 854 c 0
 894 1061 846.769230769 1429 280 1429 c 1
 280 1427 l 2xd2
 280 1054 340 683 318 310 c 1xc6
346 1552 m 1
 347 1553 l 1
 1063.48497854 1553 1058.89611188 1110.5 1076 869 c 5
 1076 552.994047252 867.751525436 -4 262 -4 c 0
 207 -4 132 15 132 66 c 1xca
 150 307 l 0xc6
 111 983 l 0
 119 1207 l 0
 90 1481 l 0xd2
 90 1548 219 1552 302 1552 c 0
 319 1552 333 1552 346 1552 c 1
EndSplineSet
EndChar

StartChar: E
Encoding: 69 69 38
Width: 665
Flags: HMW
HStem: -12 117<259 308 308 308 308 373> 750 120<413.5 433.5 392.5 444> 1423 110 1531 20G<352 408.5>
VStem: 119 97 119 271
LayerCount: 2
Fore
SplineSet
308 105 m 1xe8
 406.19858156 107 510.80141844 111 609 111 c 1
 597 57 l 1
 597 50 l 1
 563 -12 l 1
 290 -12 l 2
 228 -12 155 -10 155 55 c 2
 155 1533 l 1xe8
 255.434782609 1533 404.565217391 1551 505 1551 c 1
 507 1484 l 1xd4
 506 1423 l 1
 438.947368421 1423 377.052631579 1425 310 1425 c 0
 301 1425 290 1425 281 1424 c 1
 281 1311 302 1199 302 1086 c 0
 302 1008 290 930 289 852 c 1
 356.2 858 420.2 870 489 870 c 1
 492 813 l 1
 497 750 l 1
 460.970149254 750 407.985074627 752 355 752 c 0
 328 752 321 749 308 737 c 1
 308 105 l 1xe8
EndSplineSet
EndChar

StartChar: F
Encoding: 70 70 39
Width: 595
Flags: HMW
HStem: -2 21G<219.5 282.5> 1440 114<388.5 389 301.5 412>
VStem: 75 121 137 129
LayerCount: 2
Fore
SplineSet
108 1520 m 0xc0
 108 1543.274078 321.250285219 1554 355 1554 c 0
 396.485835454 1554 433.522210327 1552.90109294 464.5 1549.24609375 c 1
 469 1484 l 1
 474 1440 l 1
 449.461538462 1440 391.461538462 1442 329 1442 c 0
 293 1442 255 1438 255 1419 c 0
 255 1235 293 1053 296 869 c 1
 361.554054054 876 425.77027027 891 494 891 c 1
 517 828 l 1
 528.5 784.259765625 l 1
 462.406519823 762.757471775 347.151234774 763.076809211 296 761 c 1
 296 591.493253373 317.270490337 423.100430972 329 254 c 2
 341 81 l 1
 345 6 l 1
 255 -2 l 1
 193.810546875 -9.599609375 l 1
 179 129 l 1
 179 292.39740656 108 1446.15288632 108 1520 c 0xc0
EndSplineSet
EndChar

StartChar: G
Encoding: 71 71 40
Width: 1356
Flags: HMW
HStem: -54 105<534.5 842> -41 21G<1171 1210> 371 118 1485 106<454.5 859.5>
VStem: 87 111 544 380
LayerCount: 2
Fore
SplineSet
1100 42 m 2x7c
 1099 44 l 1
 996 6.8275862069 901 -54 783 -54 c 0
 125 -54 113 464 113 711 c 0
 113 753 112 805 112 862 c 0
 112 1158 146 1591 763 1591 c 0
 1010.40039062 1566.5 l 0
 1011.40039062 1384.5 l 0
 906.399963379 1384.50004102 817.526962652 1405 717 1405 c 0
 268.222717149 1405 258 905.069241012 258 744 c 0
 258 456.326902977 228.134286638 91 776 91 c 0xbc
 914 91 1016 124 1095 177 c 1
 1046 371 l 1
 953.727810651 369 827.355029586 363 707 363 c 0
 707 511 l 0
 841.485516064 507.382350248 1066.78609626 499 1171 499 c 0
 1201 380 l 0
 1255 -35 l 0
 1120 -31 l 0
 1100 42 l 2x7c
EndSplineSet
EndChar

StartChar: H
Encoding: 72 72 41
Width: 990
Flags: HMW
HStem: -31 21G<751.5 801> 769 40 1537 20G<162 194.5>
VStem: 91 100 521 92 546 112
LayerCount: 2
Fore
SplineSet
191 5 m 4xf4
 139.622377622 221.299987793 98 1320 98 1510 c 2
 98 1555 l 1
 157 1557 l 0
 257 1544 l 1
 251 1481.87012987 248 1420.93506494 248 1360 c 0
 248 1220 268 1079 268 939 c 0
 273 809 l 1
 413 811 551 822 677 824 c 1
 676 1058 654 1292 654 1526 c 0
 834 1547 l 0
 837 1393 l 0xf8
 837 943 895 491 895 43 c 1
 748 37 l 1
 748 92 719 221 719 356 c 0
 702 701 l 0
 565.470817121 701 419.416342412 701 294 685 c 1
 293.23880597 475.731988473 311 268.268011527 311 59 c 4
 191 5 l 4xf4
EndSplineSet
EndChar

StartChar: I
Encoding: 73 73 42
Width: 642
Flags: HMW
HStem: 19 94<153 163 163 183 146 498> 1442 111<421.5 435 381 450.5>
VStem: 66 190 66 313 163 93 201 55 201 107 201 232
LayerCount: 2
Fore
SplineSet
568 19 m 1xc1
 83 19 l 1
 86 64 l 1xe0
 87 113 l 1
 249 112 l 1
 262 158 l 1xc4
 212 1105 l 1xc8
 217 1314 l 1
 211 1428 l 1
 98 1419 l 1
 86 1518 l 1
 415 1553 l 1
 493 1557 l 1xd0
 491 1447 l 1
 438.313797164 1445.03042232 385.562978354 1443.06129327 333 1441 c 1xe0
 401 203 l 1
 401 115 l 1xc2
 565 116 l 1
 563 82 l 1
 567 62 l 1
 568 19 l 1xc1
EndSplineSet
EndChar

StartChar: J
Encoding: 74 74 43
Width: 624
Flags: MW
HStem: -194 21G<178 204> 1429 124<353 420>
VStem: 51 272 51 363 83 273 245 78 245 111
LayerCount: 2
Fore
SplineSet
108 -131 m 2xc2
 108 -130 l 2xc8
 108 -20 318 -5 318 241 c 0xc4
 318 334 320 429 320 525 c 0
 320 836 312 1155 249 1445 c 1
 212 1439 173 1429 134 1429 c 0
 97 1429 66 1453 66 1481 c 0
 66 1553 321 1553 385 1553 c 0
 439 1553 538 1548 538 1497 c 0xd0
 538 1453 473 1444 427 1444 c 0
 425 1444 422 1444 420 1444 c 1
 420 1429 l 2xe0
 420 1323 414 1218 414 1112 c 0
 414 846 463 581 463 315 c 0
 463 64 403 -86 204 -194 c 1
 152 -194 108 -175 108 -131 c 2xc2
EndSplineSet
EndChar

StartChar: K
Encoding: 75 75 44
Width: 1020
Flags: HMW
HStem: -49 21G<811.5 881> -7 21G<170 252> 1575 20G<730.5 808>
VStem: 98 136 128 106
LayerCount: 2
Fore
SplineSet
169 1049 m 1xf0
 166 1049 l 1xe8
 166 1274.51173709 167 1406.4600939 167 1560 c 0
 304 1560 l 0
 304 1374 l 0
 304 1234 295 1093 291 953 c 1
 353 1044 674 1494.59997559 787 1595 c 0
 865 1541 l 0
 865 1498.45009074 544.836411609 1130.62976407 506 1020 c 1
 496 994 l 1
 557.307189542 902.036016949 935.368191721 95.1783959987 965 40 c 0
 860 -49 l 0
 766 78.6000061035 479 761 392 879 c 1
 304 775 282 768 282 649 c 0
 282 522 299 396 299 269 c 2
 299 0 l 2
 208 -7 l 0
 160 -12 l 0
 160 212 165 436 165 660 c 0
 165 754 169 905 169 1049 c 1xf0
EndSplineSet
EndChar

StartChar: L
Encoding: 76 76 45
Width: 638
Flags: HMW
HStem: -23 21G<228 263.5> -4 106<495.5 513 323 522.5> -1 21G<397 419.5> 1551 20G<173 210.5>
VStem: 95 129 123 84 123 315
LayerCount: 2
Fore
SplineSet
323 102 m 1x58
 574 102 l 1
 570 54 l 1
 563 -4 l 1x52
 250 -4 l 2
 215.777777778 -4 180 -2.15384615385 180 0 c 0xb2
 180 45.4666666667 177 86.5333333333 177 132 c 0
 177 614.678596994 124 1096.32140301 124 1579 c 1x58
 172.215512557 1573.06578307 221.015699425 1567.44270006 270 1562 c 1x54
 270 1299.31071913 297 1035.55359566 297 775 c 0
 297 753 296 732 292 710 c 1
 292 701 l 2
 292 523 323 345 323 167 c 2
 323 102 l 1x58
EndSplineSet
EndChar

StartChar: M
Encoding: 77 77 46
Width: 1474
Flags: HMW
HStem: -29 21G<1256 1256> -23 21G<1247 1248 1247 1247> -4 21G<261 327 261 261> 1534 20G<346 346>
VStem: 104 113 959 44
LayerCount: 2
Fore
SplineSet
617 222 m 1x5c
 282 1340 l 1
 279 925 l 1
 327 -4 l 1
 261 -4 l 1
 135 32 l 1
 144 464 l 1
 109 1257 l 1
 113 1522 l 1
 346 1554 l 1
 728 424 l 1
 1038 1517 l 1
 1038 1529 l 1
 1194 1535 l 1
 1317 -11 l 1
 1146 -29 l 1xbc
 1138 -23 l 1
 1137 -23 l 1
 1055 1132 l 1
 795 248 l 1
 617 222 l 1x5c
EndSplineSet
EndChar

StartChar: N
Encoding: 78 78 47
Width: 1310
Flags: HMW
HStem: -22 21G<843.5 1029> -21 21G<1028 1067.5> 1534 20G<201 278> 1576 20G<1078.5 1129>
VStem: 133 72 133 161 768 134
LayerCount: 2
Fore
SplineSet
958 -21 m 5x76
 959 -22 l 5
 811.882298189 186.999984741 585.976864281 668.513691121 349 1111 c 24
 349 1117 l 0
 266 1297 l 1
 266 1 l 1xba
 143 1 l 1
 143 39 l 1
 144 45 145 52 145 60 c 0
 145 88 135 129 135 177 c 0
 135 371 131 688 131 812 c 2
 131 1073 l 2
 131 1198 149 1324 149 1449 c 2
 149 1462 l 2
 149 1519 153 1554 249 1554 c 0
 342 1552 l 0
 415.79998368 1372.40697107 733.460853245 732.804004075 957 298 c 1
 998 225 l 1
 998 463 1012 701 1012 939 c 2
 1012 1545 l 1
 1159 1576 l 1
 1159 1522.1228878 1155 1481.62597091 1155 1444 c 0
 1155 1193 1145 939 1145 687 c 2
 1145 61 l 2
 958 -21 l 5x76
EndSplineSet
EndChar

StartChar: O
Encoding: 79 79 48
Width: 1211
Flags: HMW
HStem: -56 111<504 805.5> 1478 107<499 500 500 517>
VStem: 87 90 740 76 740 94
LayerCount: 2
Fore
SplineSet
517 1468 m 0xe0
 293.163763066 1468 290 979.068181818 290 862 c 0
 290 726.596016364 369.791287862 65 682 65 c 0
 900.571428571 65 922 562.538461538 922 653 c 0
 922 795.427184466 911.943566591 1468 517 1468 c 0xe0
676 -56 m 0
 165.792184725 -56 133 610 133 800 c 0
 133 877.726168904 129.908203125 959.311282712 129.908203125 1039.28125 c 0
 129.908203125 1322.10163217 166.628503351 1584.95460679 499.693439957 1584.99986468 c 0
 908.989416703 1584.99986468 1101.44433594 1122.40931507 1101.44433594 688.442382812 c 4
 1101.44433594 305.050857725 954.13268546 -56 676 -56 c 0
EndSplineSet
EndChar

StartChar: P
Encoding: 80 80 49
Width: 726
Flags: HMW
HStem: -11 21G<189 245.5> 1546 20G<174.5 332.5>
VStem: 114 78 114 96 365 106
LayerCount: 2
Fore
SplineSet
134 1566 m 1xd8
 195 1566 l 2
 470 1566 613 1365 613 1175 c 0
 613 983 506 805 280 712 c 1
 281 475.630094044 301 240.369905956 301 4 c 1
 212 -11 l 1
 149 -12 l 1
 149 209.343365253 131.258214353 500.816276155 132 789 c 2
 134 1566 l 1xd8
250 1459 m 1xe8
 251 1243 272 1027 273 811 c 1
 407.745629289 908.096115223 476.675509175 1026.65013522 476.675509175 1141.47160597 c 0
 476.675509175 1260.75776489 402.280908072 1376.01546021 250 1459 c 1xe8
EndSplineSet
EndChar

StartChar: Q
Encoding: 81 81 50
Width: 1222
Flags: MW
HStem: -283 113<1027 1037 1037 1060.5> 19 61<645 645 645 677> 1474 101<529 530 530 698.5>
VStem: 90 100 705 126
LayerCount: 2
Fore
SplineSet
930 793 m 1
 931 792 l 1
 931 817 931 846 931 878 c 0
 931 1108 906 1474 491 1474 c 0
 265 1474 247 775 247 653 c 0
 247 522 272 95 645 80 c 1
 645 82 l 1
 667 99 706 108 748 108 c 1
 748 107 l 1
 875 162 930 252 930 327 c 2
 930 793 l 1
529 1575 m 2
 530 1575 l 2
 1047 1575 1080 1178 1080 861 c 0
 1080 787 1079 717 1079 658 c 0
 1079 626 1079 595 1079 566 c 0
 1079 368 1069 234 904 69 c 1
 926 26 954 -170 1027 -170 c 2
 1037 -170 l 2
 1084 -170 1152 -172 1152 -220 c 0
 1152 -271 1087 -283 1034 -283 c 0
 993 -283 957 -269 917 -254 c 1
 917 -253 l 1
 710 -208 716 -70 677 19 c 1
 499 19 l 1
 151 148 117 358 117 573 c 0
 117 684 130 796 130 907 c 0
 130 942 127 993 127 1051 c 0
 127 1264 156 1575 529 1575 c 2
EndSplineSet
EndChar

StartChar: R
Encoding: 82 82 51
Width: 904
Flags: HMW
HStem: -21 21G<792 844.5> -13 21G<198 251.5> 1537 20G<199.5 390>
VStem: 110 106 110 120 110 294 110 414
LayerCount: 2
Fore
SplineSet
879 76 m 1x64
 878 63 l 1
 814 -21 l 0xb0
 748 -26 l 1
 718 41 l 1
 663.599975586 139.199996948 452 597 312 859 c 1
 312 -8 l 2
 218 -13 l 0
 143 -9 l 2
 143 60 l 2
 143 460 161 861 161 1261 c 2
 161 1513 l 2
 161 1541 168 1557 231 1557 c 0
 612.6 1557 771 1370 771 1217 c 0x62
 771 1097 723.00773191 949.200012207 475 876 c 1
 576.114096431 663.200012207 774.005649718 299 879 76 c 1x64
578 1207 m 1
 577.599975586 1358 511.571428571 1449 299 1463 c 1x68
 298 1324 281 1184 281 1045 c 0
 281 1014 281 982 285 951 c 1
 469.751793786 1014.23492718 498.839412854 1012.44098432 578 1207 c 1
EndSplineSet
EndChar

StartChar: S
Encoding: 83 83 52
Width: 765
Flags: HMW
HStem: -45 93<276 370.5 276 421.5> -45 124<129 421.5> 1554 20G<319 450>
VStem: 69 439 94 117 387 121
LayerCount: 2
Fore
SplineSet
275 1290 m 0xa0
 275 792.185230316 661 778.831224012 661 342 c 0
 661 179 546 -45 297 -45 c 0
 245 -45 153.5 -34.8999938965 90 24 c 1
 120 109 l 1
 181.5 63.1000061035 246.428571429 48 297 48 c 0
 444 48 503 268 503 355 c 0
 503 690 123 940 123 1275 c 0
 123 1413.45115474 202.67892964 1545.12031732 382.997376587 1545.12031732 c 0
 452.140317601 1545.12031732 536.080607909 1525.76058029 636 1480 c 1
 616 1376 l 1
 589.452307795 1383.47901333 482.069637936 1446.09537963 394.805449719 1446.09537963 c 0
 329.220768032 1446.09537963 275 1410.72655843 275 1290 c 0xa0
EndSplineSet
EndChar

StartChar: T
Encoding: 84 84 53
Width: 711
Flags: HMW
HStem: -14 21G<386.5 454.5> 1424 126
VStem: 51 442 257 108 273 92 273 106
LayerCount: 2
Fore
SplineSet
454 454 m 0xc0
 454 297.241847826 456 141.758152174 456 -15 c 1
 420 -14 l 1
 334 -12 l 1
 334 130.666666667 330.235880018 273.350854828 328 416 c 2
 318 1054 l 1
 322 1233 l 1
 318 1424 l 1
 233.666666667 1422 149.333333333 1413 65 1413 c 1
 66 1469 l 1
 64.900390625 1533.41210938 l 1
 234.37574274 1547.32320941 561.293661826 1550 636 1550 c 1
 641 1492 l 1
 641 1438 l 1
 581.715789474 1438 522.431578947 1442 465 1442 c 1
 451 1441 l 1
 456 1189 l 1
 456 1102 451 1013 451 925 c 0
 451 765.397843851 454 614.862167404 454 454 c 0xc0
EndSplineSet
EndChar

StartChar: U
Encoding: 85 85 54
Width: 1296
Flags: HMW
HStem: -37 72<674 801 801 803> 1525 20G<1026 1051>
VStem: 85 120 85 152 85 182 711 141 785 67 785 85
LayerCount: 2
Fore
SplineSet
803 -37 m 2xe4
 801 -37 l 2
 153 -37 111 605 111 1112 c 0
 111 1230 100 1341 100 1435 c 1
 94 1547 l 0
 171 1540 l 0
 267 1534 l 1xe4
 267 981.646453798 196.2857065 95 801 95 c 0
 1008.66842105 95 1016.97676295 220.170898438 1012 279 c 2
 972 1138 l 2xca
 965.782226562 1271.52246094 946 1405.33333333 946 1539 c 0xe4
 1051 1545 l 1
 1131 1547 l 1
 1131 1463 l 1xe1
 1154 586 l 0
 1154 544 1161 502 1161 460 c 2
 1161 429 l 1
 1160 422 1155 414 1155 407 c 0
 1155 372 1156 331 1156 288 c 0
 1156 137 1130 -37 803 -37 c 2xe4
EndSplineSet
EndChar

StartChar: V
Encoding: 86 86 55
Width: 872
Flags: HMW
HStem: -34 21G<475 540> 1543 20G<150 151 151 216> 1549 20G<726 782 782 782>
LayerCount: 2
Fore
SplineSet
250 1563 m 2xc0
 251 1563 l 1xc0
 339.730510873 1144.09298578 439.380914124 533.51078741 466 339 c 1
 524 746.254835997 586.799987793 1259.69995117 628 1568 c 1
 726 1569 l 2
 782 1569 l 1xa0
 763.694915254 1404 584.305075435 133.699996948 557 -34 c 0
 424 -12 l 1
 307 359 179 1161 72 1523 c 1
 250 1563 l 2xc0
EndSplineSet
EndChar

StartChar: W
Encoding: 87 87 56
Width: 1452
Flags: HMW
HStem: -29 21G<373.5 439> -28 21G<881 1024> 1573 20G<1251.5 1311.5>
VStem: 248 134 384 137 920 137
LayerCount: 2
Fore
SplineSet
215 1540 m 1xbc
 215 1541 l 1
 238.800018311 1461.00006104 381.485232068 644 402 504 c 1
 429 695 499 1116 499 1287 c 2
 499 1386 l 2
 570 1389 l 0
 678 1389 l 1
 678 1218.07048987 842.428229646 752.363640867 960 352 c 1
 1040.40707965 759.942583732 1185.34869169 1464.93728679 1196 1577 c 0
 1292 1593 l 0
 1374 1607 l 0
 1325.80001831 1281.00006104 1144.80001831 419.000015259 1110 43 c 0
 897 22 l 0x7c
 805.967115357 367.905554541 632.472584856 938.817589577 614 1053 c 1
 554.896907216 712.913294798 497 371.641618497 497 28 c 0
 420 21 l 0
 323 17 l 0
 323 149.919354839 115 1406.70967742 73 1491 c 1
 215 1540 l 1xbc
EndSplineSet
EndChar

StartChar: X
Encoding: 88 88 57
Width: 780
Flags: HMW
HStem: -13 21G<143.5 226.5> 1531 20G<546.5 618.5>
VStem: 68 411 107 417 240 116 393 86
LayerCount: 2
Fore
SplineSet
88 33 m 2xe0
 88 34 l 1xe0
 155.431695154 255.389871281 334.178571429 750 332 750 c 1xcc
 281.388601036 928.211424615 108.63517766 1455.54538339 110 1456.59960938 c 2
 139 1479 l 1
 214 1521 l 0
 270 1375.57456635 374 1100.66743649 397 998 c 5
 423 1082.8012959 528 1385.69716306 602 1551 c 0
 681 1506 l 0xd0
 681 1397 462 932 462 796 c 0
 462 774.198153085 561.6875 453.50001782 572 410.599609375 c 1
 622 236 l 1
 629.692307692 173.207557091 666 92.6000061035 672 54.599609375 c 0
 589 24 l 0
 530 14.599609375 l 0xcc
 512 116.600006104 440.048387097 365.784387601 387 538 c 1
 356 437 224 100.600006104 160 -13 c 0
 88 33 l 2xe0
EndSplineSet
EndChar

StartChar: Y
Encoding: 89 89 58
Width: 686
Flags: MW
HStem: -25 21G<367.5 405> 1526 20G<146.5 199.5>
VStem: 57 295 215 137 215 235 244 108
LayerCount: 2
Fore
SplineSet
159 1546 m 0xe0
 240 1546 318 1092 354 1006 c 1
 374 1088 387 1539 515 1539 c 0
 533 1539 585 1539 585 1517 c 0xc8
 585 1287 458 1062 458 828 c 0
 458 804 465 781 465 757 c 2
 465 726 l 2
 465 545 464 364 464 183 c 0
 464 149 463 115 463 81 c 2
 463 35 l 2
 463 -2 425 -25 385 -25 c 0
 350 -25 317 -3 317 25 c 0xc4
 317 157 330 289 330 421 c 0
 330 541 279 656 279 776 c 0xd0
 279 1025 74 1267 74 1513 c 0
 74 1540 134 1546 159 1546 c 0xe0
EndSplineSet
EndChar

StartChar: Z
Encoding: 90 90 59
Width: 652
Flags: MW
HStem: -19 21G<140 215> -11 96 1451 98 1544 20G<430.5 493>
VStem: 312 107
LayerCount: 2
Fore
SplineSet
545 1505 m 0x58
 545 1051 387 494 250 85 c 1
 280 86 336 93 391 93 c 0
 462 93 531 81 531 30 c 2
 531 21 l 1
 489 -11 l 1x68
 380 -11 270 -19 160 -19 c 0
 120 -19 98 5 85 31 c 1
 219 197 388 1235 406 1451 c 1
 374 1449 313 1441 254 1441 c 0
 180 1441 110 1453 110 1506 c 2
 110 1549 l 1xa8
 147 1550 l 1
 172 1545 196 1543 222 1543 c 0
 305 1543 389 1564 472 1564 c 0
 514 1564 545 1536 545 1505 c 0x58
EndSplineSet
EndChar

StartChar: bracketleft
Encoding: 91 91 60
Width: 685
Flags: MW
HStem: -112 118 1465 111
VStem: 78 110 78 313 121 67 174 94 174 303
LayerCount: 2
Fore
SplineSet
348 1458 m 0xc4
 348 987 244 502 244 48 c 2
 244 6 l 1xe0
 252 6 261 6 271 6 c 0
 355 6 508 2 508 -68 c 0
 508 -103 457 -112 422 -112 c 0
 356 -112 101 -108 101 -35 c 0xd0
 101 134 157 301 157 470 c 0xc8
 157 808 226 1142 226 1480 c 0
 226 1525 244 1556 277 1576 c 1
 378 1576 l 2
 433 1576 620 1572 620 1511 c 0xc2
 620 1481 581 1465 547 1465 c 0
 496 1465 448 1478 397 1478 c 0
 381 1478 348 1478 348 1458 c 0xc4
EndSplineSet
EndChar

StartChar: backslash
Encoding: 92 92 61
Width: 737
Flags: MW
HStem: -31 21G<535 609> 1535 20G<138.5 235.5>
LayerCount: 2
Fore
SplineSet
157 1555 m 0
 314 1555 658 125 658 31 c 0
 658 6 636 -17 609 -30 c 1
 609 -31 l 1
 461 -31 85 1321 85 1505 c 0
 85 1535 120 1555 157 1555 c 0
EndSplineSet
EndChar

StartChar: bracketright
Encoding: 93 93 62
Width: 665
Flags: MW
HStem: -112 21G<230 282> 1475 102<349 349>
VStem: 59 304 125 273 267 96 327 71 327 112
LayerCount: 2
Fore
SplineSet
347 1458 m 1xc8
 349 1475 l 1
 290 1474 232 1464 173 1464 c 0
 133 1464 77 1470 77 1510 c 0
 77 1572 272 1577 328 1577 c 2
 422 1577 l 1
 467 1563 472 1549 472 1518 c 0xe0
 472 1508 471 1496 471 1481 c 0
 471 1156 518 835 518 510 c 0xd0
 518 327 571 148 571 -35 c 0xc2
 571 -108 315 -112 249 -112 c 0
 211 -112 163 -103 163 -68 c 0xd0
 163 11 358 5 425 6 c 1
 425 48 l 1xc4
 412 519 347 986 347 1458 c 1xc8
EndSplineSet
EndChar

StartChar: asciicircum
Encoding: 94 94 63
Width: 474
Flags: MW
HStem: 1515 141<223 260 206 271.5>
VStem: 117 137
LayerCount: 2
Fore
SplineSet
152 1575 m 0
 152 1612 178 1656 234 1656 c 0
 286 1656 330 1623 330 1583 c 0
 330 1546 296 1515 247 1515 c 0
 199 1515 152 1534 152 1575 c 0
EndSplineSet
EndChar

StartChar: underscore
Encoding: 95 95 64
Width: 1556
Flags: MW
HStem: -137 114<174 481.5> -20 20G
LayerCount: 2
Fore
SplineSet
192 -137 m 0
 156 -137 126 -113 126 -85 c 0
 126 -34 270 -23 409 -23 c 0
 554 -23 714 -20 773 -20 c 0
 1011 -20 1191 0 1336 0 c 0
 1378 0 1423 -24 1423 -58 c 0
 1423 -109 1388 -116 1295 -116 c 0
 1262 -116 1223 -115 1175 -115 c 0
 824 -115 435 -137 192 -137 c 0
EndSplineSet
EndChar

StartChar: quoteleft
Encoding: 8216 8216 65
Width: 573
Flags: MW
HStem: 1192 385<214.5 452>
VStem: 98 195
LayerCount: 2
Fore
SplineSet
452 1577 m 1
 452 1506 l 1
 404 1476 318 1429 305 1381 c 1
 347 1357 381 1320 381 1279 c 0
 381 1227 312 1192 250 1192 c 0
 179 1192 149 1234 127 1279 c 1
 127 1285 l 1
 126 1289 133 1294 133 1298 c 0
 133 1391 251 1577 374 1577 c 2
 452 1577 l 1
EndSplineSet
EndChar

StartChar: a
Encoding: 97 97 66
Width: 885
Flags: HMW
HStem: -18 21G<712 744> -10 21G<155.5 228> 1343 20G<419 509 509 529.5>
VStem: 256 175 481 97
LayerCount: 2
Fore
SplineSet
568 375 m 1x78
 561 451 l 0
 489 1038 l 1
 333 408 l 1
 568 375 l 1x78
600 1351 m 1
 601 1352 l 1
 752 332 l 1
 769.75452215 163.699996948 787.299987793 55.6999969482 794 -18 c 1xb8
 656 -20 l 0
 626 97 l 0
 585 295 l 2
 416 305 l 1
 328 315 l 2
 311 315 l 1
 225 -10 l 0
 80 25 l 1
 362 1100 l 0
 419 1363 l 1
 509 1363 l 2
 600 1351 l 1
EndSplineSet
EndChar

StartChar: b
Encoding: 98 98 67
Width: 836
Flags: HMW
HStem: -19 21G<169 408> 1288 96<205.5 300>
VStem: 97 116 117 359 409 128 440 97
LayerCount: 2
Fore
SplineSet
300 1288 m 1xe8
 299 763 l 1
 520 766 532 939 532 1012 c 0
 532 1076 485 1278 300 1288 c 1xe8
277 177 m 6
 277 85 l 1
 486 108 572 218 572 309 c 0xe4
 572 401 551 620 303 644 c 1
 283.295601561 487.880535448 277 288.119087525 277 177 c 6
698 1029 m 0
 698 894 667 788 590 706 c 1
 706 621 714 476 714 361 c 0
 714 168 607 -19 209 -19 c 0
 129 -19 126 43 126 89 c 0xe8
 126 235 152 379 152 525 c 0
 152 741 164 958 164 1174 c 0
 164 1209 164 1245 161 1280 c 1
 161 1299 l 2
 161 1343 174 1384 237 1384 c 0
 520.204199799 1384 698 1295.54251514 698 1029 c 0
EndSplineSet
EndChar

StartChar: c
Encoding: 99 99 68
Width: 747
Flags: HMW
HStem: -29 108<400.5 529.5 400.5 548> 1256 108<503 543>
VStem: 83 135
LayerCount: 2
Fore
SplineSet
108 615 m 2
 108 662 l 2
 108 1003 118.582417582 1364 643 1364 c 1
 640 1311 l 1
 640 1263 l 1xe0
 358.950055612 1181.60846764 284 1134.9522927 284 827 c 2
 284 817 l 2
 284 685 267 554 267 422 c 0
 267 288.908404853 298.351904724 103.960217439 473.422606486 103.960217439 c 0
 524.468428932 103.960217439 587.732446016 119.683511806 666 157 c 1
 697 52 l 1
 596.950661643 3.74020324955 513.421197298 -16.7049580199 443.801620606 -16.7049580199 c 0
 164.312027884 -16.7049580199 109 312.797808705 109 495 c 0
 109 527 108 569 108 615 c 2
EndSplineSet
EndChar

StartChar: d
Encoding: 100 100 69
Width: 1031
Flags: HMW
HStem: -13 21G<179.5 212 212 446> 1257 95 1333 20G<192.5 215>
VStem: 111 135 117 129 590 109
LayerCount: 2
Fore
SplineSet
215 1353 m 1xac
 215 1352 l 1
 748.03765302 1352 904 1036.10977171 904 704 c 2
 904 592 l 2
 904 340 882 118 446 -13 c 1
 212 -13 l 2
 166.117647059 -13 164 189 164 255 c 0xd4
 164 470 152 685 152 900 c 0
 161 1326 l 0
 161 1340.50746269 189.14893617 1353 215 1353 c 1xac
320 140 m 2xb4
 320 91 l 1
 401 91 l 1
 720 269 767 373 767 611 c 0
 767 783 754.474835886 1230 290 1257 c 1xd4
 290 1044 l 0
 290 742 320 442 320 140 c 2xb4
EndSplineSet
EndChar

StartChar: e
Encoding: 101 101 70
Width: 681
Flags: HMW
HStem: -27 104<344 399 344 479> 693 129<299 464.5> 1332 20G<210 287>
VStem: 112 118 112 290 112 333
LayerCount: 2
Fore
SplineSet
229 -27 m 2xe8
 161 -27 145 -21.5853658537 145 -15 c 0
 145 326.10210676 162 678.771667885 162 1034 c 0
 162 1142.28901734 168 1248.71098266 168 1357 c 0
 168 1354.96551724 177.857142857 1352 260 1352 c 0
 314 1352 465.299987793 1338.90002441 578 1311 c 0xe4
 560 1197 l 1
 299 1236 l 1
 303 1148 l 0
 291 854 l 0
 299 822 l 1xf0
 514 825 l 0
 522 769 l 0
 528 713 l 0
 362 711 l 1
 295 711 l 1
 303 563 l 0
 291 192 l 0
 287 77 l 0
 601 82 l 0
 594 32 l 0
 588 -27 l 2
 229 -27 l 2xe8
EndSplineSet
EndChar

StartChar: f
Encoding: 102 102 71
Width: 710
Flags: HMW
HStem: -30 21G<192 228.5> 640 113<303 409> 1344 20G<259.5 318>
VStem: 139 94 139 113 139 231
LayerCount: 2
Fore
SplineSet
180 1294 m 2xe4
 180 1363 l 2
 630 1364 l 0
 633 1281 l 0
 628 1223 l 1
 552.30994152 1239 409.730994152 1243 327 1243 c 1
 327 1219 l 2
 327 1082 303 945 303 808 c 2
 303 753 l 1
 350.489795918 753 412.591836735 754 482 754 c 0xe4
 481 700 l 0
 477 640 l 0xe8
 421.285714286 640 334 645 282 652 c 1
 282 -38 l 2
 282 -34.3137254902 265 -30 192 -30 c 1xf0
 118 13 l 1
 167 433.715724245 180 867.331054688 180 1294 c 2xe4
EndSplineSet
EndChar

StartChar: g
Encoding: 103 103 72
Width: 1088
Flags: HMWO
HStem: -16 107<450 690.5> 519 105<612.5 741.5> 1247 107<625 630.5 353.5 669.5>
VStem: 78 122 391 362 630 123
LayerCount: 2
Fore
SplineSet
101 622 m 2xf8
 101 668 l 2
 101 935 111 1354 596 1354 c 0
 665 1354 756 1349 846 1312 c 0xf8
 829 1219 l 1
 749.618164062 1236.07714844 681.306172749 1252.0529564 622.521490771 1252.0529564 c 0
 268.220836525 1252.0529564 260 962.311227621 260 629 c 0
 260 433 274 91 626 91 c 0
 807 91 819 310 819 413 c 0
 819 428 819 441 819 450 c 2
 819 511 l 1xf4
 790 519 758 519 725 519 c 0
 703 519 534 518 506 518 c 0
 508 565 l 0
 508 624 l 1
 508 623 l 1
 632 623 869 629 949 620 c 0
 950 411 l 1
 950 112.497908758 864 -16 578 -16 c 0
 173 -16 101 411 101 622 c 2xf8
EndSplineSet
EndChar

StartChar: h
Encoding: 104 104 73
Width: 987
Flags: HMW
HStem: 0 21G<733.5 780 780 783> 632 80<528.5 589> 1354 20G<704.5 729.5> 1357 20G<755.5 772.5>
VStem: 106 122 486 131 511 106 511 144
LayerCount: 2
Fore
SplineSet
783 26 m 2xd9
 700 0 l 2
 695.311523438 -1.0791015625 694 148 694 294 c 0xda
 694 396 686 498 686 548 c 2
 686 556 l 2
 686 576 685 595 685 615 c 0
 685 621 684 628 684 634 c 2
 684 636 l 1
 664.897959184 633 626.693877551 632 606 632 c 0
 500.784946237 632 405.537634409 649 297 651 c 1
 294 576 284 500 284 425 c 2
 284 416 l 2
 284 287.382789318 291 157.617210682 291 29 c 0
 132 5 l 0
 136.978723404 5 138 134 138 283 c 0
 138 391 146 509 146 595 c 0
 146 647 147 680 147 712 c 0
 147 752 152 792 152 832 c 0
 152 1012.66666667 134 1193.33333333 134 1374 c 0
 209 1355 l 0
 302 1323 l 0
 302 1123.05870841 284 921.941291585 284 722 c 1
 373 712 462 712 551 712 c 2
 695 712 l 1
 695 755 l 2
 695 960.725663717 662 1164.27433628 662 1370 c 0
 724 1374 l 0xec
 762 1377 l 0
 802 1376 l 0xdc
 852 38 l 0
 783 26 l 2xd9
EndSplineSet
EndChar

StartChar: i
Encoding: 105 105 74
Width: 723
Flags: HMW
HStem: 18 21G<233 271.5> 22 96<205 393> 1254 102<135 227 205 218 218 227 227 263.5 205 269>
VStem: 57 381 220 109 220 277
LayerCount: 2
Fore
SplineSet
369 22 m 0x64
 275.689655172 22 201.465517241 18 123 18 c 4xb0
 125 55 l 5
 125 118 l 6
 281 118 l 1
 282 127 286 136 286 145 c 0x68
 286 290 268 435 268 580 c 0
 268 732 282 884 282 1036 c 0
 282 1109 278 1182 269 1254 c 1
 218 1254 l 1
 174.081967213 1255 125.540983607 1254 77 1254 c 0
 74 1309 l 0
 75 1356 l 0
 130.272727273 1356 185.545454545 1356 227 1356 c 0
 308.538011696 1356 609 1355.85714286 609 1346 c 0x70
 594 1248 l 1
 417 1248 l 1
 425 1192 428 1129 428 1072 c 0x68
 428 942 413 811 413 681 c 0
 413 536 433 391 433 246 c 2
 433 185 l 2
 433 166 428 146 424 130 c 1
 577 130 l 2
 576 79 l 0
 595 24 l 0
 552.637931034 24 511.362068966 23 469 23 c 0
 448 23 417 22 369 22 c 0x64
EndSplineSet
EndChar

StartChar: j
Encoding: 106 106 75
Width: 745
Flags: MW
HStem: -254 21G<138 138> 1339 20G<181.5 236>
VStem: 84 272 264 92 264 252
LayerCount: 2
Fore
SplineSet
138 -254 m 1xe0
 59 -193 l 1
 288 -82 344 -9 344 187 c 0xd0
 344 536 320 884 320 1233 c 2
 320 1242 l 1
 266 1247 110 1252 110 1312 c 0xe0
 110 1342 166 1359 197 1359 c 0
 275 1359 671 1327 671 1253 c 0xc8
 671 1222 635 1205 599 1205 c 0
 553 1205 509 1219 463 1225 c 1
 463 1208 l 2
 463 933 489 657 489 382 c 0
 489 352 485 321 485 290 c 0
 485 230 489 171 489 114 c 0
 489 -64 450 -217 138 -254 c 1xe0
EndSplineSet
EndChar

StartChar: k
Encoding: 107 107 76
Width: 913
Flags: HMW
HStem: -35 21G<668 777.5> -31 21G<199 243.5> 1337 20G<250 288>
VStem: 105 113 105 282 144 74
LayerCount: 2
Fore
SplineSet
504 797 m 2x68
 504 798 l 2
 834 19 l 0
 758 -35 l 0xa8
 618.700012207 121.800003052 404 626 376 752 c 1
 284 578 l 2
 284 -33 l 2
 225 -31 l 0
 137 -16 l 2
 157 656 l 2x70
 164.071289062 893.586914062 188 1130.3081571 188 1368 c 1x64
 267 1357 l 0
 336 1338 l 0
 336 1297.17426273 320 1054.48793566 314 915 c 1
 314 808 l 1
 366 888.037313433 622 1380 692 1380 c 0
 795 1289 l 0
 795 1283.59459459 536.258741259 950.621621622 499 889 c 1
 504 797 l 2x68
EndSplineSet
EndChar

StartChar: l
Encoding: 108 108 77
Width: 685
Flags: HMW
HStem: -34 21G -29 21G<188 226> -10 87<327 341.5> 1334 20G<200.5 264>
VStem: 104 117 104 373
LayerCount: 2
Fore
SplineSet
287 545 m 2x58
 287 544 l 2xb8
 287 386.760736196 277 240.957055215 277 78 c 0
 366 77 l 0
 415.774774775 77 501.387387387 80 587 80 c 0
 610 20 l 0
 619 -34 l 1
 517.453781513 -15 409.226890756 -10 301 -10 c 1xb4
 150 -29 l 0
 135 38 l 0
 135 343 161 648 161 953 c 2
 161 968 l 1
 153 1095.33333333 153 1222.66666667 153 1350 c 0
 246 1354 l 0
 293 1353 l 0
 295 1147 l 0
 295 983 303 819 303 655 c 1
 288 629 287 598 287 569 c 0
 287 561 287 553 287 545 c 2x58
EndSplineSet
EndChar

StartChar: m
Encoding: 109 109 78
Width: 1557
Flags: HMW
HStem: -40 21G<172 234.5> -34 21G<1308.5 1371> 1330 20G<230 374.5> 1331 20G<215.5 229>
VStem: 99 116 139 102 970 100
LayerCount: 2
Fore
SplineSet
349 1351 m 1x96
 181 1340 l 0
 181 1094.93034826 129 587.517412935 129 255 c 0x9a
 129 82 131.217391304 -40 138 -40 c 0
 286 -32 l 0
 280 89 l 0
 280 415 298 740 314 1065 c 1x66
 382.110754797 938.825725299 594.300018311 388.5 697.982421875 140.5 c 1
 778 114 l 0
 867.921875 94.5 l 1
 991.001147526 308.577413033 1208.424837 960.499825692 1265 1125 c 1
 1265 955 1259 794 1259 639 c 0
 1259 521 1268 402 1268 283 c 0
 1268 176.666666667 1261 70.3333333333 1261 -36 c 0
 1347 -34 l 0
 1413 -28 l 0
 1411 93 l 1
 1413 423 l 2
 1413 435 1413 447 1413 459 c 0
 1413 729 1391 1014 1391 1291 c 0
 1214 1347 l 0
 1068.81739 1141.5 823.351351351 377 776 242 c 1
 729.967032967 432 455.403021031 1268.5 350 1350 c 1
 344.405273438 1350.26269531 l 0
 339.3828125 1352.73925781 l 0
 344.977539062 1352.47753906 l 0
 349 1351 l 1x96
EndSplineSet
EndChar

StartChar: n
Encoding: 110 110 79
Width: 1307
Flags: HMW
HStem: -28 21G<868 974> -26 21G<975 1063> -19 21G<192 252.5> 1329 20G<204.5 378>
VStem: 110 108 771 128
LayerCount: 2
Fore
SplineSet
935 -26 m 1x5c
 934 -28 l 1x9c
 786.384060846 163.499969482 355.594202899 997 284 1113 c 1
 284 807 l 2
 284 693 304 439 304 277 c 2
 304 -45 l 2
 230 -19 l 0x3c
 143 16 l 0
 143 287 138 558 138 829 c 0
 138 956 154 1084 154 1211 c 2
 154 1299 l 2
 331 1349 l 0
 516.246811238 1181.49996948 916.319148936 306 1003 153 c 1
 1016 510 1018 869 1018 1228 c 0
 1012 1283 l 0
 1081 1273 l 0
 1169 1264 l 0
 1169 1212 1173 1087 1173 935 c 0
 1132.29980469 0 l 1
 935 -26 l 1x5c
EndSplineSet
EndChar

StartChar: o
Encoding: 111 111 80
Width: 1122
Flags: HMW
HStem: -38 86<409 675 409 765> 1270 83<436 437 436 490.5 436 497>
VStem: 84 114 644 117
LayerCount: 2
Fore
SplineSet
989 798 m 2
 989 551 l 2
 989 368 971 -38 559 -38 c 0
 148 -38 109 410 109 626 c 0
 109 672 108 715 108 751 c 2
 108 791 l 2
 108 1165.84246478 335.214964243 1360.74139889 558.865281718 1360.74139889 c 0
 775.606545329 1360.74139889 989 1177.69818693 989 798 c 2
256 718 m 0
 256 614 278 48 540 48 c 0
 810 48 837 455 837 565 c 0
 837 616 844 692 844 776 c 0
 844 1038.91885971 714.302581863 1246.03710938 609.22265625 1246.03710938 c 0
 294.964741227 1246.03710938 256 989.901519074 256 718 c 0
EndSplineSet
EndChar

StartChar: p
Encoding: 112 112 81
Width: 713
Flags: HMW
HStem: -39 21G<167 232 167 167> 1228 114<305 327 327 370>
VStem: 122 112 347 112
LayerCount: 2
Fore
SplineSet
159 1080 m 2
 157 1340 l 1
 210 1342 l 1
 327 1342 l 2
 541 1342 597 1180 597 1044 c 0
 597 831 593 699 292 628 c 1
 292 409 l 2
 292 258.896907216 283 111.103092784 283 -39 c 1
 149 -39 l 1
 151 128 l 1
 151 303 145 477 145 652 c 0
 145 714 155 815 155 885 c 0
 155 944 159.523061448 1012.00201175 159 1080 c 2
305 1228 m 1
 305 1115 l 2
 305 987 290 859 290 731 c 2
 290 713 l 1
 445 729 452 969 452 1059 c 0
 452 1136 435 1228 305 1228 c 1
EndSplineSet
EndChar

StartChar: q
Encoding: 113 113 82
Width: 1117
Flags: MW
HStem: -434 21G<920 938> 1288 81<378.5 474 472 474>
VStem: 82 103 481 90 666 94
LayerCount: 2
Fore
SplineSet
624 -385 m 1
 626 -385 l 1
 626 25 107 37 107 512 c 0
 107 595 111 678 111 754 c 0
 111 903 121 1369 484 1369 c 1
 943 1265 988 1092 988 812 c 0
 988 635 986 30 743 -49 c 1
 743 -143 797 -235 839 -326 c 1
 901 -326 985 -333 985 -384 c 0
 985 -412 956 -434 920 -434 c 1
 920 -432 l 1
 840 -432 704 -427 624 -385 c 1
472 1288 m 2
 474 1288 l 2
 283 1288 241 785 241 699 c 0
 241 590 241 7 520 6 c 1
 559 14 604 18 645 18 c 0
 735 18 866 386 866 726 c 0
 866 1018 771 1288 472 1288 c 2
EndSplineSet
EndChar

StartChar: r
Encoding: 114 114 83
Width: 731
Flags: MW
HStem: -35 21G<513.5 613> -5 21G<203 231> 1289 76
VStem: 94 100 127 67 127 95 127 376 313 102
LayerCount: 2
Fore
SplineSet
407 1098 m 0xf1
 407 1175 399 1287 266 1289 c 1
 264 1280 257 1269 257 1260 c 0
 257 1102 266 945 268 787 c 1
 361 824 407 1023 407 1098 c 0xf1
403 736 m 1
 461 536 654 198 654 17 c 0xe2
 654 -10 632 -35 594 -35 c 0
 433 -35 352 576 288 689 c 1xe5
 288 636 252 577 252 520 c 0
 252 391 285 190 285 86 c 0
 285 25 248 -5 214 -5 c 0
 192 -5 171 9 165 36 c 1xe9
 166 74 168 111 168 149 c 0
 168 518 122 898 122 1268 c 0
 122 1314 136 1365 210 1365 c 0
 385 1365 539 1295 539 1149 c 0
 539 948 496 875 403 736 c 1
EndSplineSet
EndChar

StartChar: s
Encoding: 115 115 84
Width: 659
Flags: HMW
HStem: -28 21G<240 240> -23 94<240 240> 1261 120<258.5 428>
VStem: 81 101 81 287 327 100
LayerCount: 2
Fore
SplineSet
236 1075 m 0
 236 811 555 689 555 342 c 0
 555 191 479.03347046 -28 240 -28 c 0
 182.685080476 -28 143 -16 85 12 c 1
 105 86 l 1
 141 82 208 71 245 71 c 0
 390 71 425 286 425 367 c 0
 425 631 106 790 106 1086 c 0
 106 1194 170 1381 347 1381 c 0
 404 1381 441 1359 478 1330 c 1
 463 1251 l 1
 434.122043943 1265.43897803 407.861085333 1271.76404199 384.297266044 1271.76404199 c 0
 287.295942513 1271.76404199 236 1164.58030994 236 1075 c 0
EndSplineSet
EndChar

StartChar: t
Encoding: 116 116 85
Width: 724
Flags: HMW
HStem: 6 21G<373 433 373 373> 1255 105
VStem: 53 274 227 100 227 266 287 108
LayerCount: 2
Fore
SplineSet
343 260 m 1xc4
 333.769230769 299 296.846153846 1154 295 1255 c 1xd0
 241 1255.18032787 69 1255 69 1266 c 0xe0
 74 1360 l 0
 515 1341 l 0
 640 1342 l 0
 641 1293 l 0xc8
 635 1237 l 0
 575.243902439 1237 518.333333333 1247 460 1251 c 1
 459 1245 455 1237 455 1230 c 0xe0
 455 820.931212382 494 416.068787618 494 7 c 0
 433 6 l 2
 343 6 l 1
 343 58 338 138 338 190 c 0
 338 213 342 237 343 260 c 1xc4
EndSplineSet
EndChar

StartChar: u
Encoding: 117 117 86
Width: 1024
Flags: HMW
HStem: -31 62<512 515 515 622.5> 1369 20G<784.5 855>
VStem: 101 92 112 81 573 118
LayerCount: 2
Fore
SplineSet
251 241 m 2xc8
 251 186.194157133 323.235129234 111.780162161 512 111 c 0
 733 111 745 871.606557377 745 1190 c 2
 745 1307 l 1
 744 1411 l 1
 816 1389 l 1
 898 1360 l 1
 898 1267.55339806 880 1173.76699029 880 1084 c 0
 880 1047.5756423 880.469769949 1003.05741027 880.469769949 953.010524334 c 0
 880.469769949 599.179505502 856.988427706 -31 478 -31 c 0
 164 -31 131 257 131 473 c 0
 131 693 146 821 146 1013 c 0
 146 1114 145.363636364 1213 143 1306 c 1
 143 1355 l 1
 251 1372 l 1
 251 241 l 2xc8
EndSplineSet
EndChar

StartChar: v
Encoding: 118 118 87
Width: 961
Flags: HMW
HStem: -24 21G<451 541> 1358 20G<736 796 796 796>
VStem: 301 358
LayerCount: 2
Fore
SplineSet
207 1366 m 2
 208 1366 l 2
 208 1366 469.043478261 402 493 247 c 1
 593 629 655 1004 736 1378 c 1
 796 1378 l 1
 826 1375 857 1377 857 1351 c 0
 857 1166.52727273 589.949256784 70.1767302357 571 16 c 1
 391 7 l 1
 329.899993896 233.800003052 199.899993896 915.799987793 82 1319 c 0
 207 1366 l 2
EndSplineSet
EndChar

StartChar: w
Encoding: 119 119 88
Width: 1267
Flags: MW
HStem: -69 21G<850 960.5> -43 21G<263 428> 1357 20G<1048.5 1096.5>
VStem: 185 152 276 61 432 310 602 186 773 75 773 108
LayerCount: 2
Fore
SplineSet
1021 139 m 1xf5
 1024 139 l 1
 1024 86 1024 -69 897 -69 c 0
 803 -69 783 -13 783 25 c 0
 783 311 663 645 576 942 c 1xf2
 568 903 562 865 562 826 c 0
 562 700 498 -43 358 -43 c 0
 168 -43 165 1142 78 1293 c 1
 92 1316 122 1329 155 1329 c 0
 233 1329 241 1238 241 1195 c 0
 241 888 345 589 359 283 c 1
 395 474 438 665 438 858 c 0
 438 971 465 1105 472 1210 c 1
 543 1210 l 2
 593 1210 654 1194 654 1160 c 2
 654 1143 l 1
 811 871 811 586 891 307 c 1xf480
 949 531 965 758 965 984 c 0
 965 1087 1005 1189 1005 1292 c 1
 998 1305 996 1316 996 1327 c 0
 996 1357 1019 1377 1078 1377 c 0
 1115 1377 1145 1360 1145 1329 c 0
 1143 1241 1106 1144 1102 1046 c 1xec80
 1102 896 l 2
 1102 644 1021 371 1021 139 c 1xf5
EndSplineSet
EndChar

StartChar: x
Encoding: 120 120 89
Width: 698
Flags: HMW
HStem: -7 21G<193.5 238> 1320 20G<486 488 486 505.5>
VStem: 87 324 100 215 215 100 215 246 317 94
LayerCount: 2
Fore
SplineSet
444 1340 m 1xe0
 599 1322 l 2
 529 1109 l 1
 488 1021 410 741 410 646 c 0xd2
 599 54 l 0
 478 3 l 0
 440.200008908 100 359.054054054 353 343 433 c 1
 319 320 321 203 278 93 c 1
 250 -11 l 0xc4
 211 -7 l 0
 130 40 l 0xd2
 280 660 l 0xca
 143 1169 l 1
 113 1241 l 1xe0
 91 1292 l 0
 210 1344 l 0
 252.199996948 1222.30004883 329.971751412 980.931818182 347 894 c 1
 374.692307692 1003 408.200012207 1164.30004883 422 1238 c 1
 444 1340 l 1xe0
EndSplineSet
EndChar

StartChar: y
Encoding: 121 121 90
Width: 763
Flags: HMW
HStem: -28 21G<399.5 457.5> 1342 20G<535.5 609.5>
VStem: 63 321 63 444 287 97
LayerCount: 2
Fore
SplineSet
373 564 m 1xe0
 330.699996948 705.799987793 93.4375 1225.44824219 92 1228 c 2
 52 1299 l 1
 182 1373 l 1
 267.048373363 1206.26315789 400.606557377 890.473684211 436 797 c 1
 465.625 886.701030928 531.483663119 1207.06185567 594 1362 c 0
 729 1339 l 0xd0
 644.30001492 1017.86786297 509 749.689038922 509 436 c 2
 499 39 l 2
 417 32 l 0
 343 7 l 1
 373 79.2334293948 370.699996948 475.799987793 373 564 c 1xe0
EndSplineSet
EndChar

StartChar: z
Encoding: 122 122 91
Width: 723
Flags: MW
HStem: -4 21G<144 180.5> 12 95 1256 103
VStem: 70 116 70 320 153 326 373 106
LayerCount: 2
Fore
SplineSet
623 1302 m 0x64
 623 908 263 514 242 107 c 1x72
 287 107 l 2
 325 107 361 111 399 111 c 1
 399 112 l 1
 445 112 507 109 507 62 c 0
 507 25 454 12 415 12 c 0x68
 363 12 309 18 257 18 c 0
 222 18 198 -4 163 -4 c 0
 125 -4 91 18 91 48 c 0
 91 457 460 854 485 1256 c 1xb2
 412 1254 341 1244 268 1244 c 0
 229 1244 199 1272 199 1301 c 0
 199 1356 385 1359 469 1359 c 0
 476 1359 484 1359 491 1359 c 0
 542 1359 623 1355 623 1302 c 0x64
EndSplineSet
EndChar

StartChar: braceleft
Encoding: 123 123 92
Width: 787
Flags: MW
HStem: -49 88<454 526> -48 21G<526 550.5> 1388 106<437 655>
VStem: 62 229 202 89 202 345
LayerCount: 2
Fore
SplineSet
526 -48 m 1x70
 526 -49 l 1
 311 -49 263 51 263 197 c 2
 263 620 l 1xa8
 262 784 81 672 81 765 c 0xb0
 81 865 262 753 262 915 c 0
 262 957 249 1053 249 1129 c 0
 249 1172 253 1208 266 1225 c 1
 262 1243 259 1261 259 1279 c 0
 259 1398 348 1494 526 1494 c 0
 570 1494 712 1481 712 1434 c 0xa4
 712 1403 673 1388 637 1388 c 0
 592 1388 552 1407 506 1407 c 0
 379 1407 379 1221 379 1156 c 0
 379 1105 389 1023 389 946 c 0
 389 874 380 805 342 767 c 1
 384 727 390 671 390 621 c 2
 390 191 l 2
 390 187 390 183 390 179 c 0
 390 116 402 39 506 39 c 0xb0
 561 39 609 62 663 62 c 0
 679 62 686 25 686 16 c 0
 686 -36 575 -48 526 -48 c 1x70
EndSplineSet
EndChar

StartChar: bar
Encoding: 124 124 93
Width: 457
Flags: MW
HStem: -80 21G<206 258> 1564 20G<216 264>
VStem: 133 99
LayerCount: 2
Fore
SplineSet
173 114 m 0
 173 580 155 1045 155 1510 c 0
 155 1556 185 1584 247 1584 c 0
 281 1584 302 1556 302 1533 c 0
 302 1148 311 763 311 379 c 2
 311 -29 l 2
 311 -57 276 -80 240 -80 c 0
 172 -80 173 82 173 114 c 0
EndSplineSet
EndChar

StartChar: braceright
Encoding: 125 125 94
Width: 782
Flags: MW
HStem: -48 106<141.5 360> 1408 87<263 343.5>
VStem: 65 345 321 219
LayerCount: 2
Fore
SplineSet
271 1495 m 0xd0
 483 1495 534 1394 534 1249 c 2
 534 876 l 2xe0
 534 712 703 821 703 731 c 0xd0
 703 630 535 745 535 581 c 0
 535 538 545 421 545 330 c 0
 545 279 543 236 531 221 c 1
 535 202 536 184 536 166 c 0
 536 47 449 -48 271 -48 c 0
 227 -48 85 -35 85 12 c 0xe0
 85 43 124 58 159 58 c 0
 205 58 245 39 290 39 c 0
 417 39 418 224 418 289 c 0
 418 346 405 443 405 534 c 0
 405 615 415 691 454 729 c 1
 413 770 406 825 406 875 c 0
 406 915 419 1021 419 1127 c 0
 419 1267 397 1408 290 1408 c 0
 236 1408 188 1385 133 1385 c 0
 118 1385 111 1422 111 1431 c 0
 111 1483 222 1495 271 1495 c 0xd0
EndSplineSet
EndChar

StartChar: exclamdown
Encoding: 161 161 95
Width: 460
Flags: MW
HStem: -52 21G<251 296.5> 1395 177<186 237 169 250.5>
VStem: 80 184 129 135
LayerCount: 2
Fore
SplineSet
215 1395 m 0xe0
 157 1395 104 1438 104 1481 c 2
 104 1487 l 2
 104 1532 133 1572 205 1572 c 0
 269 1572 324 1549 324 1494 c 0
 324 1443 286 1395 215 1395 c 0xe0
168 1038 m 0xd0
 168 1052 166 1074 166 1099 c 0
 166 1165 173 1250 217 1250 c 0
 269 1250 290 1127 290 1074 c 0
 290 714 343 357 343 -2 c 0
 343 -30 315 -52 278 -52 c 0
 224 -52 165 -17 165 27 c 0
 165 251 178 475 178 699 c 0
 178 806 168 924 168 1038 c 0xd0
EndSplineSet
EndChar

StartChar: cent
Encoding: 162 162 96
Width: 929
Flags: MW
HStem: -20 21G<547 564> 1436 20G<390 430>
VStem: 90 99 90 310 261 113 389 65 389 278
LayerCount: 2
Fore
SplineSet
380 1150 m 1xea
 274 1068 246 889 246 790 c 0
 246 695 256 427 489 406 c 1
 477 547 421 908 380 1150 c 1xea
488 1371 m 1
 486 1371 l 1xec
 486 1184 674 1227 737 1140 c 1
 741 1135 l 1
 741 1114 715 1084 684 1084 c 0
 642 1084 610 1112 595 1140 c 1
 520 1140 l 1xd0
 542 919 590 595 590 403 c 0xec
 590 399 592 395 593 391 c 1
 694 395 740 452 790 511 c 1
 844 511 867 492 867 451 c 0
 867 373 681 307 592 301 c 1
 592 222 l 2
 592 157 610 93 610 28 c 0
 610 2 581 -20 547 -20 c 1
 519 9 506 17 506 65 c 0
 506 111 495 156 495 202 c 0
 495 239 489 276 484 313 c 1
 121 402 117 560 117 777 c 0
 117 943 124 1156 359 1254 c 1
 352 1292 339 1330 339 1368 c 0
 339 1403 350 1456 430 1456 c 1
 486 1434 488 1423 488 1379 c 2
 488 1371 l 1
EndSplineSet
EndChar

StartChar: sterling
Encoding: 163 163 97
Width: 998
Flags: MW
HStem: 2 21G<165 165> 27 98<689.5 831> 71 54 71 98 1612 20G<333 418 418 470>
VStem: 69 288 109 101 136 74 260 97 260 228
LayerCount: 2
Fore
SplineSet
338 382 m 0xca80
 338 565 142 785 142 918 c 0xca80
 142 937 155 956 177 966 c 1
 173 1057 145 1147 145 1238 c 0
 145 1329 164 1632 333 1632 c 2
 418 1632 l 2
 522 1632 635 1474 635 1403 c 2
 635 1394 l 1xc940
 593 1359 l 1
 523 1359 518 1380 488 1422 c 1
 488 1459 l 1
 477 1475 470 1492 464 1509 c 1
 448 1523 414 1536 388 1539 c 1
 388 1519 l 1
 351 1486 273 1318 273 1270 c 2
 273 1243 l 2xca80
 273 1154 275 1062 298 976 c 1
 388 979 475 1002 565 1002 c 0
 600 1002 632 980 632 952 c 0
 632 873 393 891 325 883 c 1
 366 717 464 548 464 378 c 0
 464 305 431 238 403 169 c 1x9c
 520 162 631 125 748 125 c 0
 789 125 831 130 869 144 c 1
 932 109 l 1
 932 41 867 27 795 27 c 0xcc
 748 27 700 34 665 34 c 2
 579 34 l 1
 541 45 462 71 405 71 c 0
 357 71 211 21 165 2 c 1
 165 6 l 1
 133 8 90 23 90 53 c 0xac
 90 142 338 200 338 382 c 0xca80
EndSplineSet
EndChar

StartChar: fraction
Encoding: 8260 8260 98
Width: 744
Flags: MW
HStem: -31 21G<150 239.5> 1533 20G<519 610>
LayerCount: 2
Fore
SplineSet
90 30 m 0
 90 127 446 1553 592 1553 c 0
 628 1553 663 1533 663 1503 c 0
 663 1324 329 -31 150 -31 c 1
 123 -18 90 5 90 30 c 0
EndSplineSet
EndChar

StartChar: yen
Encoding: 165 165 99
Width: 1428
Flags: MW
HStem: -8 21G<729 792.5> 780 107 957 114 1812 20G<1123 1205.5>
VStem: 552 131 552 487
LayerCount: 2
Fore
SplineSet
735 1071 m 1xf8
 737 1071 l 1
 622 1153 64 1604 64 1737 c 0
 64 1762 93 1774 145 1774 c 0
 273 1774 721 1293 801 1207 c 1
 849 1302 1060 1832 1186 1832 c 0
 1225 1832 1261 1809 1261 1778 c 2
 1261 1768 l 1
 1153 1536 1010 1307 901 1059 c 1
 961 1059 1107 1066 1186 1066 c 0
 1273 1066 1351 1054 1351 1005 c 0xf4
 1351 963 1257 957 1204 957 c 2
 888 957 l 1
 888 887 l 1
 958 887 1094 889 1202 889 c 0
 1273 889 1345 876 1345 820 c 0
 1345 797 1307 780 1272 780 c 0
 1126 780 1135 780 882 776 c 1
 880 564 841 354 841 142 c 0
 841 128 843 111 843 94 c 0
 843 45 832 -8 753 -8 c 0
 705 -8 626 6 626 40 c 2
 626 45 l 1
 683 112 718 663 718 773 c 1
 275 773 l 1
 224 774 194 809 194 838 c 0
 194 854 203 869 225 875 c 1
 350 875 533 878 735 883 c 1
 737 907 737 934 737 958 c 1
 414 958 l 2
 312 958 230 968 230 1010 c 0
 230 1049 282 1057 336 1057 c 0
 379 1057 453 1052 520 1052 c 0
 593 1052 663 1054 735 1059 c 1
 735 1071 l 1xf8
EndSplineSet
EndChar

StartChar: section
Encoding: 167 167 100
Width: 802
Flags: MW
HStem: 1 120<237 484> 1423 20G<332.5 474.5>
VStem: 81 123 114 90 114 368 141 401 416 126 441 101
LayerCount: 2
Fore
SplineSet
574 649 m 1xd1
 573 649 l 1
 573 754 442 840 327 925 c 1
 268 890 235 840 235 795 c 0
 235 701 356 622 470 549 c 1
 530 573 574 612 574 649 c 1xd1
703 634 m 1
 704 634 l 1
 704 566 663 502 589 465 c 1
 643 399 685 326 685 246 c 0
 685 139 604 1 364 1 c 0
 271 1 183 33 183 82 c 0xc4
 183 109 218 121 256 121 c 0
 284 121 320 116 346 109 c 1
 477 110 541 206 541 257 c 0
 541 457 105 550 105 820 c 0xe2
 105 895 144 972 223 1018 c 1
 173 1099 148 1186 148 1275 c 0
 148 1385 219 1443 446 1443 c 0
 503 1443 626 1430 626 1392 c 0xc8
 626 1308 265 1405 265 1277 c 0
 265 1046 703 943 703 634 c 1
EndSplineSet
EndChar

StartChar: currency
Encoding: 164 164 101
Width: 1579
Flags: MW
HStem: 195 21G<1377 1418> 205 100<692 799> 1009 246<185 475> 1180 105<731.5 747.5 609 959> 1331 20G<1345 1389>
VStem: 78 259 132 110 1001 26 1001 121
LayerCount: 2
Fore
SplineSet
1299 251 m 2xad
 1300 293 l 1
 1151 235 899 205 699 205 c 0
 540 205 391 243 296 290 c 1
 274 253 248 201 184 201 c 0
 127 201 101 236 101 276 c 0x6d
 101 315 186 360 213 392 c 1
 175 446 171 507 171 567 c 0
 171 692 176 977 265 1078 c 1
 235 1119 139 1160 139 1209 c 0
 139 1235 169 1255 201 1255 c 0x6b
 269 1255 306 1209 362 1172 c 1
 423 1202 561 1285 657 1285 c 0
 838 1285 1014 1259 1166 1216 c 1
 1242 1260 1301 1351 1389 1351 c 1
 1458 1304 l 1x5c80
 1453 1241 1335 1165 1335 1141 c 0
 1335 1019 1452 902 1452 772 c 0
 1452 643 1365 525 1365 396 c 0
 1365 335 1465 308 1465 247 c 0
 1465 219 1436 195 1400 195 c 0
 1354 195 1298 212 1299 251 c 2xad
1298 779 m 1
 1301 778 l 1
 1301 957 1157 1180 761 1180 c 0x5d
 702 1180 555 1120 517 1099 c 1
 517 1085 l 2
 517 1076 518 1066 518 1056 c 0
 518 1032 508 1009 442 1009 c 0
 384 1009 314 774 314 696 c 0
 314 687 325 678 325 669 c 0
 325 641 314 614 314 585 c 0x6b
 314 527 330 462 438 421 c 1
 438 332 604 305 780 305 c 0
 1215 305 1298 640 1298 779 c 1
EndSplineSet
EndChar

StartChar: quotesingle
Encoding: 39 39 102
Width: 425
Flags: MW
HStem: 1193 385<201 213>
VStem: 108 115
LayerCount: 2
Fore
SplineSet
140 1531 m 0
 140 1559 183 1578 219 1578 c 0
 258 1578 278 1556 290 1531 c 1
 290 1525 l 2
 290 1521 284 1514 284 1511 c 0
 284 1407 239 1193 187 1193 c 0
 170 1193 140 1435 140 1531 c 0
EndSplineSet
EndChar

StartChar: quotedblleft
Encoding: 8220 8220 103
Width: 850
Flags: MW
HStem: 1192 21G<214.5 281> 1193 385<491 729> 1557 20G<374 452 452 452>
VStem: 98 195 311 195
LayerCount: 2
Fore
SplineSet
452 1577 m 1xb8
 452 1506 l 1
 404 1476 318 1429 305 1381 c 1
 347 1357 381 1320 381 1279 c 0
 381 1227 312 1192 250 1192 c 0
 179 1192 149 1234 127 1279 c 1
 127 1285 l 1
 126 1289 133 1294 133 1298 c 0
 133 1391 251 1577 374 1577 c 2
 452 1577 l 1xb8
729 1578 m 1x58
 729 1507 l 1
 684 1473 595 1433 582 1382 c 1
 624 1358 658 1321 658 1280 c 0
 658 1228 589 1193 526 1193 c 0
 456 1193 426 1235 404 1280 c 1
 404 1286 l 1
 403 1290 409 1295 409 1299 c 0
 409 1392 528 1578 651 1578 c 2
 729 1578 l 1x58
EndSplineSet
EndChar

StartChar: guillemotleft
Encoding: 171 171 104
Width: 954
Flags: MW
HStem: -59 21G<588 634> -22 21G<779.5 854.5> 1469 20G<531.5 554>
VStem: 71 291 245 117
LayerCount: 2
Fore
SplineSet
318 698 m 1xe8
 321 757 658 1447 738 1447 c 0
 741 1447 743 1446 747 1446 c 1
 806 1411 l 1
 771 1193 470 869 470 702 c 0
 470 679 827 135 875 69 c 1
 875 66 875 63 875 59 c 0
 875 51 875 42 875 33 c 0
 875 6 871 -22 838 -22 c 0
 721 -22 390 579 318 698 c 1xe8
92 697 m 0xf0
 92 778 418 1406 511 1483 c 1
 511 1485 l 1
 518 1486 528 1489 535 1489 c 0
 573 1489 616 1473 619 1440 c 1
 479 1193 385 929 236 687 c 1
 279 526 700 65 700 -13 c 0
 700 -45 651 -59 617 -59 c 0
 559 -59 92 607 92 697 c 0xf0
EndSplineSet
EndChar

StartChar: guilsinglleft
Encoding: 8249 8249 105
Width: 726
Flags: MW
HStem: -22 21G<512 627.5> 1426 20G<518 520> 1427 20G<470.5 512.5>
VStem: 70 117
LayerCount: 2
Fore
SplineSet
91 698 m 1xd0
 94 757 430 1447 511 1447 c 0xb0
 514 1447 516 1446 520 1446 c 1
 579 1411 l 1
 543 1193 243 869 243 702 c 0
 243 679 599 135 647 69 c 1
 647 66 647 63 647 59 c 0
 647 51 647 42 647 33 c 0
 647 6 644 -22 611 -22 c 0
 413 -22 166 578 91 698 c 1xd0
EndSplineSet
EndChar

StartChar: guilsinglright
Encoding: 8250 8250 106
Width: 758
Flags: MW
HStem: -23 21G<129 161.5> -19 21G<199.5 208> 1426 20G<243 243>
VStem: 399 118
LayerCount: 2
Fore
SplineSet
243 1444 m 1xb0
 243 1443 l 1
 369 1399 668 799 672 698 c 1
 208 -19 l 1x70
 191 -19 170 -23 153 -23 c 0
 105 -23 84 19 83 49 c 1
 130 116 519 680 519 702 c 0
 519 908 187 1202 184 1411 c 1
 243 1446 l 1
 243 1444 l 1xb0
EndSplineSet
EndChar

StartChar: endash
Encoding: 8211 8211 107
Width: 1348
Flags: MW
HStem: 636 101 721 20G<728 920.5>
LayerCount: 2
Fore
SplineSet
433 737 m 2x80
 471 737 637 741 819 741 c 0x40
 1022 741 1214 731 1214 683 c 0
 1214 654 1188 636 1152 636 c 0
 908 636 522 646 258 646 c 0
 217 646 151 649 151 691 c 0
 151 719 174 737 211 737 c 2
 433 737 l 2x80
EndSplineSet
EndChar

StartChar: periodcentered
Encoding: 183 183 108
Width: 481
Flags: MW
HStem: 633 152<221.5 267>
VStem: 114 150
LayerCount: 2
Fore
SplineSet
148 706 m 0
 148 747 195 785 248 785 c 0
 299 785 343 746 343 708 c 0
 343 661 296 633 238 633 c 0
 188 633 148 669 148 706 c 0
EndSplineSet
EndChar

StartChar: paragraph
Encoding: 182 182 109
Width: 1301
Flags: MW
HStem: -20 21G<1027.5 1096> -8 21G<703 758> 1098 98<553 682.5 553 696> 1739 138
VStem: 70 111 497 140 540 139 741 131 741 211 771 101
LayerCount: 2
Fore
SplineSet
569 1748 m 0x7b
 378 1748 235 1592 235 1455 c 0
 235 1224 426 1196 680 1196 c 0
 685 1196 694 1199 699 1200 c 1
 699 1366 673 1531 673 1697 c 2
 673 1740 l 1
 638 1748 605 1748 569 1748 c 0x7b
88 1384 m 1
 91 1385 l 1
 91 1743 373 1877 821 1877 c 0
 878 1877 936 1865 990 1860 c 1
 990 1859 l 1
 1066 1859 l 1
 1066 1855 l 1
 1111 1853 1237 1839 1237 1791 c 0x7c80
 1237 1751 1193 1739 1145 1739 c 0
 1141 1739 1137 1739 1133 1739 c 1
 1135 1540 1151 1341 1151 1142 c 0
 1151 850 1136 557 1136 265 c 0
 1136 188 1151 113 1151 36 c 0
 1151 4 1116 -20 1076 -20 c 0
 979 -20 963 52 963 103 c 0xbd
 963 461 1002 819 1002 1177 c 0
 1002 1326 971 1474 971 1623 c 0
 971 1642 977 1666 977 1689 c 0
 977 1731 955 1769 846 1769 c 0
 830 1769 828 1700 828 1689 c 0x7c40
 828 1452 882 1217 882 980 c 0x7b
 882 674 803 370 803 64 c 0
 803 21 790 -8 726 -8 c 0
 680 -8 646 21 646 56 c 0x7d
 646 359 702 661 702 964 c 0
 702 1009 698 1053 696 1098 c 1
 353 1098 225 1151 88 1384 c 1
EndSplineSet
EndChar

StartChar: bullet
Encoding: 8226 8226 110
Width: 831
Flags: MW
HStem: 485 21G<335.5 533.5> 991 20G<331.5 521.5>
VStem: 110 432
LayerCount: 2
Fore
SplineSet
143 727 m 0
 143 847 265 1011 398 1011 c 0
 645 1011 705 866 705 779 c 0
 705 694 657 485 410 485 c 0
 261 485 144 595 144 665 c 0
 144 687 143 705 143 727 c 0
EndSplineSet
EndChar

StartChar: quotesinglbase
Encoding: 8218 8218 111
Width: 563
Flags: MW
HStem: -202 386<116 354 116 354>
VStem: 144 195
LayerCount: 2
Fore
SplineSet
116 -202 m 1
 116 -130 l 1
 160 -96 251 -54 264 -4 c 1
 221 20 188 55 188 97 c 0
 188 149 256 184 319 184 c 0
 389 184 419 143 441 98 c 1
 441 91 l 2
 441 87 437 82 437 77 c 0
 437 -15 319 -202 195 -202 c 2
 116 -202 l 1
EndSplineSet
EndChar

StartChar: quotedblbase
Encoding: 8222 8222 112
Width: 884
Flags: MW
HStem: -201 385<290 410 290 517>
VStem: 145 193 392 192
LayerCount: 2
Fore
SplineSet
111 -164 m 1
 142 -114 255 -44 266 -4 c 1
 223 20 189 55 189 97 c 0
 189 150 258 184 322 184 c 0
 391 184 440 134 440 83 c 0
 440 -12 323 -197 180 -197 c 1
 111 -164 l 1
410 -201 m 1
 410 -130 l 1
 469 -100 573 -52 586 -4 c 1
 543 19 510 56 510 97 c 0
 510 149 579 184 641 184 c 0
 710 184 760 134 760 83 c 0
 760 -3 649 -201 517 -201 c 2
 410 -201 l 1
EndSplineSet
EndChar

StartChar: quotedblright
Encoding: 8221 8221 113
Width: 903
Flags: MW
HStem: 1194 386<446 682.5 446 682.5> 1561 20G<297.5 364>
VStem: 152 195 398 194
LayerCount: 2
Fore
SplineSet
126 1196 m 1x70
 126 1267 l 1
 172 1301 261 1341 274 1392 c 1
 231 1416 198 1452 198 1494 c 0
 198 1546 266 1581 329 1581 c 0
 399 1581 429 1539 451 1494 c 1
 451 1488 l 2
 451 1484 446 1479 446 1474 c 0
 446 1382 329 1196 205 1196 c 2
 126 1196 l 1x70
770 1493 m 1
 770 1474 l 2
 770 1382 649 1194 524 1194 c 2
 446 1194 l 1
 446 1266 l 1
 494 1296 580 1343 593 1391 c 1
 551 1415 517 1452 517 1493 c 0
 517 1545 586 1580 649 1580 c 0xb0
 716 1580 751 1538 770 1493 c 1
EndSplineSet
EndChar

StartChar: guillemotright
Encoding: 187 187 114
Width: 988
Flags: MW
HStem: -57 21G<361 406.5> -23 21G<129 161.5> -19 21G<199.5 208> 1469 20G<437 461.5>
VStem: 399 118 399 295
LayerCount: 2
Fore
SplineSet
243 1444 m 1xd8
 243 1443 l 1
 369 1399 668 799 672 698 c 1
 208 -19 l 1xb8
 191 -19 170 -23 153 -23 c 0
 105 -23 84 19 83 49 c 1
 130 116 519 680 519 702 c 0
 519 908 187 1202 184 1411 c 1
 243 1446 l 1
 243 1444 l 1xd8
478 1484 m 1
 577 1408 902 784 902 699 c 0xd4
 902 609 435 -57 378 -57 c 0
 344 -57 294 -44 294 -11 c 0
 294 67 715 527 759 688 c 1
 610 927 568 1210 374 1432 c 1
 378 1466 415 1489 459 1489 c 0
 464 1489 473 1486 478 1485 c 1
 478 1484 l 1
EndSplineSet
EndChar

StartChar: ellipsis
Encoding: 8230 8230 115
Width: 1476
Flags: MW
HStem: -32 152<220.5 266 721 766.5 1224 1269.5>
VStem: 113 150 498 150 885 150
LayerCount: 2
Fore
SplineSet
1151 41 m 0
 1151 82 1197 120 1251 120 c 0
 1301 120 1346 81 1346 43 c 0
 1346 -4 1299 -32 1240 -32 c 0
 1191 -32 1151 4 1151 41 c 0
648 41 m 0
 648 82 694 120 748 120 c 0
 798 120 843 81 843 43 c 0
 843 -4 796 -32 737 -32 c 0
 688 -32 648 4 648 41 c 0
147 41 m 0
 147 82 194 120 247 120 c 0
 298 120 342 81 342 43 c 0
 342 -4 295 -32 237 -32 c 0
 187 -32 147 4 147 41 c 0
EndSplineSet
EndChar

StartChar: questiondown
Encoding: 191 191 116
Width: 2088
Flags: MW
HStem: -190 126<744 829 744 1501.5> 1524 110<874.5 1077.5> 1832 106<1053 1054 1054 1159.5>
VStem: 101 119 514 71 514 79 514 137 918 195 1409 114
LayerCount: 2
Fore
SplineSet
1053 1938 m 2xf380
 1054 1938 l 2
 1918 1938 1980 1224 1980 807 c 0
 1980 470 1979 -190 1024 -190 c 0
 290 -190 257 366 131 765 c 1
 131 810 130 866 130 930 c 0
 130 1306 175 1938 1053 1938 c 2xf380
286 954 m 2
 286 953 l 2
 286 585 446 120 744 -64 c 1
 829 -64 l 1
 829 -84 l 1
 1746 -79 1832 396 1832 706 c 0
 1832 1023 1797 1354 1567 1655 c 1
 1567 1670 l 1
 1487 1727 1232 1832 1087 1832 c 0
 334 1832 286 1241 286 954 c 2
1599 198 m 1
 1604 198 l 1
 1604 174 1528 142 1477 142 c 0
 1206 142 1021 796 924 913 c 1
 807 913 l 1
 803 881 797 827 797 795 c 0
 797 599 846 405 846 209 c 0
 846 173 822 142 763 142 c 0
 716 142 668 168 668 207 c 0
 668 294 624 382 642 469 c 1
 642 1453 l 2
 642 1602 716 1634 949 1634 c 0
 1386 1634 1447 1432 1447 1269 c 0
 1447 1022 1174 1006 1149 968 c 1
 1156 887 1461 424 1518 313 c 1
 1518 270 1599 238 1599 198 c 1
965 1524 m 0
 784 1524 761 1474 761 1406 c 0xf980
 761 1363 771 1311 771 1262 c 0xf580
 771 1174 772 1085 802 999 c 1
 1057 1048 1193 1141 1193 1271 c 2
 1193 1280 l 2
 1193 1359 1190 1524 965 1524 c 0
EndSplineSet
EndChar

StartChar: grave
Encoding: 96 96 117
Width: 771
Flags: MW
HStem: 1525 21G<540.5 575.5> 1596 130<163 250.5>
VStem: 98 382
LayerCount: 2
Fore
SplineSet
163 1726 m 1
 266 1726 624 1648 624 1565 c 0
 624 1541 590 1525 561 1525 c 0
 520 1525 339 1583 288 1598 c 1
 274 1597 258 1596 243 1596 c 0
 187 1596 127 1607 127 1658 c 0
 127 1683 134 1712 163 1726 c 1
EndSplineSet
EndChar

StartChar: acute
Encoding: 180 180 118
Width: 700
Flags: MW
HStem: 1285 21G<194 216> 1553 20G<474 497.5>
VStem: 97 346
LayerCount: 2
Fore
SplineSet
576 1517 m 0
 576 1441 282 1339 216 1285 c 1
 172 1285 126 1300 126 1339 c 2
 126 1341 l 2
 126 1396 412 1528 474 1573 c 1
 521 1573 576 1560 576 1517 c 0
EndSplineSet
EndChar

StartChar: circumflex
Encoding: 710 710 119
Width: 662
Flags: MW
HStem: 927 21G<404 461 404 404> 1339 20G<325.5 399.5>
LayerCount: 2
Fore
SplineSet
352 1193 m 1
 308 1095 292 1012 205 928 c 1
 118 976 l 1
 127 1045 277 1359 374 1359 c 0
 425 1359 442 1326 442 1292 c 0
 442 1206 522 1127 522 1054 c 2
 522 1002 l 1
 525 995 546 984 546 977 c 0
 546 944 498 927 461 927 c 2
 404 927 l 1
 394 1007 377 1114 352 1193 c 1
EndSplineSet
EndChar

StartChar: tilde
Encoding: 732 732 120
Width: 882
Flags: MW
HStem: 996 21G<235 259> 997 227<262 630> 1203 20G<650.5 696>
VStem: 100 481
LayerCount: 2
Fore
SplineSet
130 1055 m 0xb0
 130 1143 200 1224 324 1224 c 1x50
 456 1172 l 1
 469 1145 511 1100 553 1100 c 1
 553 1101 l 1
 576 1117 621 1120 621 1146 c 0
 621 1159 607 1176 605 1191 c 1
 616 1209 637 1223 664 1223 c 0xb0
 728 1223 755 1171 755 1129 c 0
 755 1058 676 997 584 997 c 0x50
 473 997 394 1064 328 1123 c 1
 328 1125 l 1
 259 1094 l 1
 259 996 l 1
 211 996 130 1013 130 1055 c 0xb0
EndSplineSet
EndChar

StartChar: macron
Encoding: 175 175 121
Width: 860
Flags: MW
HStem: 700 21G<375.5 488> 704 96 784 20G<410 516>
VStem: 114 442
LayerCount: 2
Fore
SplineSet
723 749 m 0xb0
 723 712 676 704 637 704 c 0x50
 611 704 532 700 444 700 c 0xb0
 307 700 148 709 148 756 c 0
 148 797 227 800 265 800 c 0x50
 291 800 368 804 452 804 c 0
 580 804 723 795 723 749 c 0xb0
EndSplineSet
EndChar

StartChar: breve
Encoding: 728 728 122
Width: 709
Flags: MW
HStem: 867 275<183 430>
LayerCount: 2
Fore
SplineSet
576 1048 m 1
 576 1031 l 1
 528 945 501 867 359 867 c 0
 194 867 134 992 134 1100 c 2
 134 1110 l 1
 183 1142 l 1
 276 1142 252 1001 325 962 c 1
 381 962 l 2
 408 962 442 1025 442 1043 c 0
 442 1088 442 1133 518 1133 c 0
 554 1133 588 1110 588 1081 c 0
 588 1075 579 1055 576 1048 c 1
EndSplineSet
EndChar

StartChar: dotaccent
Encoding: 729 729 123
Width: 478
Flags: MW
HStem: 1390 152<216.5 262>
VStem: 110 150
LayerCount: 2
Fore
SplineSet
143 1463 m 0
 143 1504 190 1542 243 1542 c 0
 294 1542 338 1503 338 1465 c 0
 338 1418 291 1390 233 1390 c 0
 183 1390 143 1426 143 1463 c 0
EndSplineSet
EndChar

StartChar: dieresis
Encoding: 168 168 124
Width: 992
Flags: MW
HStem: 954 144<752.5 792>
VStem: 105 141 525 141
LayerCount: 2
Fore
SplineSet
214 954 m 0
 163 954 137 984 137 1021 c 0
 137 1061 175 1095 228 1095 c 0
 277 1095 320 1065 320 1026 c 0
 320 984 264 954 214 954 c 0
683 1023 m 0
 683 1062 727 1098 778 1098 c 0
 826 1098 866 1061 866 1025 c 0
 866 983 818 954 766 954 c 0
 719 954 683 988 683 1023 c 0
EndSplineSet
EndChar

StartChar: ring
Encoding: 730 730 125
Width: 552
Flags: MW
HStem: 1062 229<239 304.5>
VStem: 99 225
LayerCount: 2
Fore
SplineSet
277 1178 m 1
 246 1148 l 1
 295 1148 l 1
 295 1162 290 1195 277 1205 c 1
 277 1178 l 1
129 1169 m 0
 129 1230 198 1291 280 1291 c 0
 355 1291 422 1232 422 1176 c 0
 422 1105 349 1062 260 1062 c 0
 188 1062 129 1115 129 1169 c 0
EndSplineSet
EndChar

StartChar: cedilla
Encoding: 184 184 126
Width: 609
Flags: MW
HStem: -504 21G<239 328.5> -18 20G<180 326 326 326>
VStem: 95 291 253 133
LayerCount: 2
Fore
SplineSet
155 -157 m 1xd0
 177 -123 180 -84 180 -45 c 2
 180 2 l 1
 326 2 l 1
 316 -34 311 -54 309 -91 c 1
 454 -112 502 -216 502 -318 c 0
 502 -406 387 -504 270 -504 c 0
 208 -504 124 -481 124 -425 c 0xe0
 124 -400 153 -381 184 -381 c 0
 214 -381 245 -388 270 -401 c 1
 297 -399 329 -361 329 -341 c 0
 329 -306 310 -273 300 -240 c 1
 345 -275 l 1
 345 -266 l 2
 345 -247 342 -228 323 -214 c 1
 297 -217 277 -219 262 -219 c 0
 215 -219 195 -204 155 -157 c 1xd0
EndSplineSet
EndChar

StartChar: hungarumlaut
Encoding: 733 733 127
Width: 1967
Flags: MW
HStem: -6 21G<180 180> 357 20G<1538.5 1592>
LayerCount: 2
Fore
SplineSet
998 317 m 1
 997 318 l 1
 997 281 500 129 411 89 c 1
 331 81 255 11 180 -6 c 1
 157 16 l 1
 213 88 810 363 894 363 c 0
 949 363 998 343 998 317 c 1
736 2 m 1
 736 3 l 1
 703 6 686 18 685 40 c 1
 726 84 1506 377 1571 377 c 0
 1613 377 1652 346 1665 314 c 1
 1665 296 l 1
 1430 223 1081 101 736 2 c 1
EndSplineSet
EndChar

StartChar: ogonek
Encoding: 731 731 128
Width: 559
Flags: MW
HStem: -366 65<225 252> 0 20G<363 434 434 434>
VStem: 87 70 87 183
LayerCount: 2
Fore
SplineSet
434 20 m 1xd0
 342 -39 204 -145 204 -250 c 0xe0
 204 -266 211 -301 239 -301 c 0
 279 -301 318 -286 351 -268 c 1
 351 -302 l 2
 351 -342 273 -366 231 -366 c 0
 155 -366 113 -313 113 -259 c 0
 113 -141 239 -38 363 20 c 1
 434 20 l 1xd0
EndSplineSet
EndChar

StartChar: caron
Encoding: 711 711 129
Width: 660
Flags: MW
HStem: 929 404<325 461> 1337 20G<204 204>
LayerCount: 2
Fore
SplineSet
534 1279 m 1
 537 1243 l 2
 537 1242 520 1241 520 1240 c 0
 520 1214 440 1048 440 995 c 0
 440 961 424 929 373 929 c 0
 277 929 127 1242 118 1310 c 1
 204 1357 l 1
 273 1286 l 1
 274 1245 329 1135 349 1092 c 1
 375 1171 394 1252 404 1333 c 1
 461 1333 l 2
 463 1333 464 1333 465 1333 c 0
 478 1333 492 1334 505 1334 c 0
 526 1334 543 1330 543 1310 c 0
 543 1300 537 1288 534 1279 c 1
EndSplineSet
EndChar

StartChar: emdash
Encoding: 8212 8212 130
Width: 1820
Flags: MW
HStem: 680 99<272.5 311 311 1370 1370 1442.5 211 1458>
LayerCount: 2
Fore
SplineSet
1370 779 m 2
 1515 779 1681 773 1681 725 c 0
 1681 683 1571 680 1458 680 c 2
 311 680 l 2
 234 680 151 683 151 733 c 0
 151 761 174 779 211 779 c 2
 1370 779 l 2
EndSplineSet
EndChar

StartChar: AE
Encoding: 198 198 131
Width: 1496
Flags: MW
HStem: -43 21G<921 921> -12 94 621 95 1450 94 1534 20G<1236.5 1295>
VStem: 617 98 652 130 652 445
LayerCount: 2
Fore
SplineSet
802 706 m 1xf4
 806 855 816 1004 816 1153 c 0
 816 1196 816 1240 812 1283 c 1
 687 1087 567 889 478 688 c 1
 586 691 697 695 802 706 c 1xf4
93 48 m 1
 92 48 l 1
 92 185 555 1544 889 1544 c 0xf4
 993 1544 1202 1554 1271 1554 c 0xec
 1319 1554 1384 1546 1384 1498 c 2
 1384 1450 l 1
 1300 1450 1188 1447 929 1440 c 1xf4
 932 1349 947 1258 947 1166 c 0
 947 1016 940 866 940 716 c 1
 1165 720 1244 735 1309 735 c 1
 1376 687 l 1
 1296 625 1197 621 1137 621 c 2
 1016 621 l 1xf2
 1018 441 1027 262 1027 82 c 1
 1141 83 1239 103 1337 103 c 0
 1375 103 1426 87 1426 53 c 0xf1
 1426 -8 1213 -12 1109 -12 c 2
 1059 -12 l 2
 1010 -12 971 -38 921 -43 c 1
 847 2 l 1
 847 3 l 1xf2
 860 86 877 169 877 253 c 0
 877 380 860 506 860 633 c 1
 739 628 612 630 491 611 c 1
 269 226 l 1
 252 178 232 1 145 1 c 0
 115 1 93 27 93 48 c 1
EndSplineSet
EndChar

StartChar: ordfeminine
Encoding: 170 170 132
Width: 1179
Flags: MW
HStem: 375 21G<269 317> 817 59 1355 20G<669 688.5>
VStem: 703 77
LayerCount: 2
Fore
SplineSet
941 428 m 0
 966 428 1000 412 1000 393 c 0
 1000 379 347 375 287 375 c 0
 251 375 221 389 221 410 c 0
 221 423 906 428 941 428 c 0
413 892 m 1
 577 876 l 1
 701 871 773 866 794 862 c 1
 840 862 l 1
 624 1282 l 1
 542 1115 472 985 413 892 c 1
914 544 m 0
 914 559 914 575 914 591 c 0
 914 702 898 817 639 817 c 1
 521 815 l 1
 500 819 454 823 381 827 c 1
 266 652 l 1
 242 580 190 503 164 503 c 0
 155 503 148 514 148 539 c 1
 156 549 223 1088 526 1365 c 1
 587 1363 l 1
 624 1363 651 1367 669 1375 c 1
 708 1375 743 1362 751 1344 c 1
 992 665 l 1
 1006 605 1014 563 1014 539 c 0
 1014 515 1007 500 993 494 c 1
 929 494 914 502 914 544 c 0
EndSplineSet
EndChar

StartChar: Lslash
Encoding: 321 321 133
Width: 783
Flags: MW
HStem: -23 21G<236 272> -4 106<504.5 521 331 531> -1 21G<405.5 428.5> 1551 20G<181 218.5>
VStem: 71 160 102 129 130 84 130 315 130 383
LayerCount: 2
Fore
SplineSet
331 102 m 1x58
 521 102 l 1
 550 87 578 83 578 54 c 0
 578 25 551 -4 511 -4 c 0x51
 498 -4 482 1 470 3 c 1
 453 0 437 -1 420 -1 c 0
 391 -1 362 2 334 2 c 1
 316 -15 286 -23 258 -23 c 0
 214 -23 169 7 169 42 c 0xb1
 169 73 186 101 186 132 c 0
 186 598 132 1063 132 1529 c 0x54
 132 1556 165 1571 197 1571 c 0
 240 1571 278 1546 278 1512 c 0x52
 278 1266 305 1019 305 775 c 0
 305 753 304 732 300 710 c 1
 300 701 l 2
 300 523 331 345 331 167 c 2
 331 102 l 1x58
667 739 m 0x5080
 667 706 255 701 179 701 c 0
 136 701 92 725 92 760 c 0x58
 92 793 504 798 578 798 c 0x51
 621 798 667 775 667 739 c 0x5080
EndSplineSet
EndChar

StartChar: Oslash
Encoding: 216 216 134
Width: 1029
Flags: MW
HStem: -280 21G<224 224> -16 87<476.5 642 476.5 699.5> 1549 20G<276 443> 1778 20G<654 802 802 802>
VStem: 102 89 161 144 416 142 416 201 592 62 592 99
LayerCount: 2
Fore
SplineSet
309 503 m 1xfa80
 308 503 l 1
 385 814 515 1147 515 1458 c 0
 515 1478 467 1491 432 1492 c 1
 432 1491 l 1
 357 1491 l 1
 357 1480 l 1
 261 1386 248 996 248 850 c 0
 248 734 287 619 309 503 c 1xfa80
675 1297 m 1
 676 1296 l 1
 573 930 396 505 396 144 c 0xf680
 396 91 416 71 537 71 c 0
 747 71 770 318 770 463 c 2
 770 531 l 2
 770 787 766 1044 675 1297 c 1
851 1206 m 1
 850 1207 l 1xfa80
 858 967 898 723 898 459 c 0
 898 301 897 -16 502 -16 c 0
 438 -16 377 -10 322 4 c 1
 290 -91 246 -185 224 -280 c 1
 133 -224 l 1xfa40
 133 -103 209 8 209 129 c 1
 142 302 126 518 126 722 c 0
 126 730 126 738 126 746 c 0
 126 869 130 990 130 1107 c 0
 130 1225 130 1569 422 1569 c 0
 464 1569 510 1559 541 1547 c 1
 541 1551 l 1
 586 1632 612 1716 654 1798 c 1
 802 1798 l 1xf5
 797 1688 725 1582 725 1472 c 0
 725 1455 773 1430 789 1419 c 1
 789 1365 l 1
 790 1316 851 1271 851 1222 c 2
 851 1206 l 1
EndSplineSet
EndChar

StartChar: OE
Encoding: 338 338 135
Width: 1943
Flags: MW
HStem: -22 21G<1409 1496> -16 96 9 103<630 1033 584 1148.5> 758 98<1466.5 1512> 1449 76 1449 102<531 807.5 411 863>
VStem: 84 93 992 95 992 373 1043 75 1043 99
LayerCount: 2
Fore
SplineSet
1490 758 m 0x5b
 1443 758 1453 742 1453 709 c 1x5a40
 1469 499 1483 290 1484 80 c 1
 1542 83 1600 87 1657 87 c 1
 1657 85 l 1
 1700 85 l 2
 1770 85 1877 80 1877 25 c 2
 1877 -16 l 1x5a20
 1737 -16 1566 -22 1426 -22 c 0
 1392 -22 1325 -6 1325 26 c 2
 1325 33 l 1
 1261 22 1188 9 1109 9 c 0
 151 9 109 438 109 809 c 0
 109 1032 112 1551 710 1551 c 0xb7
 905 1551 1122 1546 1291 1494 c 1
 1291 1525 l 1
 1713 1525 l 1
 1742 1513 1774 1498 1774 1470 c 0x5a80
 1774 1439 1730 1426 1696 1426 c 0
 1601 1426 1508 1432 1413 1433 c 1
 1413 1294 1449 1157 1449 1018 c 0
 1449 983 1444 948 1444 913 c 0
 1444 894 1445 875 1451 856 c 1
 1531 856 l 2
 1535 856 1539 854 1543 854 c 0
 1565 854 1585 855 1601 855 c 0
 1634 855 1660 850 1692 818 c 1
 1692 780 1674 754 1620 754 c 0
 1575 754 1534 758 1490 758 c 0x5b
230 751 m 1
 233 751 l 1
 519 490 170 112 998 112 c 0
 1068 112 1356 122 1356 168 c 0xba40
 1356 569 1297 970 1289 1371 c 1x5b
 1166 1436 950 1449 776 1449 c 0
 286 1449 230 1127 230 957 c 0
 230 911 231 865 231 820 c 0
 231 797 231 774 230 751 c 1
EndSplineSet
EndChar

StartChar: ordmasculine
Encoding: 186 186 136
Width: 1270
Flags: MW
HStem: 431 167 538 60<526.5 774 526.5 829.5> 1313 20G<380.5 819.5>
VStem: 149 65 793 64
LayerCount: 2
Fore
SplineSet
946 484 m 2xb8
 947 484 l 2
 989 484 1038 468 1038 449 c 0
 1038 435 332 431 274 431 c 0
 248 431 218 445 218 466 c 0
 218 479 891 484 946 484 c 2xb8
1029 842 m 1
 1031 841 l 1
 1031 1111 947 1294 592 1294 c 0
 409 1294 278 1181 278 954 c 0
 278 717 407 598 646 598 c 0
 902 598 1029 679 1029 842 c 1
569 1333 m 0
 1070 1333 1114 1099 1114 825 c 0
 1114 718 992 538 667 538 c 0x78
 312 538 193 654 193 887 c 0
 193 1006 192 1333 569 1333 c 0
EndSplineSet
EndChar

StartChar: ae
Encoding: 230 230 137
Width: 1393
Flags: MW
HStem: -14 96 -13 21G<817 826> -8 21G<166 181> 592 84 1240 114<881 1110>
VStem: 583 94 583 432
LayerCount: 2
Fore
SplineSet
817 -13 m 1x5c
 816 -14 l 1x9c
 795 -14 754 -2 754 18 c 0
 754 95 782 174 782 252 c 0
 782 365 765 479 765 592 c 1
 640 587 513 589 401 570 c 1
 181 -8 l 1
 151 -8 94 26 94 47 c 0
 94 185 536 1321 842 1344 c 1
 918 1351 1016 1354 1086 1354 c 0
 1134 1354 1199 1345 1199 1298 c 2
 1199 1250 l 1
 1116 1240 1004 1240 881 1240 c 1x3c
 883 1149 899 1058 899 966 c 0
 899 869 891 773 891 676 c 1
 998 678 1066 685 1135 685 c 1
 1190 647 l 1
 1190 600 1105 597 1052 597 c 0
 1044 597 1038 597 1031 597 c 2
 890 597 l 1
 891 425 897 254 897 82 c 1
 1035 83 1133 103 1232 103 c 0
 1269 103 1320 87 1320 53 c 0
 1320 -7 1102 -14 936 -14 c 0x9a
 875 -14 835 -13 817 -13 c 1x5c
758 665 m 1x5c
 762 761 773 856 773 952 c 0
 773 995 773 1039 769 1082 c 1
 645 939 518 796 435 647 c 1
 543 649 653 654 758 665 c 1x5c
EndSplineSet
EndChar

StartChar: dotlessi
Encoding: 305 305 138
Width: 724
Flags: MW
HStem: 0 21G<353.5 392> 16 112<439 580.5> 1254 102<135 227 205 218 218 227 227 263.5 205 269>
VStem: 57 381 220 113 220 277
LayerCount: 2
Fore
SplineSet
433 246 m 2x68
 433 185 l 2x68
 433 166 425 147 439 131 c 1
 439 128 l 1
 459 128 507 130 537 130 c 0
 590 130 646 122 646 79 c 0
 646 43 603 16 558 16 c 0x64
 528 16 499 23 469 23 c 0
 448 23 416 0 368 0 c 0
 339 0 308 4 286 20 c 1
 276 19 264 18 253 18 c 0
 213 18 174 26 155 55 c 1
 155 78 169 100 196 110 c 1
 196 118 l 1
 281 118 l 1
 282 127 286 136 286 145 c 0xa8
 286 290 268 435 268 580 c 0
 268 732 282 884 282 1036 c 0
 282 1109 278 1182 269 1254 c 1
 218 1254 l 1
 199 1255 178 1254 157 1254 c 0
 113 1254 74 1262 74 1309 c 0
 74 1353 155 1356 205 1356 c 0
 213 1356 221 1356 227 1356 c 0
 300 1356 569 1355 569 1273 c 0x70
 569 1263 559 1244 554 1235 c 1
 417 1235 l 1
 425 1179 428 1129 428 1072 c 0
 428 942 413 811 413 681 c 0
 413 536 433 391 433 246 c 2x68
EndSplineSet
EndChar

StartChar: lslash
Encoding: 322 322 139
Width: 739
Flags: MW
HStem: -34 21G -29 21G<203 240.5> -10 87<342 356.5> 660 137 1335 20G<213.5 277>
VStem: 134 103 134 117 134 369
LayerCount: 2
Fore
SplineSet
78 715 m 2x5c
 78 716 l 2
 78 739 174 845 174 954 c 2
 174 969 l 1
 166 1033 166 1097 166 1161 c 0
 166 1207 168 1355 259 1355 c 0
 295 1355 326 1332 326 1304 c 0xba
 326 1252 308 1200 308 1148 c 0xbc
 308 1027 312 906 315 785 c 1
 421 795 530 797 566 797 c 0
 608 797 654 774 654 738 c 0
 654 688 463 668 317 660 c 1
 317 658 317 656 317 654 c 0
 303 628 302 597 302 568 c 0
 302 560 302 552 302 544 c 0
 302 434 291 332 291 218 c 0
 291 153 303 77 381 77 c 0
 406 77 449 80 491 80 c 0
 562 80 634 71 634 20 c 0
 634 -12 589 -30 554 -34 c 1
 477 -15 397 -10 316 -10 c 1xb9
 289 -22 256 -29 225 -29 c 0
 181 -29 150 6 150 38 c 0
 150 244 161 450 169 656 c 1
 168 656 166 656 165 656 c 0
 122 656 78 680 78 715 c 2x5c
EndSplineSet
EndChar

StartChar: oslash
Encoding: 248 248 140
Width: 955
Flags: MW
HStem: -245 319<158.5 576> -11 85<402.5 576 402.5 621> 1574 20G<603 738 738 738>
VStem: 90 87 145 490 361 160 540 62
LayerCount: 2
Fore
SplineSet
395 1280 m 1xb6
 326 1308 l 1
 326 1298 l 1
 240 1215 230 906 230 780 c 0
 230 684 256 588 278 492 c 1
 342 753 469 1017 469 1280 c 1
 395 1280 l 1xb6
620 1125 m 1
 619 1126 l 1
 528 815 367 441 311 136 c 1
 311 88 342 74 463 74 c 0
 689 74 702 315 702 424 c 2
 702 459 l 2
 702 681 699 905 620 1125 c 1
188 123 m 0xa8
 188 319 117 565 117 779 c 2
 117 996 l 2
 117 1107 117 1385 390 1385 c 0
 429 1385 468 1376 503 1367 c 1
 503 1371 l 1
 532 1445 564 1521 603 1594 c 1
 738 1594 l 1
 738 1494 688 1398 677 1298 c 1
 677 1238 l 1
 732 1186 783 1127 783 1065 c 2
 783 1049 l 2xb6
 783 849 826 645 826 423 c 0
 826 277 822 -11 420 -11 c 0x68
 359 -11 302 -6 272 5 c 1
 265 -38 251 -245 177 -245 c 0
 140 -245 122 -217 122 -193 c 2
 122 -191 l 2
 122 -86 188 16 188 123 c 0xa8
EndSplineSet
EndChar

StartChar: oe
Encoding: 339 339 141
Width: 1890
Flags: MW
HStem: -39 85<424.5 733.5 424.5 817.5> -39 115 -28 21G<1413.5 1436 1436 1687> 713 108 1268 109<356 515 356 356>
VStem: 86 126 677 145 714 108 1042 117 1042 289 1042 332
LayerCount: 2
Fore
SplineSet
1468 1352 m 1x3e80
 1468 1351 l 1
 1522 1351 1786 1322 1786 1260 c 0x9e20
 1786 1228 1743 1206 1708 1196 c 1
 1643 1213 1575 1229 1507 1235 c 1
 1509 1206 1510 1176 1510 1147 c 0
 1510 1049 1499 951 1499 853 c 0
 1499 843 1504 831 1507 821 c 1x9e80
 1529 821 1565 824 1601 824 c 0
 1665 824 1730 815 1730 768 c 0
 1730 731 1699 692 1646 692 c 0
 1620 692 1591 698 1570 710 c 1
 1503 710 l 1
 1508 658 1510 614 1510 562 c 0
 1510 439 1499 314 1499 191 c 0
 1499 138 1509 76 1595 76 c 0x5e40
 1618 76 1660 81 1700 81 c 0
 1752 81 1802 72 1802 31 c 0
 1802 -14 1735 -28 1687 -28 c 2
 1436 -28 l 2
 1391 -28 1354 0 1354 35 c 2
 1354 89 l 1
 1365 109 1366 129 1366 150 c 0
 1366 158 1366 166 1366 174 c 0
 1366 261 1354 349 1354 436 c 0
 1354 635 1371 835 1371 1034 c 0
 1371 1092 1358 1149 1358 1207 c 0
 1358 1266 1370 1352 1468 1352 c 1x3e80
346 1377 m 0
 945 1377 1068 1106 1068 797 c 2
 1068 550 l 2
 1068 367 1050 -39 585 -39 c 0
 152 -39 112 409 112 625 c 0
 112 657 114 676 114 703 c 0
 114 710 113 713 110 713 c 1
 110 750 l 2
 110 859 109 1377 346 1377 c 0
881 1040 m 1
 880 1076 l 1x9e80
 873 1170 730 1268 515 1268 c 2
 356 1268 l 1
 295 1149 275 1027 275 905 c 0
 275 842 256 779 256 716 c 0
 256 612 281 46 568 46 c 0
 899 46 928 453 928 563 c 0x9d80
 928 722 884 881 881 1040 c 1
EndSplineSet
EndChar

StartChar: germandbls
Encoding: 223 223 142
Width: 1002
Flags: MW
HStem: -47 21G<204.5 264.5> 1473 112<376.5 526.5>
VStem: 115 95 115 126 303 329 354 337 496 136 592 40 592 99
LayerCount: 2
Fore
SplineSet
595 49 m 1xe080
 597 49 l 1
 588 48 572 45 563 45 c 0
 524 45 460 57 460 81 c 0xe4
 460 134 770 240 770 409 c 0xe1
 770 789 394 776 394 854 c 0xe8
 394 898 645 1106 645 1274 c 0
 645 1321 599 1473 454 1473 c 0
 299 1473 273 1350 273 1294 c 0xe2
 273 878 313 463 313 46 c 0
 313 -2 302 -47 227 -47 c 0
 182 -47 149 -37 149 4 c 0
 149 182 162 360 162 538 c 0
 162 775 143 1012 143 1249 c 0
 143 1375 185 1585 454 1585 c 0
 779 1585 822 1367 822 1249 c 0xd2
 822 1109 741 977 589 859 c 1
 858 744 898 635 898 444 c 0
 898 294 818 143 595 49 c 1xe080
EndSplineSet
EndChar

StartChar: onesuperior
Encoding: 185 185 143
Width: 789
Flags: MW
HStem: -9 21G<311.5 353> -8 104<398.5 511> 1479 96<205.5 313>
VStem: 59 253 232 80 294 54 294 99 294 260
LayerCount: 2
Fore
SplineSet
383 120 m 0xa1
 383 519 302 923 302 1308 c 0x68
 302 1329 306 1356 306 1383 c 0
 306 1432 292 1479 214 1479 c 0
 197 1479 175 1477 152 1477 c 0
 113 1477 77 1483 77 1521 c 0
 77 1574 236 1575 292 1575 c 0
 334 1575 385 1574 409 1541 c 1
 407 1534 406 1527 406 1520 c 0x70
 406 1499 412 1477 412 1455 c 0
 412 1329 453 1205 453 1079 c 0x64
 453 756 511 433 511 109 c 2
 511 96 l 1x62
 544 98 576 102 609 102 c 1
 609 103 l 1
 656 103 721 99 721 52 c 0
 721 -4 510 -8 418 -8 c 0x61
 379 -8 368 -9 338 -9 c 0
 285 -9 230 -3 230 47 c 2
 230 91 l 1
 247 90 299 86 324 86 c 0
 355 86 383 93 383 120 c 0xa1
EndSplineSet
EndChar

StartChar: logicalnot
Encoding: 172 172 144
Width: 1687
Flags: MW
HStem: 475 360 733 102 828 20G
VStem: 1076 111
LayerCount: 2
Fore
SplineSet
1400 659 m 1x90
 1399 659 l 1
 1399 725 1375 733 1230 733 c 0
 835 733 448 711 205 711 c 0
 169 711 139 735 139 763 c 0
 139 822 283 835 422 835 c 0x50
 567 835 727 828 786 828 c 0
 1024 828 1257 848 1456 848 c 0x30
 1498 848 1543 824 1543 790 c 0
 1543 766 1534 741 1518 720 c 1
 1518 658 1525 596 1550 537 c 1
 1544 509 1521 475 1479 475 c 0
 1409 475 1397 536 1397 592 c 0
 1397 618 1400 643 1400 659 c 1x90
EndSplineSet
EndChar

StartChar: mu
Encoding: 181 181 145
AltUni2: 0003bc.ffffffff.0
Width: 1140
Flags: MW
HStem: -248 279<130 622> -31 62<435.5 485> 1369 20G<848 919>
VStem: 68 85 68 121 72 81 596 144 622 118
LayerCount: 2
Fore
SplineSet
935 878 m 1xb1
 877 672 980 -27 485 -31 c 0
 386 -31 307 -15 246 11 c 1x6a
 250 -48 252 -107 252 -166 c 0
 252 -211 224 -248 148 -248 c 0
 112 -248 88 -230 88 -202 c 2
 88 99 l 2xb2
 88 215 79 356 79 475 c 2
 79 484 l 2
 79 697 94 824 94 1013 c 0xa6
 94 1114 87 1213 61 1306 c 1
 61 1355 l 1
 152 1355 199 1289 199 1232 c 2
 199 241 l 2
 199 152 289 31 526 31 c 0
 718 31 775 480 775 559 c 0xb2
 775 808 809 1057 809 1307 c 0
 809 1319 807 1330 807 1341 c 0
 807 1369 816 1389 880 1389 c 0
 958 1389 962 1336 962 1290 c 0
 962 1221 944 1151 944 1084 c 0
 944 1027 932 970 932 913 c 0
 932 901 935 890 935 878 c 1xb1
EndSplineSet
EndChar

StartChar: trademark
Encoding: 8482 8482 146
Width: 1734
Flags: MW
HStem: 620 21G<769.5 843.5> 1484 111<488.5 586 469 599> 1618 20G<1453 1540.5>
VStem: 259 95 563 117 563 183 1089 137
LayerCount: 2
Fore
SplineSet
1178 1129 m 1xf6
 1182 1128 l 1
 1252 1221 1384 1638 1522 1638 c 0
 1559 1638 1594 1616 1594 1586 c 0
 1594 1441 1566 1297 1566 1152 c 0
 1566 1032 1577 912 1583 792 c 1
 1584 780 l 1
 1584 722 1580 624 1485 624 c 0
 1447 624 1416 641 1416 672 c 0
 1416 751 1431 828 1431 907 c 0
 1431 984 1423 1061 1420 1138 c 1
 1397 1101 1359 1076 1359 1035 c 2
 1359 1026 l 1
 1350 980 1293 844 1161 844 c 0
 974 844 921 1173 885 1253 c 1xfa
 879 1167 879 1081 879 995 c 0
 879 927 895 860 895 792 c 0
 895 741 892 620 795 620 c 0
 744 620 732 657 732 689 c 0
 732 763 749 835 749 909 c 0
 749 1001 747 1094 747 1188 c 0
 747 1302 751 1416 766 1528 c 1
 753 1485 662 1484 586 1484 c 2
 469 1484 l 1
 462 1445 461 1407 461 1368 c 0
 461 1205 483 1043 483 880 c 0
 483 826 482 772 475 718 c 1
 479 711 489 697 489 690 c 0
 489 653 432 636 393 628 c 1
 323 628 l 1
 336 659 337 711 337 752 c 0
 337 765 337 777 337 787 c 0
 337 924 324 1061 324 1198 c 0
 324 1266 332 1332 332 1400 c 0
 332 1428 331 1456 327 1484 c 1
 303 1482 253 1475 205 1475 c 0
 150 1475 98 1484 98 1520 c 2
 98 1574 l 1
 235 1583 401 1595 576 1595 c 0
 622 1595 667 1591 713 1591 c 1
 770 1552 l 1
 770 1547 l 2
 770 1574 833 1616 868 1616 c 0
 908 1616 947 1594 979 1575 c 1
 973 1565 970 1554 970 1542 c 0
 970 1433 1152 1229 1178 1129 c 1xf6
EndSplineSet
EndChar

StartChar: Eth
Encoding: 208 208 147
Width: 1394
Flags: MW
HStem: 45 21G<447 447> 1125 127 1153 121<856 926 794.5 953> 2200 20G<264.5 372>
VStem: 50 273 163 117 207 73 261 117 858 118
LayerCount: 2
Fore
SplineSet
447 45 m 1xd480
 446 47 l 1
 402 57 361 74 339 107 c 1xd180
 339 450 339 797 272 1137 c 1
 226 1132 179 1125 133 1125 c 0
 90 1125 65 1154 65 1184 c 0xd880
 65 1236 164 1244 218 1244 c 0
 222 1244 226 1244 229 1244 c 2
 269 1244 l 1xd280
 267 1548 212 1850 212 2154 c 0
 212 2182 244 2220 285 2220 c 0
 459 2220 1117 1966 1117 1831 c 0
 1117 1486 1269 1154 1269 809 c 0
 1269 507 1018 186 447 45 c 1xd480
420 1141 m 1xb880
 420 1140 l 1xd880
 430 827 485 517 491 204 c 1xd180
 1034 419 1115 677 1115 983 c 0
 1115 1314 1096 1955 364 2097 c 1
 364 1829 l 2
 364 1635 369 1440 419 1252 c 1xd480
 540 1256 709 1274 880 1274 c 0
 972 1274 1023 1230 1027 1194 c 1
 953 1153 l 1
 759 1153 564 1152 420 1141 c 1xb880
EndSplineSet
EndChar

StartChar: onehalf
Encoding: 189 189 148
Width: 2904
Flags: MW
HStem: -31 21G<1092 1238> -15 21G<2184.5 2332.5> -9 21G<311 353> -8 104<397.5 509> 1327 248 1479 96<203.5 311> 1533 20G<1691 1839> 1566 20G<2426.5 2513> 1567 20G<2513 2655>
VStem: 58 253 231 80 293 54 293 99 293 362 1734 419 2054 99
LayerCount: 2
Fore
SplineSet
2064 55 m 1x42c2
 2510 321 2670 866 2670 1236 c 0
 2670 1305 2665 1492 2542 1500 c 1
 2464 1470 2503 1327 2359 1327 c 0x9841
 2280 1327 2254 1357 2254 1390 c 0
 2254 1465 2340 1586 2513 1586 c 1x9342
 2513 1587 l 1
 2797 1587 2799 1357 2799 1201 c 0
 2799 775 2527 409 2337 86 c 1
 2490 99 2591 107 2692 107 c 1
 2773 55 l 1
 2726 4 l 1
 2591 4 2442 -15 2223 -15 c 0
 2146 -15 2064 7 2064 47 c 2
 2064 55 l 1x42c2
994 30 m 0
 994 126 1573 1553 1809 1553 c 0xa2c2
 1869 1553 1924 1533 1924 1503 c 0
 1924 1326 1384 -31 1092 -31 c 1
 1047 -18 994 5 994 30 c 0
382 120 m 1
 381 120 l 1x9812
 381 519 300 923 300 1308 c 0x9822
 300 1329 304 1356 304 1383 c 0
 304 1432 290 1479 212 1479 c 0
 195 1479 173 1477 150 1477 c 0
 111 1477 75 1483 75 1521 c 0
 75 1574 234 1575 290 1575 c 0
 332 1575 383 1574 407 1541 c 1
 405 1534 404 1527 404 1520 c 0x9442
 404 1499 410 1477 410 1455 c 0
 410 1329 451 1205 451 1079 c 0x9812
 451 756 509 433 509 109 c 2
 509 96 l 1x980a
 563 98 616 102 669 102 c 1
 669 103 l 1
 746 103 851 99 851 52 c 0
 851 -4 509 -8 417 -8 c 0x9806
 378 -8 368 -9 338 -9 c 0
 284 -9 230 -3 230 47 c 2
 230 91 l 1
 247 90 299 86 323 86 c 0
 355 86 382 93 382 120 c 1
EndSplineSet
EndChar

StartChar: plusminus
Encoding: 177 177 149
Width: 978
Flags: MW
HStem: 135 21G<202.5 325> 145 101<699.5 740 740 767.5 185 812.5> 333 368<316 510> 591 110 591 377<435 814>
VStem: 96 328 310 114 310 358
LayerCount: 2
Fore
SplineSet
125 200 m 0xa4
 125 228 148 246 185 246 c 2
 740 246 l 2
 795 246 869 246 869 192 c 0
 869 158 832 145 793 145 c 0x61
 606 145 418 135 232 135 c 0
 173 135 125 149 125 200 c 0xa4
551 909 m 2
 551 885 l 2
 551 883 551 881 551 878 c 0x62
 551 864 550 839 550 812 c 0
 550 760 554 701 576 701 c 0
 609 701 671 709 731 709 c 0
 802 709 869 697 869 647 c 0
 869 615 835 591 793 591 c 0x51
 740 591 689 602 636 602 c 0
 592 602 551 593 551 553 c 0
 551 498 576 444 576 389 c 0
 576 353 531 333 489 333 c 0
 451 333 403 352 403 385 c 0x62
 403 451 411 518 411 584 c 2
 411 599 l 1
 375 599 290 590 238 590 c 0
 177 590 125 602 125 655 c 0x64
 125 682 147 708 185 708 c 0
 237 708 290 701 342 701 c 0
 363 701 382 702 403 705 c 1x62
 401 755 388 805 388 855 c 0
 388 900 397 968 473 968 c 0
 515 968 551 942 551 909 c 2
EndSplineSet
EndChar

StartChar: Thorn
Encoding: 222 222 150
Width: 863
Flags: MW
HStem: -11 21G<208.5 266.5> 1528 20G<176.5 241>
VStem: 107 151 476 105
LayerCount: 2
Fore
SplineSet
618 948 m 1
 619 948 l 1
 619 1117 568 1147 295 1249 c 1
 295 1033 291 817 291 601 c 1
 510 699 618 804 618 948 c 1
139 1297 m 1
 138 1487 l 2
 138 1522 151 1548 202 1548 c 0
 280 1548 293 1483 293 1424 c 0xf0
 293 1396 290 1370 290 1353 c 1
 650 1327 756 1128 756 965 c 0
 756 773 649 595 302 502 c 1
 304 359 336 217 336 74 c 0
 336 29 301 -11 232 -11 c 0
 185 -11 168 29 168 58 c 0
 168 471 139 884 139 1297 c 1
EndSplineSet
EndChar

StartChar: onequarter
Encoding: 188 188 151
Width: 2729
Flags: MW
HStem: -37 21G<2574 2628.5> -28 21G<1092 1238> -6 21G<311 353> -5 104<397.5 509> 1482 96<203.5 311> 1536 20G<1691 1839>
VStem: 58 253 231 80 293 54 293 99 293 362 1620 81 1651 118 1798 105 1829 105 1942 107
LayerCount: 2
Fore
SplineSet
2377 587 m 1x9a0b
 2377 590 l 2x6613
 2377 783 2337 986 2337 1162 c 0
 2337 1193 2385 1208 2419 1208 c 1
 2474 1172 l 1
 2474 1139 2474 1106 2474 1073 c 0x9a15
 2474 914 2476 754 2507 597 c 1
 2527 598 2555 602 2584 602 c 0
 2624 602 2663 594 2663 558 c 0
 2663 514 2623 508 2576 508 c 0
 2557 508 2514 506 2514 490 c 0
 2514 437 2640 191 2659 156 c 1
 2657 144 2654 131 2654 118 c 0
 2654 104 2657 90 2667 77 c 1
 2667 40 l 2
 2667 10 2653 -37 2604 -37 c 0
 2544 -37 2524 24 2524 60 c 2
 2524 67 l 1
 2533 91 2533 116 2533 141 c 0
 2533 208 2514 273 2514 340 c 0
 2514 370 2516 399 2398 429 c 1
 2398 450 2397 471 2393 492 c 1
 2345 490 2271 481 2211 481 c 1
 2211 480 l 1
 2171 480 2137 494 2106 513 c 1
 2106 540 2108 566 2117 592 c 1
 2108 629 2106 667 2106 707 c 0x9a13
 2106 845 2146 992 2146 1125 c 2
 2146 1504 l 2
 2146 1526 2149 1544 2197 1544 c 0
 2234 1544 2299 1525 2299 1493 c 0
 2299 1441 2280 1387 2280 1334 c 0
 2280 1309 2284 1284 2297 1260 c 1
 2297 1253 l 1
 2301 1239 2302 1224 2302 1209 c 0
 2302 1187 2299 1165 2299 1143 c 0
 2299 969 2238 796 2238 622 c 0
 2238 607 2241 591 2245 576 c 1
 2298 577 2345 581 2377 587 c 1x9a0b
994 33 m 0
 994 129 1573 1556 1809 1556 c 0
 1869 1556 1924 1536 1924 1506 c 0
 1924 1329 1384 -28 1092 -28 c 1
 1047 -15 994 8 994 33 c 0
382 123 m 1
 381 123 l 1x9895
 381 522 300 926 300 1311 c 0x9915
 300 1332 304 1359 304 1386 c 0
 304 1435 290 1482 212 1482 c 0
 195 1482 173 1480 150 1480 c 0
 111 1480 75 1486 75 1524 c 0
 75 1577 234 1578 290 1578 c 0
 332 1578 383 1577 407 1544 c 1
 405 1537 404 1530 404 1523 c 0x9a15
 404 1502 410 1480 410 1458 c 0
 410 1332 451 1208 451 1082 c 0x9895
 451 759 509 436 509 112 c 2
 509 99 l 1x9855
 563 101 616 105 669 105 c 1
 669 106 l 1
 746 106 851 102 851 55 c 0
 851 -1 509 -5 417 -5 c 0x9835
 378 -5 368 -6 338 -6 c 0
 284 -6 230 0 230 50 c 2
 230 94 l 1
 247 93 299 89 323 89 c 0
 355 89 382 96 382 123 c 1
EndSplineSet
EndChar

StartChar: divide
Encoding: 247 247 152
Width: 937
Flags: MW
HStem: 369 141<433 480 427.5 482.5> 600 101<660.5 701 701 728.5 146 773.5> 789 141<431.5 479.5>
VStem: 276 144
LayerCount: 2
Fore
SplineSet
546 428 m 0
 546 389 506 369 459 369 c 0
 407 369 363 398 363 439 c 0
 363 477 402 510 453 510 c 0
 507 510 546 467 546 428 c 0
457 789 m 0
 406 789 359 823 359 862 c 0
 359 899 407 930 454 930 c 0
 509 930 546 893 546 853 c 0
 546 817 502 789 457 789 c 0
86 655 m 0
 86 683 109 701 146 701 c 2
 701 701 l 2
 756 701 830 701 830 647 c 0
 830 613 793 600 754 600 c 0
 567 600 379 590 193 590 c 0
 134 590 86 604 86 655 c 0
EndSplineSet
EndChar

StartChar: brokenbar
Encoding: 166 166 153
Width: 442
Flags: MW
HStem: -80 21G<214.5 258> 1564 20G<209 265>
VStem: 127 101
LayerCount: 2
Fore
SplineSet
158 1020 m 0
 158 1183 148 1348 148 1510 c 0
 148 1556 178 1584 240 1584 c 0
 290 1584 296 1481 296 1393 c 2
 296 877 l 2
 296 849 261 826 225 826 c 0
 157 826 158 988 158 1020 c 0
217 695 m 0
 277 695 296 662 296 621 c 2
 296 -16 l 2
 296 -50 283 -80 233 -80 c 0
 196 -80 165 -57 165 -29 c 2
 165 644 l 2
 165 668 183 695 217 695 c 0
EndSplineSet
EndChar

StartChar: degree
Encoding: 176 176 154
Width: 1255
Flags: MW
HStem: 438 77<489.5 776.5 489.5 818.5> 901 69<447 584 584 585>
VStem: 106 76 801 69
LayerCount: 2
Fore
SplineSet
139 731 m 1
 138 731 l 1
 138 867 269 970 566 970 c 0
 1057 970 1131 821 1131 733 c 0
 1131 649 1069 438 568 438 c 0
 194 438 139 617 139 731 c 1
585 901 m 2
 584 901 l 2
 310 901 237 773 237 665 c 0
 237 607 395 515 584 515 c 0
 969 515 1042 668 1042 729 c 0
 1042 792 952 901 585 901 c 2
EndSplineSet
EndChar

StartChar: thorn
Encoding: 254 254 155
Width: 857
Flags: MW
HStem: -11 21G<208 264.5> 1528 20G<177.5 243>
VStem: 107 148 473 106
LayerCount: 2
Fore
SplineSet
615 828 m 0
 615 998 564 1027 295 1129 c 1
 295 943 292 757 292 571 c 1
 487 635 615 710 615 828 c 0
139 1178 m 2
 139 1487 l 2
 139 1522 152 1548 203 1548 c 0
 283 1548 300 1463 300 1380 c 0xf0
 300 1318 291 1258 291 1233 c 1
 647 1207 753 1008 753 845 c 0
 753 670 625 540 299 472 c 1
 300 339 331 207 331 74 c 0
 331 29 298 -11 231 -11 c 0
 185 -11 168 28 168 58 c 0
 168 432 139 805 139 1178 c 2
EndSplineSet
EndChar

StartChar: threequarters
Encoding: 190 190 156
Width: 2592
Flags: MW
HStem: -37 21G<2436 2490.5> -28 21G<950 1095.5> -17 84 1363 213<130 442.5> 1480 96<276.5 386.5> 1536 20G<1549.5 1698>
VStem: 238 222 358 102 436 103 1511 81 1542 118 1689 105 1720 105 1836 104
LayerCount: 2
Fore
SplineSet
2236 587 m 1x322c
 2236 590 l 2x464c
 2236 783 2196 986 2196 1162 c 0
 2196 1193 2244 1208 2278 1208 c 1
 2332 1172 l 1
 2332 1139 2332 1106 2332 1073 c 0x3254
 2332 914 2335 754 2366 597 c 1
 2385 598 2414 602 2443 602 c 0
 2483 602 2522 594 2522 558 c 0
 2522 514 2482 508 2435 508 c 0
 2415 508 2372 506 2372 490 c 0
 2372 437 2502 191 2522 156 c 1
 2519 144 2517 131 2517 118 c 0
 2517 104 2519 90 2530 77 c 1
 2530 40 l 2
 2530 10 2515 -37 2466 -37 c 0x924c
 2406 -37 2387 24 2387 60 c 2
 2387 67 l 1
 2396 91 2396 116 2396 141 c 0
 2396 208 2375 273 2375 340 c 0
 2375 370 2376 399 2257 429 c 1
 2257 450 2255 471 2252 492 c 1
 2203 490 2129 481 2070 481 c 1
 2070 480 l 1
 2029 480 1995 494 1964 513 c 1
 1964 540 1967 566 1976 592 c 1
 1967 629 1964 667 1964 707 c 0x3254
 1964 845 2005 992 2005 1125 c 2
 2005 1504 l 2
 2005 1526 2007 1544 2055 1544 c 0
 2093 1544 2158 1525 2158 1493 c 0
 2158 1441 2138 1387 2138 1334 c 0
 2138 1309 2142 1284 2155 1260 c 1
 2155 1253 l 1
 2159 1239 2161 1224 2161 1209 c 0
 2161 1187 2158 1165 2158 1143 c 0
 2158 969 2097 796 2097 622 c 0
 2097 607 2099 591 2103 576 c 1
 2157 577 2203 581 2236 587 c 1x322c
853 33 m 0
 853 129 1431 1556 1668 1556 c 0
 1728 1556 1785 1536 1785 1506 c 0
 1785 1330 1241 -28 950 -28 c 1
 906 -15 853 8 853 33 c 0
331 1576 m 0x3254
 554 1576 598 1296 598 1127 c 0x3254
 598 1043 534 996 478 930 c 1
 658 847 701 512 701 364 c 0
 701 216 684 -17 425 -17 c 0
 351 -17 229 8 229 79 c 2
 229 92 l 1
 273 92 l 1
 328 86 361 91 404 67 c 1
 554 72 567 210 567 297 c 0x30d4
 567 485 564 697 404 852 c 1
 399 851 394 851 387 851 c 0
 361 851 333 860 309 868 c 1
 309 892 l 2x3254
 309 953 465 1019 465 1153 c 0
 465 1219 447 1480 326 1480 c 0x2954
 227 1480 259 1363 151 1363 c 0
 109 1363 81 1390 74 1419 c 1
 118 1504 205 1576 331 1576 c 0x3254
EndSplineSet
EndChar

StartChar: twosuperior
Encoding: 178 178 157
Width: 761
Flags: MW
HStem: -15 21G<152.5 243.5> 1327 259<307 309.5> 1567 20G<367 509>
VStem: 150 352 404 98
LayerCount: 2
Fore
SplineSet
78 55 m 1xb0
 78 54 l 1
 361 317 525 864 525 1236 c 0xc8
 525 1305 520 1492 398 1500 c 1
 325 1470 359 1327 260 1327 c 0
 211 1327 195 1357 195 1390 c 0
 195 1465 247 1586 367 1586 c 1xd0
 367 1587 l 1
 651 1587 653 1357 653 1201 c 0
 653 774 384 408 246 86 c 1
 346 99 446 107 547 107 c 1
 595 98 612 81 612 61 c 0
 612 43 599 23 581 4 c 1
 446 4 311 -15 176 -15 c 0
 129 -15 78 7 78 47 c 2
 78 55 l 1xb0
EndSplineSet
EndChar

StartChar: registered
Encoding: 174 174 158
Width: 2088
Flags: MW
HStem: -190 127<744 829 744 1501.5> 1525 110<874.5 1077.5> 1832 106<1053 1054 1054 1457.5>
VStem: 101 119 514 71 514 79 514 137 918 195 1409 114
LayerCount: 2
Fore
SplineSet
1053 1938 m 2xf380
 1054 1938 l 2
 1918 1938 1980 1224 1980 807 c 0
 1980 470 1979 -190 1024 -190 c 0
 290 -190 257 366 131 765 c 1
 131 810 130 866 130 930 c 0
 130 1306 175 1938 1053 1938 c 2xf380
286 954 m 0
 286 586 446 121 744 -63 c 1
 829 -63 l 1
 829 -83 l 1
 1746 -78 1832 397 1832 707 c 2
 1832 719 l 2
 1832 1076 1828 1832 1087 1832 c 0
 334 1832 286 1241 286 954 c 0
1599 199 m 1
 1604 199 l 1
 1604 175 1528 143 1477 143 c 0
 1206 143 1021 797 924 914 c 1
 807 914 l 1
 803 882 797 828 797 796 c 0
 797 600 846 406 846 210 c 0
 846 174 822 143 763 143 c 0
 716 143 668 169 668 208 c 0
 668 295 624 383 642 470 c 1
 642 1454 l 2
 642 1603 716 1635 949 1635 c 0
 1386 1635 1447 1433 1447 1270 c 0
 1447 1023 1174 1007 1149 969 c 1
 1156 888 1461 425 1518 314 c 1
 1518 271 1599 239 1599 199 c 1
965 1525 m 0
 784 1525 761 1475 761 1407 c 0xf980
 761 1364 771 1312 771 1263 c 0xf580
 771 1175 772 1086 802 1000 c 1
 1057 1049 1193 1142 1193 1272 c 2
 1193 1281 l 2
 1193 1360 1190 1525 965 1525 c 0
EndSplineSet
EndChar

StartChar: minus
Encoding: 8722 8722 159
Width: 1027
Flags: MW
HStem: 590 21G<229.5 352> 600 101<726.5 767 767 794.5 212 839.5>
LayerCount: 2
Fore
SplineSet
152 655 m 0x80
 152 683 175 701 212 701 c 2
 767 701 l 2
 822 701 896 701 896 647 c 0
 896 613 859 600 820 600 c 0x40
 633 600 445 590 259 590 c 0
 200 590 152 604 152 655 c 0x80
EndSplineSet
EndChar

StartChar: eth
Encoding: 240 240 160
Width: 880
Flags: MW
HStem: -15 87<393 394 394 483> 1251 100 1251 331
VStem: 90 99 459 94
LayerCount: 2
Fore
SplineSet
393 72 m 2xd8
 394 72 l 2
 572 72 597 319 597 507 c 0
 597 580 593 644 593 681 c 0
 593 761 577 853 463 885 c 1
 246 859 246 472 246 390 c 0
 246 378 243 354 243 325 c 0
 243 228 259 72 393 72 c 2xd8
400 1340 m 1
 357 1414 157 1496 157 1539 c 0
 157 1565 196 1582 226 1582 c 0xb8
 461 1582 582 1441 623 1351 c 1
 671 1353 718 1355 766 1355 c 0
 783 1355 788 1333 788 1326 c 0
 788 1289 685 1272 651 1267 c 1
 708 1062 719 850 719 641 c 0
 719 522 707 402 707 283 c 0
 707 159 698 -15 404 -15 c 0
 130 -15 117 173 117 305 c 1
 117 305 113 345 113 406 c 0
 113 589 144 956 493 956 c 0
 511 956 530 955 550 954 c 1
 521 1053 490 1153 445 1251 c 1
 321 1245 216 1242 143 1242 c 0
 126 1242 121 1265 121 1272 c 0
 121 1319 330 1336 400 1340 c 1
EndSplineSet
EndChar

StartChar: multiply
Encoding: 215 215 161
Width: 849
Flags: MW
HStem: 399 21G<599 599 599 642> 430 450<149.5 255>
VStem: 70 338 101 307 101 445
LayerCount: 2
Fore
SplineSet
599 399 m 1xe0
 569 421 429 557 410 562 c 1
 376 560 298 430 212 430 c 0
 173 430 131 460 131 490 c 0xd0
 131 528 272 601 306 638 c 1
 246 681 91 755 91 823 c 0xe0
 91 854 130 880 169 880 c 0
 203 880 373 748 415 721 c 1
 488 750 542 866 640 866 c 0
 676 866 710 839 710 811 c 0xc8
 710 745 530 707 530 643 c 0
 530 583 737 539 737 473 c 0
 737 435 692 399 642 399 c 2
 599 399 l 1xe0
EndSplineSet
EndChar

StartChar: threesuperior
Encoding: 179 179 162
Width: 787
Flags: MW
HStem: -20 84 1360 213<130 442.5> 1477 96<276.5 386.5>
VStem: 238 222 358 102 436 103
LayerCount: 2
Fore
SplineSet
331 1573 m 0xd0
 554 1573 598 1293 598 1124 c 0xd0
 598 1040 534 993 478 927 c 1
 658 844 701 509 701 361 c 0
 701 213 684 -20 425 -20 c 0
 351 -20 229 5 229 76 c 2
 229 89 l 1
 273 89 l 1
 328 83 361 88 404 64 c 1
 554 69 567 207 567 294 c 0xc4
 567 482 564 694 404 849 c 1
 399 848 394 848 387 848 c 0
 361 848 333 857 309 865 c 1
 309 889 l 2xd0
 309 950 465 1016 465 1150 c 0
 465 1216 447 1477 326 1477 c 0xa8
 227 1477 259 1360 151 1360 c 0
 109 1360 81 1387 74 1416 c 1
 118 1501 205 1573 331 1573 c 0xd0
EndSplineSet
EndChar

StartChar: copyright
Encoding: 169 169 163
Width: 2377
Flags: MW
HStem: -20 101<672.5 1074 1074 1075> 225 107<1148 1149 1149 1265.5> 225 215 1223 276<774 1609> 1387 112<952.5 1200 774 1209> 1713 99<673.5 1360>
VStem: 93 118 368 118 1635 113
LayerCount: 2
Fore
SplineSet
1075 -20 m 2xcf80
 1074 -20 l 2
 151 -20 121 384 121 795 c 0
 121 838 121 881 121 924 c 0
 121 1208 186 1812 918 1812 c 0
 2130 1812 2273 1105 2273 757 c 1
 2227 403 2118 -20 1075 -20 c 2xcf80
2124 894 m 1
 2126 894 l 1
 2126 1166 1736 1713 984 1713 c 0
 363 1713 274 1160 274 940 c 0
 274 884 272 823 272 760 c 0
 272 443 332 81 1013 81 c 0
 1634 81 1931 234 2124 464 c 1
 2124 894 l 1
1148 332 m 2
 1149 332 l 2xd780
 1387 332 1435 440 1610 440 c 0
 1707 440 1723 404 1723 372 c 0
 1723 283 1356 225 1175 225 c 0
 533 225 479 583 479 813 c 2
 479 825 l 2
 479 1028 482 1499 1066 1499 c 0
 1334 1499 1702 1380 1702 1275 c 0
 1702 1247 1647 1223 1571 1223 c 0xb780
 1308 1223 1327 1387 1091 1387 c 0
 814 1387 632 1093 632 815 c 0
 632 567 823 332 1148 332 c 2
EndSplineSet
EndChar

StartChar: Aacute
Encoding: 193 193 164
Width: 928
Flags: MW
HStem: -1 21G<634 634> 1955 20G<820 843.5>
VStem: 363 346 486 38 488 36
LayerCount: 2
Fore
SplineSet
921 1919 m 0xe0
 921 1843 628 1741 561 1687 c 1
 517 1687 472 1702 472 1741 c 2
 472 1743 l 2
 472 1798 758 1930 820 1975 c 1
 867 1975 921 1962 921 1919 c 0xe0
79 64 m 1
 498 1544 l 1
 681 1526 l 1
 834 21 l 1
 772 9 717 1 634 -1 c 1
 634 321 l 1xc8
 327 373 l 1
 221 23 l 1
 79 64 l 1
632 448 m 1xd0
 570 1298 l 1
 572 1316 l 1
 344 465 l 1
 581 442 l 1
 632 448 l 1xd0
EndSplineSet
EndChar

StartChar: Acircumflex
Encoding: 194 194 165
Width: 928
Flags: MW
HStem: -1 21G<636 636> 2099 20G<552.5 626.5>
VStem: 487 38 489 36
LayerCount: 2
Fore
SplineSet
579 1953 m 1xd0
 535 1855 519 1772 432 1688 c 1
 345 1736 l 1
 354 1805 504 2119 601 2119 c 0
 652 2119 669 2086 669 2052 c 0
 669 1966 749 1887 749 1814 c 2
 749 1762 l 1
 752 1755 773 1744 773 1737 c 0
 773 1704 725 1687 688 1687 c 2
 631 1687 l 1
 621 1767 604 1874 579 1953 c 1xd0
81 64 m 1
 500 1544 l 1
 683 1526 l 1
 836 21 l 1
 774 9 719 1 636 -1 c 1
 636 321 l 1
 329 373 l 1
 223 23 l 1
 81 64 l 1
634 448 m 1xe0
 572 1298 l 1
 574 1316 l 1
 346 465 l 1
 583 442 l 1
 634 448 l 1xe0
EndSplineSet
EndChar

StartChar: Adieresis
Encoding: 196 196 166
Width: 928
Flags: MW
HStem: -1 21G<636 636> 1687 144<809.5 849>
VStem: 149 141 487 38 489 36 569 141
LayerCount: 2
Fore
SplineSet
271 1687 m 0xec
 220 1687 194 1717 194 1754 c 0
 194 1794 232 1828 285 1828 c 0
 335 1828 377 1798 377 1759 c 0
 377 1717 322 1687 271 1687 c 0xec
740 1756 m 0
 740 1795 784 1831 835 1831 c 0
 883 1831 923 1794 923 1758 c 0
 923 1716 875 1687 823 1687 c 0
 777 1687 740 1721 740 1756 c 0
81 64 m 1
 500 1544 l 1
 683 1526 l 1
 836 21 l 1
 774 9 719 1 636 -1 c 1
 636 321 l 1
 329 373 l 1
 223 23 l 1
 81 64 l 1
634 448 m 1xf4
 572 1298 l 1
 574 1316 l 1
 346 465 l 1
 583 442 l 1
 634 448 l 1xf4
EndSplineSet
EndChar

StartChar: Agrave
Encoding: 192 192 167
Width: 928
Flags: MW
HStem: -1 21G<634 634> 1758 130<164 250.5>
VStem: 98 382 486 38 488 36
LayerCount: 2
Fore
SplineSet
164 1888 m 1xe8
 266 1888 624 1810 624 1727 c 0
 624 1703 590 1687 561 1687 c 0
 520 1687 339 1745 288 1760 c 1
 274 1759 258 1758 243 1758 c 0
 187 1758 127 1769 127 1820 c 0
 127 1845 134 1874 164 1888 c 1xe8
79 64 m 1
 498 1544 l 1
 681 1526 l 1
 834 21 l 1
 772 9 717 1 634 -1 c 1
 634 321 l 1
 327 373 l 1
 221 23 l 1
 79 64 l 1
632 448 m 1xf0
 570 1298 l 1
 572 1316 l 1
 344 465 l 1
 581 442 l 1
 632 448 l 1xf0
EndSplineSet
EndChar

StartChar: Aring
Encoding: 197 197 168
Width: 928
Flags: MW
HStem: -1 21G<634 634> 1577 229<524 590>
VStem: 319 225 486 38 488 36
LayerCount: 2
Fore
SplineSet
563 1693 m 1xe0
 531 1663 l 1
 581 1663 l 1
 581 1677 576 1710 563 1720 c 1
 563 1693 l 1xe0
414 1684 m 0
 414 1745 483 1806 565 1806 c 0
 641 1806 707 1747 707 1691 c 0
 707 1620 634 1577 546 1577 c 0
 473 1577 414 1630 414 1684 c 0
79 64 m 1
 498 1544 l 1
 681 1526 l 1
 834 21 l 1
 772 9 717 1 634 -1 c 1
 634 321 l 1xc8
 327 373 l 1
 221 23 l 1
 79 64 l 1
632 448 m 1xd0
 570 1298 l 1
 572 1316 l 1
 344 465 l 1
 581 442 l 1
 632 448 l 1xd0
EndSplineSet
EndChar

StartChar: Atilde
Encoding: 195 195 169
Width: 928
Flags: MW
HStem: -1 21G<634 634> 1688 227<375 743> 1894 20G<763.5 809>
VStem: 187 481 486 38 488 36
LayerCount: 2
Fore
SplineSet
243 1746 m 0xd0
 243 1834 313 1915 437 1915 c 1xd0
 569 1863 l 1
 582 1836 624 1791 665 1791 c 1
 665 1792 l 1
 689 1808 734 1811 734 1837 c 0
 734 1850 720 1867 717 1882 c 1
 729 1900 750 1914 777 1914 c 0xb0
 841 1914 868 1862 868 1820 c 0
 868 1749 789 1688 697 1688 c 0
 586 1688 507 1755 440 1814 c 1
 440 1816 l 1
 372 1785 l 1
 372 1687 l 1
 323 1687 243 1704 243 1746 c 0xd0
79 64 m 1
 498 1544 l 1
 681 1526 l 1
 834 21 l 1
 772 9 717 1 634 -1 c 1
 634 321 l 1xc4
 327 373 l 1
 221 23 l 1
 79 64 l 1
632 448 m 1xc8
 570 1298 l 1
 572 1316 l 1
 344 465 l 1
 581 442 l 1
 632 448 l 1xc8
EndSplineSet
EndChar

StartChar: Ccedilla
Encoding: 199 199 170
Width: 897
Flags: MW
HStem: -536 21G<531 620.5> 1439 125<550 585 433.5 591 550 550>
VStem: 87 118 87 368 87 478 320 305 478 147
LayerCount: 2
Fore
SplineSet
472 -30 m 1xd2
 140 25 113 473 113 836 c 0
 113 907 114 975 114 1036 c 0
 114 1099 117 1163 133 1225 c 1
 127 1247 125 1269 125 1289 c 0
 125 1462 318 1564 549 1564 c 0
 621 1564 734 1530 734 1464 c 0xc8
 734 1433 697 1418 660 1418 c 0
 636 1418 603 1425 591 1443 c 1
 591 1439 l 1xd2
 550 1439 l 1
 550 1447 l 1
 294 1447 266 1293 266 1139 c 0
 266 1092 274 1045 274 998 c 0
 274 950 251 903 251 855 c 0
 251 839 251 822 251 804 c 0
 251 547 260 92 556 92 c 0
 621 92 685 112 728 151 c 1
 757 151 785 154 812 161 c 1
 812 134 l 2
 812 -29 607 34 601 -123 c 1
 746 -144 794 -248 794 -350 c 0
 794 -438 679 -536 562 -536 c 0
 500 -536 416 -513 416 -457 c 0xe4
 416 -432 445 -413 476 -413 c 0
 506 -413 537 -420 562 -433 c 1
 589 -430 621 -394 621 -373 c 0
 621 -339 602 -305 591 -272 c 1
 637 -307 l 1
 637 -297 l 2
 637 -278 633 -260 615 -246 c 1
 589 -249 568 -251 552 -251 c 0
 506 -251 487 -237 447 -189 c 1
 469 -154 472 -114 472 -76 c 2
 472 -30 l 1xd2
EndSplineSet
EndChar

StartChar: Eacute
Encoding: 201 201 171
Width: 693
Flags: MW
HStem: -10 117<259 308 308 308 308 373> 752 120<413.5 433.5 392.5 444> 1425 110 1533 20G<352 408.5> 1958 20G<545 568.5>
VStem: 119 97 119 271 151 346
LayerCount: 2
Fore
SplineSet
597 59 m 2xec
 597 52 l 1
 557 -9 450 -10 373 -10 c 2
 290 -10 l 2
 228 -10 155 -8 155 57 c 2
 155 1535 l 1xec
 221 1535 319 1553 385 1553 c 0
 432 1553 507 1529 507 1486 c 0xda
 507 1434 441 1425 386 1425 c 0
 360 1425 336 1427 310 1427 c 0
 301 1427 290 1427 281 1426 c 1
 281 1313 302 1201 302 1088 c 0
 302 1010 290 932 289 854 c 1
 331 860 371 872 414 872 c 0
 453 872 492 846 492 815 c 0
 492 784 466 752 422 752 c 0
 405 752 380 754 355 754 c 0
 328 754 321 751 308 739 c 1
 308 107 l 1
 354 109 403 113 449 113 c 0
 496 113 597 110 597 59 c 2xec
646 1922 m 0xe9
 646 1846 353 1744 286 1690 c 1
 242 1690 197 1705 197 1744 c 2
 197 1746 l 2
 197 1801 483 1933 545 1978 c 1
 592 1978 646 1965 646 1922 c 0xe9
EndSplineSet
EndChar

StartChar: Ecircumflex
Encoding: 202 202 172
Width: 669
Flags: MW
HStem: -12 117<258.5 308 308 308 308 373> 750 120<412.5 432.5 391.5 443> 1423 110 1531 20G<351.5 408> 2103 20G<277.5 351.5>
VStem: 119 97 119 271
LayerCount: 2
Fore
SplineSet
304 1957 m 1xec
 260 1859 244 1776 157 1692 c 1
 70 1740 l 1
 79 1809 229 2123 326 2123 c 0
 377 2123 394 2090 394 2056 c 0
 394 1970 474 1891 474 1818 c 2
 474 1766 l 1
 477 1759 498 1748 498 1741 c 0
 498 1708 450 1691 413 1691 c 2
 356 1691 l 1
 346 1771 329 1878 304 1957 c 1xec
308 105 m 1
 353 107 403 111 448 111 c 0
 495 111 597 108 597 57 c 2
 597 50 l 1
 556 -11 450 -12 373 -12 c 2
 290 -12 l 2
 227 -12 155 -10 155 55 c 2
 155 1533 l 1xec
 221 1533 318 1551 385 1551 c 0
 431 1551 507 1527 507 1484 c 0xda
 507 1432 441 1423 386 1423 c 0
 360 1423 335 1425 309 1425 c 0
 300 1425 290 1425 281 1424 c 1
 281 1311 301 1199 301 1086 c 0
 301 1008 290 930 288 852 c 1
 330 858 370 870 413 870 c 0
 452 870 491 844 491 813 c 0
 491 782 465 750 421 750 c 0
 404 750 379 752 355 752 c 0
 327 752 321 749 308 737 c 1
 308 105 l 1
EndSplineSet
EndChar

StartChar: Edieresis
Encoding: 203 203 173
Width: 846
Flags: MW
HStem: -13 117<402 451 451 451 451 516> 749 120<556 576.5 535.5 586.5> 1422 110 1690 144<675.5 715>
VStem: 46 141 229 97 229 271 466 141
LayerCount: 2
Fore
SplineSet
137 1690 m 0xfd
 89 1690 60 1722 60 1757 c 0
 60 1797 98 1831 151 1831 c 0
 200 1831 243 1801 243 1762 c 0
 243 1720 187 1690 137 1690 c 0xfd
606 1759 m 0
 606 1798 650 1834 701 1834 c 0
 749 1834 789 1797 789 1761 c 0
 789 1719 741 1690 689 1690 c 0
 642 1690 606 1724 606 1759 c 0
740 56 m 2
 740 49 l 1
 700 -12 593 -13 516 -13 c 2
 433 -13 l 2
 371 -13 298 -11 298 54 c 2
 298 1532 l 1
 364 1532 462 1550 528 1550 c 0
 575 1550 650 1526 650 1483 c 0xfa
 650 1431 584 1422 529 1422 c 0
 503 1422 479 1424 453 1424 c 0
 444 1424 433 1424 424 1423 c 1
 424 1310 445 1198 445 1085 c 0
 445 1007 433 929 432 851 c 1
 473 857 514 869 557 869 c 0
 596 869 635 843 635 812 c 0
 635 781 609 749 564 749 c 0
 548 749 523 751 498 751 c 0
 471 751 464 748 451 736 c 1
 451 104 l 1
 497 106 546 110 592 110 c 0
 639 110 740 107 740 56 c 2
EndSplineSet
EndChar

StartChar: Egrave
Encoding: 200 200 174
Width: 879
Flags: MW
HStem: -13 117<469 518 518 518 518 583> 749 120<623 643.5 602.5 653.5> 1422 110 1761 130<98 185.5>
VStem: 48 382 281 97 281 271
LayerCount: 2
Fore
SplineSet
98 1891 m 1xf8
 201 1891 559 1813 559 1730 c 0
 559 1706 525 1690 496 1690 c 0
 455 1690 274 1748 223 1763 c 1
 210 1762 193 1761 178 1761 c 0
 123 1761 62 1772 62 1823 c 0
 62 1848 69 1877 98 1891 c 1xf8
807 56 m 2
 807 49 l 1
 767 -12 660 -13 583 -13 c 2
 500 -13 l 2
 438 -13 365 -11 365 54 c 2
 365 1532 l 1
 431 1532 529 1550 595 1550 c 0
 642 1550 717 1526 717 1483 c 0xf2
 717 1431 651 1422 596 1422 c 0
 570 1422 546 1424 520 1424 c 0
 511 1424 500 1424 491 1423 c 1xf4
 491 1310 512 1198 512 1085 c 0
 512 1007 500 929 499 851 c 1
 540 857 581 869 624 869 c 0
 663 869 702 843 702 812 c 0
 702 781 676 749 631 749 c 0
 615 749 590 751 565 751 c 0
 538 751 531 748 518 736 c 1
 518 104 l 1
 564 106 613 110 659 110 c 0
 706 110 807 107 807 56 c 2
EndSplineSet
EndChar

StartChar: Iacute
Encoding: 205 205 175
Width: 658
Flags: MW
HStem: 8 21G<273 289> 21 94 1444 111<421.5 435 381 450.5> 1958 20G<505 528>
VStem: 66 190 66 313 120 346 163 93 201 55 201 107
LayerCount: 2
Fore
SplineSet
401 20 m 1x7040
 399 21 l 1
 351 21 l 2x7040
 327 21 301 8 277 8 c 0
 269 8 262 10 254 14 c 1
 211 14 86 19 86 66 c 0xb8
 86 103 125 115 167 115 c 0
 189 115 207 112 223 112 c 0
 247 112 262 120 262 160 c 0x7080
 262 476 212 791 212 1107 c 0x71
 212 1177 217 1246 217 1316 c 0
 217 1354 216 1392 211 1430 c 1
 191 1425 168 1421 148 1421 c 0
 113 1421 86 1432 86 1470 c 0
 86 1542 347 1555 415 1555 c 0
 455 1555 493 1531 493 1499 c 0x74
 493 1472 470 1444 431 1444 c 0
 412 1444 397 1445 384 1445 c 0
 353 1445 333 1439 333 1403 c 0x78
 333 1003 401 605 401 205 c 2
 401 126 l 1
 419 128 434 129 453 129 c 0
 511 129 563 115 563 57 c 2
 563 45 l 1
 497 10 l 1
 464 10 433 19 401 20 c 1x7040
606 1922 m 0x72
 606 1846 312 1744 246 1690 c 1
 202 1690 156 1705 156 1744 c 2
 156 1746 l 2
 156 1801 442 1933 505 1978 c 1
 551 1978 606 1965 606 1922 c 0x72
EndSplineSet
EndChar

StartChar: Icircumflex
Encoding: 206 206 176
Width: 672
Flags: MW
HStem: 6 21G<304.5 320> 19 94 1442 111<453 466 412.5 481.5> 2104 20G<267.5 341.5>
VStem: 90 190 90 313 187 93 225 55
LayerCount: 2
Fore
SplineSet
294 1958 m 1x78
 250 1860 234 1777 147 1693 c 1
 60 1741 l 1
 69 1810 219 2124 316 2124 c 0
 367 2124 384 2091 384 2057 c 0
 384 1971 464 1892 464 1819 c 2
 464 1767 l 1
 467 1760 488 1749 488 1742 c 0
 488 1709 440 1692 403 1692 c 2
 346 1692 l 1
 336 1772 319 1879 294 1958 c 1x78
432 18 m 1
 431 19 l 1
 382 19 l 2x78
 358 19 332 6 308 6 c 0
 301 6 293 8 285 12 c 1
 242 12 117 17 117 64 c 0xb8
 117 101 156 113 198 113 c 0
 220 113 238 110 254 110 c 0
 278 110 293 118 293 158 c 0x71
 293 474 243 789 243 1105 c 0x72
 243 1175 249 1244 249 1314 c 0
 249 1352 247 1390 242 1428 c 1
 223 1423 199 1419 180 1419 c 0
 145 1419 117 1430 117 1468 c 0
 117 1540 379 1553 446 1553 c 0
 486 1553 524 1529 524 1497 c 0x74
 524 1470 501 1442 462 1442 c 0
 444 1442 428 1443 415 1443 c 0
 384 1443 364 1437 364 1401 c 0
 364 1001 432 603 432 203 c 2
 432 124 l 1
 450 126 466 127 484 127 c 0
 542 127 594 113 594 55 c 2
 594 43 l 1
 528 8 l 1
 496 8 464 17 432 18 c 1
EndSplineSet
EndChar

StartChar: Idieresis
Encoding: 207 207 177
Width: 849
Flags: MW
HStem: 5 21G<460.5 476> 18 94 1441 111<609 622.5 568.5 637.5> 1690 144<679.5 719>
VStem: 49 141 210 190 210 313 307 93 345 55 345 107 469 141
LayerCount: 2
Fore
SplineSet
141 1690 m 0x7860
 93 1690 64 1722 64 1757 c 0
 64 1797 102 1831 155 1831 c 0
 204 1831 247 1801 247 1762 c 0
 247 1720 191 1690 141 1690 c 0x7860
610 1759 m 0
 610 1798 654 1834 705 1834 c 0
 753 1834 793 1797 793 1761 c 0
 793 1719 745 1690 693 1690 c 0
 646 1690 610 1724 610 1759 c 0
588 17 m 1
 587 18 l 1
 539 18 l 2x7860
 514 18 488 5 464 5 c 0
 457 5 449 7 441 11 c 1
 398 11 273 16 273 63 c 0xbc20
 273 100 312 112 354 112 c 0
 376 112 394 109 410 109 c 0
 435 109 449 117 449 157 c 0x78a0
 449 473 399 788 399 1104 c 0x7920
 399 1174 405 1243 405 1313 c 0
 405 1351 403 1389 398 1427 c 1
 379 1422 355 1418 336 1418 c 0
 301 1418 273 1429 273 1467 c 0
 273 1539 535 1552 602 1552 c 0
 643 1552 680 1528 680 1496 c 0x7a
 680 1469 657 1441 618 1441 c 0
 600 1441 584 1442 571 1442 c 0
 540 1442 520 1436 520 1400 c 0x7c20
 520 1000 588 602 588 202 c 2
 588 123 l 1
 606 125 622 126 640 126 c 0
 698 126 750 112 750 54 c 2
 750 42 l 1
 684 7 l 1
 652 7 620 16 588 17 c 1
EndSplineSet
EndChar

StartChar: Igrave
Encoding: 204 204 178
Width: 892
Flags: MW
HStem: 5 21G<525.5 541> 18 94 1441 111<674 687.5 633.5 702.5> 1761 130<100 187.5>
VStem: 49 401 260 190 260 313 357 93 395 55 395 107
LayerCount: 2
Fore
SplineSet
100 1891 m 1x78
 203 1891 561 1813 561 1730 c 0
 561 1706 527 1690 498 1690 c 0
 457 1690 276 1748 225 1763 c 1
 212 1762 195 1761 180 1761 c 0
 125 1761 64 1772 64 1823 c 0
 64 1848 71 1877 100 1891 c 1x78
653 17 m 1x7040
 652 18 l 1
 604 18 l 2x7040
 579 18 553 5 529 5 c 0
 522 5 514 7 506 11 c 1
 463 11 338 16 338 63 c 0xb4
 338 100 377 112 419 112 c 0
 441 112 459 109 475 109 c 0
 500 109 514 117 514 157 c 0x7080
 514 473 464 788 464 1104 c 0x71
 464 1174 470 1243 470 1313 c 0
 470 1351 468 1389 463 1427 c 1
 444 1422 420 1418 401 1418 c 0
 366 1418 338 1429 338 1467 c 0
 338 1539 600 1552 667 1552 c 0
 708 1552 745 1528 745 1496 c 0x72
 745 1469 722 1441 683 1441 c 0
 665 1441 649 1442 636 1442 c 0
 605 1442 585 1436 585 1400 c 0x74
 585 1000 653 602 653 202 c 2
 653 123 l 1
 671 125 687 126 705 126 c 0
 763 126 815 112 815 54 c 2
 815 42 l 1
 749 7 l 1
 717 7 685 16 653 17 c 1x7040
EndSplineSet
EndChar

StartChar: Ntilde
Encoding: 209 209 179
Width: 1374
Flags: MW
HStem: -22 21G<893.5 1093> -21 21G<1092 1131.5> 1534 20G<200 278.5> 1697 227 1903 20G<969 1040>
VStem: 100 104 132 72 132 169 816 135
LayerCount: 2
Fore
SplineSet
172 1755 m 0x7280
 172 1843 242 1924 430 1924 c 1x7180
 650 1872 l 1
 672 1845 742 1800 810 1800 c 1
 810 1801 l 1
 849 1817 923 1820 923 1846 c 0
 923 1859 898 1876 894 1891 c 1
 914 1909 946 1923 992 1923 c 0x6c80
 1088 1923 1115 1871 1115 1829 c 0
 1115 1758 1013 1697 859 1697 c 0
 677 1697 546 1764 437 1823 c 1
 437 1825 l 1
 322 1794 l 1
 322 1696 l 1
 252 1696 172 1713 172 1755 c 0x7280
1092 -21 m 1
 1093 -22 l 1
 694 -22 597 974 356 1111 c 1
 356 1113 356 1115 356 1117 c 0
 356 1185 291 1236 265 1297 c 1
 265 1 l 1
 172 1 l 1
 172 39 l 1xb280
 173 45 174 52 174 60 c 0
 174 88 164 129 164 177 c 0
 164 371 130 688 130 812 c 2
 130 1073 l 2x7480
 130 1198 148 1324 148 1449 c 2
 148 1462 l 2
 148 1519 152 1554 248 1554 c 0
 309 1554 391 1528 391 1492 c 0
 391 1088 957 691 1015 298 c 1
 1044 276 1057 250 1061 225 c 1
 1061 463 1076 701 1076 939 c 2
 1076 1545 l 1
 1087 1580 1121 1596 1164 1596 c 0
 1222 1596 1236 1553 1236 1516 c 2
 1236 1504 l 1
 1225 1485 1219 1465 1219 1444 c 0
 1219 1193 1209 939 1209 687 c 2
 1209 61 l 2
 1209 17 1171 -21 1092 -21 c 1
EndSplineSet
EndChar

StartChar: Oacute
Encoding: 211 211 180
Width: 1211
Flags: MW
HStem: -56 111<504 805.5> 1478 107<499 500 500 517> 1955 20G<855 878.5>
VStem: 87 90 390 346 740 76 740 94
LayerCount: 2
Fore
SplineSet
957 1919 m 0xfc
 957 1843 663 1741 597 1687 c 1
 552 1687 507 1702 507 1741 c 2
 507 1743 l 2
 507 1798 793 1930 855 1975 c 1
 902 1975 957 1962 957 1919 c 0xfc
500 1585 m 2
 499 1585 l 2
 1063 1585 1084 1061 1084 729 c 0
 1084 689 1084 652 1084 619 c 0xfa
 1084 532 1061 447 1061 360 c 2
 1061 351 l 1
 1048 307 1044 262 1044 216 c 0
 1044 114 935 -56 676 -56 c 0
 147 -56 113 610 113 800 c 0
 113 863 109 948 109 1038 c 0
 109 1290 142 1585 500 1585 c 2
519 1477 m 1
 517 1478 l 1
 234 1478 230 981 230 862 c 2
 230 852 l 2
 230 720 326 55 682 55 c 0
 937 55 962 561 962 653 c 0
 962 797 951 1477 519 1477 c 1
EndSplineSet
EndChar

StartChar: Ocircumflex
Encoding: 212 212 181
Width: 1212
Flags: MW
HStem: -57 111<510 807.5> 1476 109<324.5 740.5> 1690 432<516 738 516 643>
VStem: 85 96 744 78
LayerCount: 2
Fore
SplineSet
501 1585 m 2
 504 1585 l 2
 145 1585 111 1291 111 1040 c 0
 111 949 115 863 115 799 c 0
 115 609 149 -57 678 -57 c 0
 937 -57 1047 113 1047 215 c 0
 1047 261 1056 306 1069 350 c 1
 1069 359 l 2
 1069 446 1086 531 1086 618 c 0
 1086 650 1086 686 1086 724 c 0
 1086 1056 1067 1585 501 1585 c 2
523 1477 m 1
 524 1476 l 1
 957 1476 968 796 968 652 c 0
 968 560 943 54 688 54 c 0
 332 54 236 719 236 851 c 2
 236 861 l 2
 236 980 240 1477 523 1477 c 1
557 1956 m 1
 561 1956 l 1
 488 1858 462 1775 316 1691 c 1
 199 1739 l 1
 208 1808 435 2122 597 2122 c 0
 680 2122 709 2089 709 2055 c 0
 709 1969 840 1890 840 1817 c 2
 840 1765 l 1
 844 1758 879 1747 879 1740 c 0
 879 1707 797 1690 738 1690 c 2
 643 1690 l 1
 625 1770 599 1877 557 1956 c 1
EndSplineSet
EndChar

StartChar: Odieresis
Encoding: 214 214 182
Width: 1244
Flags: MW
HStem: -59 112<537 838.5> 1475 108<355.5 768.5> 1690 144<959.5 1011>
VStem: 52 141 651 185 765 81
LayerCount: 2
Fore
SplineSet
145 1690 m 0xf8
 94 1690 68 1720 68 1757 c 0
 68 1797 106 1831 159 1831 c 0
 208 1831 251 1801 251 1762 c 0
 251 1720 195 1690 145 1690 c 0xf8
847 1759 m 0
 847 1798 920 1834 999 1834 c 0
 1047 1834 1087 1797 1087 1761 c 0
 1087 1719 1039 1690 983 1690 c 0
 907 1690 847 1724 847 1759 c 0
550 1476 m 1
 552 1475 l 1
 985 1475 995 795 995 651 c 0xf4
 995 559 970 53 715 53 c 0
 359 53 263 718 263 850 c 2
 263 860 l 2
 263 979 267 1476 550 1476 c 1
532 1583 m 2
 535 1583 l 2
 176 1583 142 1289 142 1038 c 0
 142 947 146 861 146 797 c 0
 146 607 180 -59 709 -59 c 0
 968 -59 1078 111 1078 213 c 0
 1078 259 1087 304 1100 348 c 1
 1100 357 l 2
 1100 444 1117 529 1117 616 c 0
 1117 648 1117 684 1117 722 c 0
 1117 1054 1098 1583 532 1583 c 2
EndSplineSet
EndChar

StartChar: Ograve
Encoding: 210 210 183
Width: 1211
Flags: MW
HStem: -56 111<504 805.5> 1478 107<499 500 500 517> 1758 130<246 246.5 195 282>
VStem: 87 90 122 382 740 76 740 94
LayerCount: 2
Fore
SplineSet
195 1888 m 1xec
 298 1888 655 1810 655 1727 c 0
 655 1703 621 1687 593 1687 c 0
 551 1687 370 1745 320 1760 c 1
 305 1759 290 1758 274 1758 c 0
 218 1758 158 1769 158 1820 c 0
 158 1845 165 1874 195 1888 c 1xec
500 1585 m 2
 499 1585 l 2
 1063 1585 1084 1061 1084 729 c 0
 1084 689 1084 652 1084 619 c 0xf2
 1084 532 1061 447 1061 360 c 2
 1061 351 l 1
 1048 307 1044 262 1044 216 c 0
 1044 114 935 -56 676 -56 c 0
 147 -56 113 610 113 800 c 0xf4
 113 863 109 948 109 1038 c 0
 109 1290 142 1585 500 1585 c 2
519 1477 m 1
 517 1478 l 1
 234 1478 230 981 230 862 c 2
 230 852 l 2
 230 720 326 55 682 55 c 0
 937 55 962 561 962 653 c 0
 962 797 951 1477 519 1477 c 1
EndSplineSet
EndChar

StartChar: Otilde
Encoding: 213 213 184
Width: 1217
Flags: MW
HStem: -57 111<515 812> 1476 109<329.5 745.5> 1690 227 1896 20G<865.5 936>
VStem: 748 78
LayerCount: 2
Fore
SplineSet
506 1585 m 2xe8
 509 1585 l 2
 150 1585 116 1291 116 1040 c 0
 116 949 120 863 120 799 c 0
 120 609 154 -57 683 -57 c 0
 941 -57 1052 113 1052 215 c 0
 1052 261 1061 306 1074 350 c 1
 1074 359 l 2
 1074 446 1091 531 1091 618 c 0
 1091 650 1091 686 1091 724 c 0
 1091 1056 1071 1585 506 1585 c 2xe8
528 1477 m 1
 529 1476 l 1
 962 1476 973 796 973 652 c 0
 973 560 948 54 693 54 c 0
 337 54 241 719 241 851 c 2
 241 861 l 2
 241 980 245 1477 528 1477 c 1
99 1748 m 1
 100 1748 l 1
 100 1836 171 1917 327 1917 c 1xe8
 546 1865 l 1
 568 1838 639 1793 706 1793 c 1
 706 1794 l 1
 745 1810 819 1813 819 1839 c 0
 819 1852 795 1869 791 1884 c 1
 810 1902 843 1916 888 1916 c 0xd8
 984 1916 1012 1864 1012 1822 c 0
 1012 1751 908 1690 754 1690 c 0
 572 1690 441 1757 332 1816 c 1
 332 1818 l 1
 228 1787 l 1
 228 1689 l 1
 180 1689 99 1706 99 1748 c 1
EndSplineSet
EndChar

StartChar: Scaron
Encoding: 352 352 185
Width: 765
Flags: MW
HStem: -44 93<280 374.5 280 425.5> -44 124<133 425.5> 1555 20G<323 454> 1688 404<305 441> 2096 20G<184 184>
VStem: 72 439 97 117 390 121
LayerCount: 2
Fore
SplineSet
514 2038 m 1xbb
 517 2002 l 2
 517 2001 500 2000 500 1999 c 0
 500 1973 420 1807 420 1754 c 0
 420 1720 403 1688 353 1688 c 0
 257 1688 107 2001 98 2069 c 1
 184 2116 l 1
 253 2045 l 1
 254 2004 309 1894 329 1851 c 1
 355 1930 374 2011 384 2092 c 1
 441 2092 l 2
 442 2092 444 2092 445 2092 c 0
 458 2092 472 2093 485 2093 c 0
 506 2093 523 2089 523 2069 c 0
 523 2059 517 2047 514 2038 c 1xbb
566 686 m 1
 606 573 665 462 665 343 c 0
 665 180 550 -44 301 -44 c 0
 249 -44 94 -30 94 25 c 0
 94 53 112 80 154 80 c 0x7c
 211 80 259 49 301 49 c 0
 448 49 507 269 507 356 c 0
 507 691 127 941 127 1276 c 0
 127 1409 223 1575 423 1575 c 0
 485 1575 556 1546 580 1501 c 1
 580 1457 l 1
 544 1457 461 1461 431 1477 c 1
 324 1469 279 1361 279 1291 c 0
 279 1053 566 715 566 702 c 2
 566 686 l 1
EndSplineSet
EndChar

StartChar: Uacute
Encoding: 218 218 186
Width: 1296
Flags: MW
HStem: -37 72<674 801 801 803> 1955 20G<920 943>
VStem: 85 120 85 152 85 182 439 346 711 141 785 85
LayerCount: 2
Fore
SplineSet
1021 1919 m 0xe4
 1021 1843 727 1741 661 1687 c 1
 617 1687 571 1702 571 1741 c 2
 571 1743 l 2
 571 1798 857 1930 920 1975 c 1
 966 1975 1021 1962 1021 1919 c 0xe4
803 -37 m 2
 801 -37 l 2
 153 -37 111 605 111 1112 c 0
 111 1230 114 1341 114 1435 c 1
 101 1446 94 1462 94 1477 c 0
 94 1509 128 1540 171 1540 c 0
 259 1540 267 1443 267 1394 c 0xe4
 267 1157 309 919 309 682 c 1xd4
 329 641 348 492 348 444 c 0
 348 335 517 35 831 35 c 0
 1018 35 1021 160 1021 219 c 2
 1021 1138 l 2xcc
 1021 1255 925 1372 925 1489 c 0xe2
 925 1525 1001 1545 1051 1545 c 1
 1131 1497 l 1
 1131 1463 l 2xe1
 1131 1421 1108 1380 1108 1338 c 0xe2
 1108 1108 1103 870 1147 649 c 1
 1148 646 l 1
 1148 626 1154 606 1154 586 c 0
 1154 544 1161 502 1161 460 c 2
 1161 429 l 1
 1160 422 1155 414 1155 407 c 0
 1155 372 1156 331 1156 288 c 0
 1156 137 1130 -37 803 -37 c 2
EndSplineSet
EndChar

StartChar: Ucircumflex
Encoding: 219 219 187
Width: 1296
Flags: MW
HStem: -37 72<674 801 801 803> 2099 20G<642 716>
VStem: 85 120 711 141 785 67 785 85
LayerCount: 2
Fore
SplineSet
669 1953 m 1xf0
 624 1855 609 1772 522 1688 c 1
 435 1736 l 1
 444 1805 593 2119 691 2119 c 0
 741 2119 758 2086 758 2052 c 0
 758 1966 839 1887 839 1814 c 2
 839 1762 l 1
 842 1755 862 1744 862 1737 c 0
 862 1704 814 1687 778 1687 c 2
 721 1687 l 1
 710 1767 693 1874 669 1953 c 1xf0
803 -37 m 2
 801 -37 l 2
 153 -37 111 605 111 1112 c 0
 111 1230 114 1341 114 1435 c 1
 101 1446 94 1462 94 1477 c 0
 94 1509 128 1540 171 1540 c 0
 259 1540 267 1443 267 1394 c 0
 267 1157 309 919 309 682 c 1
 329 641 348 492 348 444 c 0
 348 335 517 35 831 35 c 0
 1018 35 1021 160 1021 219 c 2
 1021 1138 l 2xe8
 1021 1255 925 1372 925 1489 c 0xf0
 925 1525 1001 1545 1051 1545 c 1
 1131 1497 l 1
 1131 1463 l 2xe4
 1131 1421 1108 1380 1108 1338 c 0
 1108 1108 1103 870 1147 649 c 1
 1148 646 l 1
 1148 626 1154 606 1154 586 c 0
 1154 544 1161 502 1161 460 c 2
 1161 429 l 1
 1160 422 1155 414 1155 407 c 0
 1155 372 1156 331 1156 288 c 0
 1156 137 1130 -37 803 -37 c 2
EndSplineSet
EndChar

StartChar: Udieresis
Encoding: 220 220 188
Width: 1296
Flags: MW
HStem: -37 72<674 801 801 803> 1687 144<896.5 936>
VStem: 85 120 85 152 85 182 216 141 636 141 711 141 785 67 785 85
LayerCount: 2
Fore
SplineSet
358 1687 m 0xe680
 307 1687 281 1717 281 1754 c 0
 281 1794 319 1828 372 1828 c 0
 422 1828 465 1798 465 1759 c 0
 465 1717 409 1687 358 1687 c 0xe680
827 1756 m 0
 827 1795 871 1831 922 1831 c 0
 970 1831 1011 1794 1011 1758 c 0
 1011 1716 962 1687 910 1687 c 0
 864 1687 827 1721 827 1756 c 0
803 -37 m 2
 801 -37 l 2
 153 -37 111 605 111 1112 c 0
 111 1230 114 1341 114 1435 c 1
 101 1446 94 1462 94 1477 c 0
 94 1509 128 1540 171 1540 c 0
 259 1540 267 1443 267 1394 c 0xe680
 267 1157 309 919 309 682 c 1xd280
 329 641 348 492 348 444 c 0
 348 335 517 35 831 35 c 0
 1018 35 1021 160 1021 219 c 2
 1021 1138 l 2xca80
 1021 1255 925 1372 925 1489 c 0xe5
 925 1525 1001 1545 1051 1545 c 1
 1131 1497 l 1
 1131 1463 l 2xe640
 1131 1421 1108 1380 1108 1338 c 0xe5
 1108 1108 1103 870 1147 649 c 1
 1148 646 l 1
 1148 626 1154 606 1154 586 c 0
 1154 544 1161 502 1161 460 c 2
 1161 429 l 1
 1160 422 1155 414 1155 407 c 0
 1155 372 1156 331 1156 288 c 0
 1156 137 1130 -37 803 -37 c 2
EndSplineSet
EndChar

StartChar: Ugrave
Encoding: 217 217 189
Width: 1296
Flags: MW
HStem: -37 72<674 801 801 803> 1758 130<259 346>
VStem: 85 120 85 152 85 182 171 382 711 141 785 67 785 85
LayerCount: 2
Fore
SplineSet
259 1888 m 1xc6
 362 1888 719 1810 719 1727 c 0
 719 1703 686 1687 657 1687 c 0
 615 1687 435 1745 384 1760 c 1
 370 1759 354 1758 338 1758 c 0
 283 1758 223 1769 223 1820 c 0
 223 1845 229 1874 259 1888 c 1xc6
803 -37 m 2
 801 -37 l 2
 153 -37 111 605 111 1112 c 0
 111 1230 114 1341 114 1435 c 1
 101 1446 94 1462 94 1477 c 0
 94 1509 128 1540 171 1540 c 0
 259 1540 267 1443 267 1394 c 0xe2
 267 1157 309 919 309 682 c 1xd2
 329 641 348 492 348 444 c 0
 348 335 517 35 831 35 c 0
 1018 35 1021 160 1021 219 c 2
 1021 1138 l 2xc9
 1021 1255 925 1372 925 1489 c 0xe2
 925 1525 1001 1545 1051 1545 c 1
 1131 1497 l 1
 1131 1463 l 2xe080
 1131 1421 1108 1380 1108 1338 c 0
 1108 1108 1103 870 1147 649 c 1
 1148 646 l 1
 1148 626 1154 606 1154 586 c 0
 1154 544 1161 502 1161 460 c 2
 1161 429 l 1
 1160 422 1155 414 1155 407 c 0
 1155 372 1156 331 1156 288 c 0
 1156 137 1130 -37 803 -37 c 2
EndSplineSet
EndChar

StartChar: Yacute
Encoding: 221 221 190
Width: 686
Flags: MW
HStem: -25 21G<367.5 405> 1955 20G<637 660.5>
VStem: 57 295 215 137 215 235 215 353 244 108
LayerCount: 2
Fore
SplineSet
738 1919 m 0xc4
 738 1843 445 1741 378 1687 c 1
 334 1687 289 1702 289 1741 c 2
 289 1743 l 2
 289 1798 575 1930 637 1975 c 1
 684 1975 738 1962 738 1919 c 0xc4
159 1546 m 0
 240 1546 318 1092 354 1006 c 1
 374 1088 387 1539 515 1539 c 0
 533 1539 585 1539 585 1517 c 0xc8
 585 1287 458 1062 458 828 c 0
 458 804 465 781 465 757 c 2
 465 726 l 2
 465 545 464 364 464 183 c 0
 464 149 463 115 463 81 c 2
 463 35 l 2
 463 -2 425 -25 385 -25 c 0
 350 -25 317 -3 317 25 c 0xc2
 317 157 330 289 330 421 c 0
 330 541 279 656 279 776 c 0xd0
 279 1025 74 1267 74 1513 c 0xe0
 74 1540 134 1546 159 1546 c 0
EndSplineSet
EndChar

StartChar: Ydieresis
Encoding: 376 376 191
Width: 686
Flags: MW
HStem: -25 21G<367.5 405> 1687 144<615.5 655>
VStem: 0 141 57 295 215 137 215 235 244 108 420 141
LayerCount: 2
Fore
SplineSet
77 1687 m 0xe9
 26 1687 0 1717 0 1754 c 0
 0 1794 38 1828 91 1828 c 0
 140 1828 183 1798 183 1759 c 0
 183 1717 127 1687 77 1687 c 0xe9
546 1756 m 0
 546 1795 590 1831 641 1831 c 0
 689 1831 729 1794 729 1758 c 0
 729 1716 681 1687 629 1687 c 0
 582 1687 546 1721 546 1756 c 0
159 1546 m 0
 241 1546 319 1092 354 1006 c 1
 374 1088 387 1539 515 1539 c 0
 533 1539 585 1539 585 1517 c 0xe4
 585 1287 458 1062 458 828 c 0
 458 804 465 781 465 757 c 2
 465 726 l 2
 465 545 464 364 464 183 c 0
 464 149 463 115 463 81 c 2
 463 35 l 2
 463 -2 425 -25 385 -25 c 0
 350 -25 317 -3 317 25 c 0xe3
 317 157 330 289 330 421 c 0
 330 541 280 656 280 776 c 0xe9
 280 1025 74 1267 74 1513 c 0xd1
 74 1540 134 1546 159 1546 c 0
EndSplineSet
EndChar

StartChar: Zcaron
Encoding: 381 381 192
Width: 651
Flags: MW
HStem: -18 21G<142 217> -10 96 1452 98 1545 20G<432.5 495> 1688 404<489 625> 2096 20G<368 368>
VStem: 314 107
LayerCount: 2
Fore
SplineSet
698 2038 m 1x5e
 701 2002 l 2
 701 2001 684 2000 684 1999 c 0
 684 1973 604 1807 604 1754 c 0
 604 1720 588 1688 537 1688 c 0
 441 1688 291 2001 282 2069 c 1
 368 2116 l 1
 437 2045 l 1
 438 2004 493 1894 513 1851 c 1
 539 1930 558 2011 568 2092 c 1
 625 2092 l 2
 627 2092 628 2092 629 2092 c 0
 642 2092 656 2093 669 2093 c 0
 690 2093 707 2089 707 2069 c 0
 707 2059 701 2047 698 2038 c 1x5e
547 1506 m 0
 547 1052 389 495 252 86 c 1
 282 87 338 94 393 94 c 0
 464 94 533 82 533 31 c 2
 533 22 l 1
 491 -10 l 1x6e
 382 -10 272 -18 162 -18 c 0
 122 -18 100 6 87 32 c 1
 221 198 390 1236 408 1452 c 1
 376 1450 315 1442 256 1442 c 0
 182 1442 112 1454 112 1507 c 2
 112 1550 l 1xae
 149 1551 l 1
 174 1546 198 1544 224 1544 c 0
 307 1544 391 1565 474 1565 c 0
 516 1565 547 1537 547 1506 c 0
EndSplineSet
EndChar

StartChar: aacute
Encoding: 225 225 193
Width: 886
Flags: MW
HStem: -18 21G<712 744> -10 21G<155.5 228> 1748 20G<819 842.5>
VStem: 256 175 362 346 481 97
LayerCount: 2
Fore
SplineSet
921 1712 m 0x68
 921 1636 627 1534 561 1480 c 1x74
 516 1480 471 1495 471 1534 c 2
 471 1536 l 2
 471 1591 757 1723 819 1768 c 1
 866 1768 921 1755 921 1712 c 0x68
568 375 m 1
 562 400 561 425 561 451 c 0
 561 648 515 843 489 1038 c 1
 433 832 337 619 333 408 c 1x74
 379 385 511 378 568 375 c 1
600 1321 m 1
 601 1322 l 1
 601 988 752 635 752 332 c 0
 752 319 737 304 737 291 c 0
 737 240 784 100 784 42 c 2
 784 40 l 2
 784 16 774 -9 744 -18 c 1xb4
 680 -18 626 -9 626 50 c 0
 626 64 626 80 626 97 c 0
 626 186 617 305 505 305 c 2
 416 305 l 1
 389 314 358 315 328 315 c 2
 311 315 l 1
 303 255 281 -10 175 -10 c 0
 136 -10 90 12 90 45 c 1
 207 383 302 754 362 1100 c 0
 374 1169 371 1307 419 1363 c 1
 509 1363 l 2
 550 1363 600 1359 600 1321 c 1
EndSplineSet
EndChar

StartChar: acircumflex
Encoding: 226 226 194
Width: 885
Flags: MW
HStem: -18 21G<712 744> -10 21G<155.5 228> 1892 20G<543 617.5>
VStem: 256 175 481 97
LayerCount: 2
Fore
SplineSet
570 1746 m 1x78
 526 1648 510 1565 423 1481 c 1
 336 1529 l 1
 345 1598 494 1912 592 1912 c 0
 643 1912 659 1879 659 1845 c 0
 659 1759 740 1680 740 1607 c 2
 740 1555 l 1
 743 1548 763 1537 763 1530 c 0
 763 1497 715 1480 679 1480 c 2
 622 1480 l 1
 611 1560 594 1667 570 1746 c 1x78
568 375 m 1
 562 400 561 425 561 451 c 0
 561 648 515 843 489 1038 c 1
 433 832 337 619 333 408 c 1
 379 385 511 378 568 375 c 1
600 1321 m 1
 601 1322 l 1
 601 988 752 635 752 332 c 0
 752 319 737 304 737 291 c 0
 737 240 784 100 784 42 c 2
 784 40 l 2
 784 16 774 -9 744 -18 c 1xb8
 680 -18 626 -9 626 50 c 0
 626 64 626 80 626 97 c 0
 626 186 617 305 505 305 c 2
 416 305 l 1
 389 314 358 315 328 315 c 2
 311 315 l 1
 303 255 281 -10 175 -10 c 0
 136 -10 90 12 90 45 c 1
 207 383 302 754 362 1100 c 0
 374 1169 371 1307 419 1363 c 1
 509 1363 l 2
 550 1363 600 1359 600 1321 c 1
EndSplineSet
EndChar

StartChar: adieresis
Encoding: 228 228 195
Width: 886
Flags: MW
HStem: -18 21G<712 744> -10 21G<155.5 228> 1480 144<798 838>
VStem: 140 141 431 147 481 97 560 141
LayerCount: 2
Fore
SplineSet
259 1480 m 0x72
 208 1480 182 1510 182 1547 c 0
 182 1587 220 1621 273 1621 c 0
 323 1621 366 1591 366 1552 c 0
 366 1510 310 1480 259 1480 c 0x72
728 1549 m 0
 728 1588 773 1624 823 1624 c 0
 871 1624 912 1587 912 1551 c 0
 912 1509 864 1480 812 1480 c 0
 765 1480 728 1514 728 1549 c 0
568 375 m 1
 562 400 561 425 561 451 c 0x78
 561 648 515 843 489 1038 c 1
 433 832 337 619 333 408 c 1
 379 385 511 378 568 375 c 1
600 1321 m 1
 601 1322 l 1
 601 988 752 635 752 332 c 0
 752 319 737 304 737 291 c 0
 737 240 784 100 784 42 c 2
 784 40 l 2
 784 16 774 -9 744 -18 c 1
 680 -18 626 -9 626 50 c 0
 626 64 626 80 626 97 c 0xb4
 626 186 617 305 505 305 c 2
 416 305 l 1
 389 314 358 315 328 315 c 2
 311 315 l 1
 303 255 281 -10 175 -10 c 0
 136 -10 90 12 90 45 c 1
 207 383 302 754 362 1100 c 0
 374 1169 371 1307 419 1363 c 1
 509 1363 l 2
 550 1363 600 1359 600 1321 c 1
EndSplineSet
EndChar

StartChar: agrave
Encoding: 224 224 196
Width: 885
Flags: MW
HStem: -18 21G<712 744> -10 21G<155.5 228> 1551 130<210 210.5 159 246>
VStem: 94 368 431 147 481 97
LayerCount: 2
Fore
SplineSet
159 1681 m 1x74
 262 1681 619 1603 619 1520 c 0
 619 1496 585 1480 557 1480 c 0
 515 1480 334 1538 284 1553 c 1
 269 1552 254 1551 238 1551 c 0
 182 1551 123 1562 123 1613 c 0
 123 1638 129 1667 159 1681 c 1x74
568 375 m 1
 562 400 561 425 561 451 c 0x68
 561 648 515 843 489 1038 c 1
 433 832 337 619 333 408 c 1
 379 385 511 378 568 375 c 1
600 1321 m 1
 601 1322 l 1
 601 988 752 635 752 332 c 0
 752 319 737 304 737 291 c 0
 737 240 784 100 784 42 c 2
 784 40 l 2
 784 16 774 -9 744 -18 c 1
 680 -18 626 -9 626 50 c 0
 626 64 626 80 626 97 c 0xb4
 626 186 617 305 505 305 c 2
 416 305 l 1
 389 314 358 315 328 315 c 2
 311 315 l 1
 303 255 281 -10 175 -10 c 0
 136 -10 90 12 90 45 c 1
 207 383 302 754 362 1100 c 0
 374 1169 371 1307 419 1363 c 1
 509 1363 l 2
 550 1363 600 1359 600 1321 c 1
EndSplineSet
EndChar

StartChar: aring
Encoding: 229 229 197
Width: 885
Flags: MW
HStem: -18 21G<712 744> -10 21G<155.5 228> 1480 229<513 579> 1546 20G<520 570 570 570>
VStem: 256 175 431 104 481 97
LayerCount: 2
Fore
SplineSet
552 1596 m 1x5a
 520 1566 l 1
 570 1566 l 1
 570 1580 565 1613 552 1623 c 1
 552 1596 l 1x5a
403 1587 m 0
 403 1648 472 1709 554 1709 c 0
 630 1709 696 1650 696 1594 c 0
 696 1523 623 1480 535 1480 c 0x64
 462 1480 403 1533 403 1587 c 0
568 375 m 1
 562 400 561 425 561 451 c 0
 561 648 515 843 489 1038 c 1
 433 832 337 619 333 408 c 1x6a
 379 385 511 378 568 375 c 1
600 1321 m 1
 601 1322 l 1
 601 988 752 635 752 332 c 0
 752 319 737 304 737 291 c 0
 737 240 784 100 784 42 c 2
 784 40 l 2
 784 16 774 -9 744 -18 c 1xaa
 680 -18 626 -9 626 50 c 0
 626 64 626 80 626 97 c 0
 626 186 617 305 505 305 c 2
 416 305 l 1
 389 314 358 315 328 315 c 2
 311 315 l 1
 303 255 281 -10 175 -10 c 0
 136 -10 90 12 90 45 c 1
 207 383 302 754 362 1100 c 0
 374 1169 371 1307 419 1363 c 1
 509 1363 l 2
 550 1363 600 1359 600 1321 c 1
EndSplineSet
EndChar

StartChar: atilde
Encoding: 227 227 198
Width: 885
Flags: MW
HStem: -18 21G<712 744> -10 21G<155.5 228> 1481 227<365 733> 1564 20G<635 656> 1687 20G<753.5 799>
VStem: 179 77 179 481 431 147 481 97
LayerCount: 2
Fore
SplineSet
233 1539 m 0x62
 233 1627 303 1708 427 1708 c 1x62
 559 1656 l 1
 572 1629 614 1584 656 1584 c 1
 656 1585 l 1
 679 1601 724 1604 724 1630 c 0
 724 1643 710 1660 708 1675 c 1
 719 1693 740 1707 767 1707 c 0x5d
 831 1707 858 1655 858 1613 c 0
 858 1542 779 1481 687 1481 c 0
 576 1481 497 1548 431 1607 c 1
 431 1609 l 1
 362 1578 l 1
 362 1480 l 1
 314 1480 233 1497 233 1539 c 0x62
568 375 m 1
 562 400 561 425 561 451 c 0
 561 648 515 843 489 1038 c 1
 433 832 337 619 333 408 c 1x65
 379 385 511 378 568 375 c 1
600 1321 m 1
 601 1322 l 1
 601 988 752 635 752 332 c 0
 752 319 737 304 737 291 c 0
 737 240 784 100 784 42 c 2
 784 40 l 2
 784 16 774 -9 744 -18 c 1
 680 -18 626 -9 626 50 c 0
 626 64 626 80 626 97 c 0xa480
 626 186 617 305 505 305 c 2
 416 305 l 1
 389 314 358 315 328 315 c 2
 311 315 l 1
 303 255 281 -10 175 -10 c 0
 136 -10 90 12 90 45 c 1
 207 383 302 754 362 1100 c 0
 374 1169 371 1307 419 1363 c 1
 509 1363 l 2
 550 1363 600 1359 600 1321 c 1
EndSplineSet
EndChar

StartChar: ccedilla
Encoding: 231 231 199
Width: 747
Flags: MW
HStem: -538 21G<545.5 634.5> -32 21G<486 632 632 632> -29 108<400.5 529.5 400.5 548> 1256 108<503 543>
VStem: 83 135 331 291 489 133
LayerCount: 2
Fore
SplineSet
462 -191 m 1xba
 484 -157 486 -118 486 -79 c 2
 486 -32 l 1
 632 -32 l 1
 623 -68 618 -88 615 -125 c 1
 761 -146 809 -250 809 -352 c 0
 809 -440 693 -538 576 -538 c 0
 515 -538 430 -515 430 -459 c 0xdc
 430 -434 459 -415 490 -415 c 0
 520 -415 551 -422 576 -435 c 1
 603 -433 636 -395 636 -375 c 0
 636 -340 616 -307 606 -274 c 1
 651 -309 l 1
 651 -300 l 2
 651 -281 649 -262 629 -248 c 1
 603 -251 584 -253 568 -253 c 0
 521 -253 502 -238 462 -191 c 1xba
108 615 m 2
 108 662 l 2
 108 1003 117 1364 563 1364 c 0
 601 1364 640 1340 640 1311 c 2
 640 1303 l 1
 622 1268 575 1256 511 1256 c 0
 495 1256 480 1258 463 1258 c 0
 307 1258 284 913 284 827 c 2
 284 817 l 2
 284 685 267 554 267 422 c 0
 267 286 282 79 519 79 c 0
 540 79 560 86 576 97 c 1
 612 97 657 85 657 52 c 0
 657 -9 588 -29 508 -29 c 0xbc
 134 -29 109 270 109 495 c 0
 109 527 108 569 108 615 c 2
EndSplineSet
EndChar

StartChar: eacute
Encoding: 233 233 200
Width: 681
Flags: MW
HStem: -27 104<344 399 344 479> 693 129<299 464.5> 1748 20G<569 592.5>
VStem: 112 118 112 290 112 333 170 346
LayerCount: 2
Fore
SplineSet
671 1712 m 0xe2
 671 1636 377 1534 310 1480 c 1
 266 1480 221 1495 221 1534 c 2
 221 1536 l 2
 221 1591 507 1723 569 1768 c 1
 616 1768 671 1755 671 1712 c 0xe2
229 -27 m 2
 161 -27 145 10 145 55 c 0
 145 94 157 140 157 174 c 0
 157 261 144 349 144 436 c 0
 144 635 162 835 162 1034 c 0
 162 1092 148 1149 148 1207 c 0
 148 1266 160 1352 260 1352 c 0
 314 1352 578 1323 578 1261 c 0xe4
 578 1229 535 1207 500 1197 c 1
 435 1214 368 1230 299 1236 c 1
 301 1207 303 1177 303 1148 c 0
 303 1050 291 952 291 854 c 0
 291 844 296 832 299 822 c 1xf0
 321 822 357 825 394 825 c 0
 457 825 522 816 522 769 c 0xe8
 522 732 491 693 438 693 c 0
 412 693 383 699 362 711 c 1
 295 711 l 1
 300 659 303 615 303 563 c 0
 303 440 291 315 291 192 c 0
 291 139 301 77 387 77 c 0
 411 77 452 82 492 82 c 0
 544 82 594 73 594 32 c 0
 594 -13 528 -27 479 -27 c 2
 229 -27 l 2
EndSplineSet
EndChar

StartChar: ecircumflex
Encoding: 234 234 201
Width: 681
Flags: MW
HStem: -27 104<343 397.5 343 478> 693 129<298 463.5> 1892 20G<346.5 420.5>
VStem: 111 118 111 290 111 333
LayerCount: 2
Fore
SplineSet
373 1746 m 1xe8
 329 1648 313 1565 226 1481 c 1
 139 1529 l 1
 148 1598 298 1912 395 1912 c 0
 446 1912 463 1879 463 1845 c 0
 463 1759 543 1680 543 1607 c 2
 543 1555 l 1
 546 1548 567 1537 567 1530 c 0
 567 1497 519 1480 482 1480 c 2
 425 1480 l 1
 415 1560 398 1667 373 1746 c 1xe8
227 -27 m 2
 160 -27 144 10 144 55 c 0
 144 94 156 140 156 174 c 0
 156 261 143 349 143 436 c 0
 143 635 161 835 161 1034 c 0
 161 1092 147 1149 147 1207 c 0
 147 1266 159 1352 259 1352 c 0
 313 1352 577 1323 577 1261 c 0xe4
 577 1229 534 1207 499 1197 c 1
 434 1214 367 1230 298 1236 c 1
 300 1207 302 1177 302 1148 c 0
 302 1050 290 952 290 854 c 0
 290 844 295 832 298 822 c 1xf0
 320 822 356 825 393 825 c 0
 456 825 521 816 521 769 c 0
 521 732 490 693 437 693 c 0
 411 693 382 699 361 711 c 1
 294 711 l 1
 299 659 302 615 302 563 c 0
 302 440 290 315 290 192 c 0
 290 139 300 77 386 77 c 0
 409 77 451 82 491 82 c 0
 543 82 593 73 593 32 c 0
 593 -13 526 -27 478 -27 c 2
 227 -27 l 2
EndSplineSet
EndChar

StartChar: edieresis
Encoding: 235 235 202
Width: 681
Flags: MW
HStem: -27 104<343.5 398 343.5 479> 693 129<298 463.5> 1480 144<601.5 641>
VStem: -11 141 111 118 111 290 111 333 409 141
LayerCount: 2
Fore
SplineSet
63 1480 m 0xf1
 12 1480 -14 1510 -14 1547 c 0
 -14 1587 24 1621 77 1621 c 0
 126 1621 169 1591 169 1552 c 0
 169 1510 113 1480 63 1480 c 0xf1
532 1549 m 0
 532 1588 576 1624 627 1624 c 0
 675 1624 715 1587 715 1551 c 0
 715 1509 667 1480 615 1480 c 0
 568 1480 532 1514 532 1549 c 0
228 -27 m 2
 160 -27 145 10 145 55 c 0
 145 94 156 140 156 174 c 0
 156 261 143 349 143 436 c 0
 143 635 162 835 162 1034 c 0
 162 1092 147 1149 147 1207 c 0
 147 1266 159 1352 259 1352 c 0
 314 1352 578 1323 578 1261 c 0xe2
 578 1229 535 1207 500 1197 c 1
 435 1214 367 1230 298 1236 c 1
 301 1207 302 1177 302 1148 c 0
 302 1050 290 952 290 854 c 0
 290 844 295 832 298 822 c 1xe9
 320 822 357 825 393 825 c 0
 457 825 522 816 522 769 c 0xe5
 522 732 490 693 437 693 c 0
 411 693 383 699 362 711 c 1
 294 711 l 1
 299 659 302 615 302 563 c 0
 302 440 290 315 290 192 c 0
 290 139 301 77 386 77 c 0
 410 77 451 82 492 82 c 0
 544 82 593 73 593 32 c 0
 593 -13 527 -27 479 -27 c 2
 228 -27 l 2
EndSplineSet
EndChar

StartChar: egrave
Encoding: 232 232 203
Width: 681
Flags: MW
HStem: -27 104<344 399 344 480> 693 129<299 464.5> 1551 130<-37 50.5>
VStem: -56 382 112 118 112 290 112 333
LayerCount: 2
Fore
SplineSet
-37 1681 m 1xf0
 66 1681 424 1603 424 1520 c 0
 424 1496 390 1480 361 1480 c 0
 320 1480 139 1538 88 1553 c 1
 74 1552 58 1551 43 1551 c 0
 -13 1551 -73 1562 -73 1613 c 0
 -73 1638 -67 1667 -37 1681 c 1xf0
229 -27 m 2
 161 -27 145 10 145 55 c 0
 145 94 157 140 157 174 c 0
 157 261 144 349 144 436 c 0
 144 635 162 835 162 1034 c 0
 162 1092 148 1149 148 1207 c 0
 148 1266 160 1352 260 1352 c 0
 314 1352 578 1323 578 1261 c 0xe2
 578 1229 535 1207 500 1197 c 1
 435 1214 368 1230 299 1236 c 1
 301 1207 303 1177 303 1148 c 0
 303 1050 291 952 291 854 c 0
 291 844 296 832 299 822 c 1xe8
 321 822 357 825 394 825 c 0
 457 825 522 816 522 769 c 0xe4
 522 732 491 693 438 693 c 0
 412 693 383 699 363 711 c 1
 295 711 l 1
 300 659 303 615 303 563 c 0
 303 440 291 315 291 192 c 0
 291 139 301 77 387 77 c 0
 411 77 452 82 493 82 c 0
 545 82 594 73 594 32 c 0
 594 -13 528 -27 480 -27 c 2
 229 -27 l 2
EndSplineSet
EndChar

StartChar: iacute
Encoding: 237 237 204
Width: 725
Flags: MW
HStem: 0 21G<353.5 392> 16 112<439 580.5> 1254 102<135 227 205 218 218 227 227 263.5 205 269> 1748 20G<668 691.5>
VStem: 57 381 220 113 220 277 246 346
LayerCount: 2
Fore
SplineSet
770 1712 m 0x71
 770 1636 476 1534 409 1480 c 1
 365 1480 320 1495 320 1534 c 2
 320 1536 l 2
 320 1591 606 1723 668 1768 c 1
 715 1768 770 1755 770 1712 c 0x71
433 246 m 2x74
 433 185 l 2x74
 433 166 425 147 439 131 c 1
 439 128 l 1
 459 128 507 130 537 130 c 0
 590 130 646 122 646 79 c 0
 646 43 603 16 558 16 c 0x72
 528 16 499 23 469 23 c 0
 448 23 416 0 368 0 c 0
 339 0 308 4 286 20 c 1
 276 19 264 18 253 18 c 0
 213 18 174 26 155 55 c 1
 155 78 169 100 196 110 c 1
 196 118 l 1
 281 118 l 1
 282 127 286 136 286 145 c 0xb4
 286 290 268 435 268 580 c 0
 268 732 282 884 282 1036 c 0
 282 1109 278 1182 269 1254 c 1
 218 1254 l 1
 199 1255 178 1254 157 1254 c 0
 113 1254 74 1262 74 1309 c 0
 74 1353 155 1356 205 1356 c 0
 213 1356 221 1356 227 1356 c 0
 300 1356 569 1355 569 1273 c 0x78
 569 1263 559 1244 554 1235 c 1
 417 1235 l 1
 425 1179 428 1129 428 1072 c 0
 428 942 413 811 413 681 c 0
 413 536 433 391 433 246 c 2x74
EndSplineSet
EndChar

StartChar: icircumflex
Encoding: 238 238 205
Width: 724
Flags: MW
HStem: 0 21G<354.5 393> 16 112<440 581.5> 1254 102<136 228 206 219 219 228 228 264.5 206 270> 1892 20G<391.5 465.5>
VStem: 58 381 221 113 221 277
LayerCount: 2
Fore
SplineSet
418 1746 m 1x74
 374 1648 358 1565 271 1481 c 1
 184 1529 l 1
 193 1598 343 1912 440 1912 c 0
 491 1912 508 1879 508 1845 c 0
 508 1759 589 1680 589 1607 c 2
 589 1555 l 1
 591 1548 612 1537 612 1530 c 0
 612 1497 564 1480 527 1480 c 2
 470 1480 l 1
 460 1560 443 1667 418 1746 c 1x74
434 246 m 2
 434 185 l 2x74
 434 166 426 147 440 131 c 1
 440 128 l 1
 460 128 508 130 538 130 c 0
 591 130 647 122 647 79 c 0
 647 43 604 16 559 16 c 0x72
 529 16 500 23 470 23 c 0
 449 23 417 0 369 0 c 0
 340 0 309 4 287 20 c 1
 277 19 265 18 254 18 c 0
 214 18 175 26 156 55 c 1
 156 78 170 100 197 110 c 1
 197 118 l 1
 282 118 l 1
 283 127 287 136 287 145 c 0xb4
 287 290 269 435 269 580 c 0
 269 732 283 884 283 1036 c 0
 283 1109 279 1182 270 1254 c 1
 219 1254 l 1
 200 1255 179 1254 158 1254 c 0
 114 1254 75 1262 75 1309 c 0
 75 1353 156 1356 206 1356 c 0
 214 1356 222 1356 228 1356 c 0
 301 1356 570 1355 570 1273 c 0x78
 570 1263 560 1244 555 1235 c 1
 418 1235 l 1
 426 1179 429 1129 429 1072 c 0
 429 942 414 811 414 681 c 0
 414 536 434 391 434 246 c 2
EndSplineSet
EndChar

StartChar: idieresis
Encoding: 239 239 206
Width: 724
Flags: MW
HStem: 0 21G<353.5 392> 16 112<439 580.5> 1254 102<135 227 205 218 218 227 227 263.5 205 269> 1480 144<646.5 686>
VStem: 24 141 57 381 220 113 220 277 444 141
LayerCount: 2
Fore
SplineSet
108 1480 m 0x7a80
 57 1480 31 1510 31 1547 c 0
 31 1587 69 1621 122 1621 c 0
 171 1621 214 1591 214 1552 c 0
 214 1510 158 1480 108 1480 c 0x7a80
577 1549 m 0
 577 1588 621 1624 672 1624 c 0
 720 1624 760 1587 760 1551 c 0
 760 1509 712 1480 660 1480 c 0
 613 1480 577 1514 577 1549 c 0
433 246 m 2
 433 185 l 2x7a80
 433 166 425 147 439 131 c 1
 439 128 l 1
 459 128 507 130 537 130 c 0
 590 130 646 122 646 79 c 0
 646 43 603 16 558 16 c 0x79
 528 16 499 23 469 23 c 0
 448 23 416 0 368 0 c 0
 339 0 308 4 286 20 c 1
 275 19 264 18 253 18 c 0
 213 18 174 26 155 55 c 1
 155 78 169 100 196 110 c 1
 196 118 l 1
 281 118 l 1
 282 127 286 136 286 145 c 0xba80
 286 290 268 435 268 580 c 0
 268 732 282 884 282 1036 c 0
 282 1109 278 1182 269 1254 c 1
 218 1254 l 1
 199 1255 178 1254 157 1254 c 0
 113 1254 74 1262 74 1309 c 0
 74 1353 155 1356 205 1356 c 0
 213 1356 221 1356 227 1356 c 0
 300 1356 569 1355 569 1273 c 0x7480
 569 1263 559 1244 554 1235 c 1
 417 1235 l 1
 425 1179 428 1129 428 1072 c 0
 428 942 413 811 413 681 c 0
 413 536 433 391 433 246 c 2
EndSplineSet
EndChar

StartChar: igrave
Encoding: 236 236 207
Width: 724
Flags: MW
HStem: 0 21G<353.5 392> 16 112<439 580> 1254 102<135 227 205 218 218 227 227 263.5 205 269> 1551 130<7 94.5>
VStem: -22 360 57 381 220 113 220 277
LayerCount: 2
Fore
SplineSet
7 1681 m 1x78
 110 1681 468 1603 468 1520 c 0
 468 1496 434 1480 405 1480 c 0
 364 1480 183 1538 132 1553 c 1
 118 1552 102 1551 87 1551 c 0
 31 1551 -29 1562 -29 1613 c 0
 -29 1638 -23 1667 7 1681 c 1x78
433 246 m 2x72
 433 185 l 2x72
 433 166 425 147 439 131 c 1
 439 128 l 1x78
 459 128 507 130 537 130 c 0
 590 130 646 122 646 79 c 0
 646 43 603 16 557 16 c 0x71
 527 16 499 23 469 23 c 0
 448 23 416 0 368 0 c 0
 339 0 308 4 286 20 c 1
 275 19 264 18 253 18 c 0
 213 18 174 26 154 55 c 1
 154 78 169 100 196 110 c 1
 196 118 l 1
 280 118 l 1
 282 127 286 136 286 145 c 0xb2
 286 290 267 435 267 580 c 0
 267 732 282 884 282 1036 c 0
 282 1109 278 1182 269 1254 c 1
 218 1254 l 1
 199 1255 178 1254 157 1254 c 0
 113 1254 74 1262 74 1309 c 0
 74 1353 154 1356 205 1356 c 0
 213 1356 221 1356 227 1356 c 0
 300 1356 569 1355 569 1273 c 0x74
 569 1263 559 1244 553 1235 c 1
 417 1235 l 1
 425 1179 427 1129 427 1072 c 0
 427 942 413 811 413 681 c 0
 413 536 433 391 433 246 c 2x72
EndSplineSet
EndChar

StartChar: ntilde
Encoding: 241 241 208
Width: 1307
Flags: MW
HStem: -28 21G<867 973> -26 21G<974 1062> -19 21G<191 251.5> 1481 227<555 923> 1564 20G<825 846> 1687 20G<943.5 989>
VStem: 109 108 325 481 770 128
LayerCount: 2
Fore
SplineSet
423 1539 m 0x53
 423 1627 493 1708 617 1708 c 1x53
 749 1656 l 1
 762 1629 804 1584 846 1584 c 1
 846 1585 l 1
 869 1601 914 1604 914 1630 c 0
 914 1643 900 1660 898 1675 c 1
 909 1693 930 1707 957 1707 c 0x4f
 1021 1707 1048 1655 1048 1613 c 0
 1048 1542 969 1481 877 1481 c 0
 766 1481 687 1548 621 1607 c 1
 621 1609 l 1
 552 1578 l 1
 552 1480 l 1
 504 1480 423 1497 423 1539 c 0x53
974 -26 m 1
 973 -28 l 1x93
 761 -28 359 997 283 1113 c 1
 283 807 l 2
 283 693 303 439 303 277 c 2
 303 45 l 2
 303 11 274 -19 229 -19 c 0
 153 -19 142 63 142 106 c 0
 142 347 137 588 137 829 c 0
 137 956 153 1084 153 1211 c 2
 153 1219 l 2
 153 1258 157 1349 250 1349 c 0
 504 1349 905 306 1002 153 c 1
 1015 510 1017 869 1017 1228 c 0
 1017 1244 1011 1264 1011 1283 c 0
 1011 1315 1024 1344 1080 1344 c 0
 1134 1344 1168 1302 1168 1264 c 0x3280
 1168 1212 1172 1087 1172 935 c 0
 1172 545 1150 -26 974 -26 c 1
EndSplineSet
EndChar

StartChar: oacute
Encoding: 243 243 209
Width: 1122
Flags: MW
HStem: -38 86<409 675 409 765> 1270 83<436 437 436 490.5 436 497> 1748 20G<723 746.5>
VStem: 84 114 288 346 644 117
LayerCount: 2
Fore
SplineSet
824 1712 m 0
 824 1636 531 1534 464 1480 c 1
 420 1480 375 1495 375 1534 c 2
 375 1536 l 2
 375 1591 661 1723 723 1768 c 1
 770 1768 824 1755 824 1712 c 0
437 1353 m 1
 436 1353 l 1
 882 1277 989 1108 989 798 c 2
 989 551 l 2
 989 368 971 -38 559 -38 c 0
 148 -38 109 410 109 626 c 0
 109 672 108 715 108 751 c 0
 108 758 108 772 108 791 c 0
 108 931 122 1345 437 1353 c 1
259 913 m 1
 258 913 l 1
 258 848 256 783 256 718 c 0
 256 614 278 48 540 48 c 0
 810 48 837 455 837 565 c 0
 837 616 844 692 844 776 c 0
 844 997 802 1270 497 1270 c 0
 494 1270 492 1270 489 1270 c 0
 285 1270 255 1144 255 1034 c 0
 255 987 259 943 259 913 c 1
EndSplineSet
EndChar

StartChar: ocircumflex
Encoding: 244 244 210
Width: 1122
Flags: MW
HStem: -38 86<409 675 409 765> 1270 83<436 437 436 490.5 436 497> 1892 20G<554.5 628.5>
VStem: 84 114 644 117
LayerCount: 2
Fore
SplineSet
581 1746 m 1
 537 1648 521 1565 434 1481 c 1
 347 1529 l 1
 356 1598 506 1912 603 1912 c 0
 654 1912 671 1879 671 1845 c 0
 671 1759 752 1680 752 1607 c 2
 752 1555 l 1
 754 1548 775 1537 775 1530 c 0
 775 1497 727 1480 690 1480 c 2
 633 1480 l 1
 623 1560 606 1667 581 1746 c 1
437 1353 m 1
 436 1353 l 1
 882 1277 989 1108 989 798 c 2
 989 551 l 2
 989 368 971 -38 559 -38 c 0
 148 -38 109 410 109 626 c 0
 109 672 108 715 108 751 c 0
 108 758 108 772 108 791 c 0
 108 931 122 1345 437 1353 c 1
259 913 m 1
 258 913 l 1
 258 848 256 783 256 718 c 0
 256 614 278 48 540 48 c 0
 810 48 837 455 837 565 c 0
 837 616 844 692 844 776 c 0
 844 997 802 1270 497 1270 c 0
 494 1270 492 1270 489 1270 c 0
 285 1270 255 1144 255 1034 c 0
 255 987 259 943 259 913 c 1
EndSplineSet
EndChar

StartChar: odieresis
Encoding: 246 246 211
Width: 1122
Flags: MW
HStem: -38 86<409 675 409 765> 1270 83<436 437 436 490.5 436 497> 1480 144<809.5 849>
VStem: 84 114 149 141 569 141 644 117
LayerCount: 2
Fore
SplineSet
271 1480 m 0xec
 220 1480 194 1510 194 1547 c 0
 194 1587 232 1621 285 1621 c 0
 334 1621 377 1591 377 1552 c 0
 377 1510 321 1480 271 1480 c 0xec
740 1549 m 0
 740 1588 784 1624 835 1624 c 0
 883 1624 923 1587 923 1551 c 0
 923 1509 875 1480 823 1480 c 0
 776 1480 740 1514 740 1549 c 0
437 1353 m 1
 436 1353 l 1
 882 1277 989 1108 989 798 c 2
 989 551 l 2
 989 368 971 -38 559 -38 c 0
 148 -38 109 410 109 626 c 0xf2
 109 672 108 715 108 751 c 0
 108 758 108 772 108 791 c 0
 108 931 122 1345 437 1353 c 1
259 913 m 1
 258 913 l 1
 258 848 256 783 256 718 c 0
 256 614 278 48 540 48 c 0
 810 48 837 455 837 565 c 0
 837 616 844 692 844 776 c 0
 844 997 802 1270 497 1270 c 0
 494 1270 492 1270 489 1270 c 0
 285 1270 255 1144 255 1034 c 0
 255 987 259 943 259 913 c 1
EndSplineSet
EndChar

StartChar: ograve
Encoding: 242 242 212
Width: 1122
Flags: MW
HStem: -38 86<409 675 409 765> 1270 83<436 437 436 490.5 436 497> 1551 130<170 257.5>
VStem: 84 114 84 401 644 117
LayerCount: 2
Fore
SplineSet
170 1681 m 1xec
 273 1681 631 1603 631 1520 c 0
 631 1496 597 1480 568 1480 c 0
 527 1480 346 1538 295 1553 c 1
 281 1552 265 1551 250 1551 c 0
 194 1551 134 1562 134 1613 c 0
 134 1638 141 1667 170 1681 c 1xec
437 1353 m 1
 436 1353 l 1
 882 1277 989 1108 989 798 c 2
 989 551 l 2
 989 368 971 -38 559 -38 c 0
 148 -38 109 410 109 626 c 0
 109 672 108 715 108 751 c 0
 108 758 108 772 108 791 c 0
 108 931 122 1345 437 1353 c 1
259 913 m 1
 258 913 l 1xf4
 258 848 256 783 256 718 c 0
 256 614 278 48 540 48 c 0
 810 48 837 455 837 565 c 0
 837 616 844 692 844 776 c 0
 844 997 802 1270 497 1270 c 0
 494 1270 492 1270 489 1270 c 0
 285 1270 255 1144 255 1034 c 0
 255 987 259 943 259 913 c 1
EndSplineSet
EndChar

StartChar: otilde
Encoding: 245 245 213
Width: 1121
Flags: MW
HStem: -38 86<410 676 410 766> 1270 83<437 438 437 491.5 437 498> 1481 227<377.5 745.5> 1564 20G<647 668> 1687 20G<766.5 812>
VStem: 85 114 189 481 645 117
LayerCount: 2
Fore
SplineSet
246 1539 m 0xe2
 246 1627 316 1708 439 1708 c 1xe2
 572 1656 l 1
 585 1629 626 1584 668 1584 c 1
 668 1585 l 1
 691 1601 737 1604 737 1630 c 0
 737 1643 723 1660 720 1675 c 1
 732 1693 753 1707 780 1707 c 0xdd
 844 1707 871 1655 871 1613 c 0
 871 1542 792 1481 699 1481 c 0
 589 1481 509 1548 443 1607 c 1
 443 1609 l 1
 374 1578 l 1
 374 1480 l 1
 326 1480 246 1497 246 1539 c 0xe2
438 1353 m 1
 437 1353 l 1
 883 1277 990 1108 990 798 c 2
 990 551 l 2
 990 368 972 -38 560 -38 c 0
 149 -38 110 410 110 626 c 0xe5
 110 672 109 715 109 751 c 0
 109 758 109 772 109 791 c 0
 109 931 123 1345 438 1353 c 1
260 913 m 1
 259 913 l 1
 259 848 257 783 257 718 c 0
 257 614 279 48 541 48 c 0
 811 48 838 455 838 565 c 0
 838 616 845 692 845 776 c 0
 845 997 803 1270 498 1270 c 0
 495 1270 493 1270 490 1270 c 0
 286 1270 256 1144 256 1034 c 0
 256 987 260 943 260 913 c 1
EndSplineSet
EndChar

StartChar: scaron
Encoding: 353 353 214
Width: 658
Flags: MW
HStem: -27 21G<243 243> -22 94<243 243> 1262 120<261 431> 1484 404<273 409> 1892 20G<152 152>
VStem: 83 101 83 287 329 100
LayerCount: 2
Fore
SplineSet
482 1834 m 1x7d
 485 1798 l 2
 485 1797 468 1796 468 1795 c 0
 468 1769 388 1603 388 1550 c 0
 388 1516 372 1484 321 1484 c 0
 225 1484 75 1797 66 1865 c 1
 152 1912 l 1
 221 1841 l 1
 222 1800 277 1690 297 1647 c 1
 323 1726 342 1807 352 1888 c 1
 409 1888 l 2
 411 1888 412 1888 413 1888 c 0
 426 1888 440 1889 453 1889 c 0
 474 1889 491 1885 491 1865 c 0
 491 1855 485 1843 482 1834 c 1x7d
239 1076 m 0
 239 812 557 690 557 343 c 0
 557 192 482 -18 243 -22 c 1x7d
 243 -27 l 1xbd
 186 -21 115 4 108 52 c 1
 108 87 l 1
 144 83 210 72 248 72 c 0
 392 72 427 287 427 368 c 0x7d
 427 632 109 791 109 1087 c 0
 109 1195 173 1382 349 1382 c 0
 407 1382 481 1350 481 1301 c 0x7a
 481 1274 446 1262 416 1262 c 0
 398 1262 375 1267 360 1274 c 1
 271 1272 239 1128 239 1076 c 0
EndSplineSet
EndChar

StartChar: uacute
Encoding: 250 250 215
Width: 1024
Flags: MW
HStem: -31 62<512 515 515 622.5> 1759 20G<796 819>
VStem: 101 92 112 81 344 347 573 118
LayerCount: 2
Fore
SplineSet
897 1723 m 0xe8
 897 1647 603 1545 537 1491 c 1
 493 1491 447 1506 447 1545 c 2
 447 1547 l 2
 447 1602 733 1734 796 1779 c 1
 842 1779 897 1766 897 1723 c 0xe8
515 31 m 2
 512 31 l 2
 733 31 745 848 745 1190 c 0
 745 1241 745 1281 745 1307 c 0
 745 1319 744 1330 744 1341 c 0
 744 1369 753 1389 816 1389 c 0
 894 1389 898 1336 898 1290 c 0
 898 1221 880 1151 880 1084 c 0
 880 1027 868 970 868 913 c 0
 868 901 871 890 871 878 c 1
 814 672 915 -31 478 -31 c 0
 164 -31 131 257 131 473 c 0xe4
 131 693 146 821 146 1013 c 0xd8
 146 1114 139 1213 113 1306 c 1
 113 1355 l 1
 204 1355 251 1289 251 1232 c 2
 251 241 l 2
 251 152 324 31 515 31 c 2
EndSplineSet
EndChar

StartChar: ucircumflex
Encoding: 251 251 216
Width: 1024
Flags: MW
HStem: -31 62<513 516 516 623.5> 1903 20G<519 593>
VStem: 102 92 113 81 574 118
LayerCount: 2
Fore
SplineSet
546 1757 m 1xe8
 501 1659 486 1576 399 1492 c 1
 312 1540 l 1
 321 1609 470 1923 568 1923 c 0
 618 1923 635 1890 635 1856 c 0
 635 1770 716 1691 716 1618 c 2
 716 1566 l 1
 719 1559 739 1548 739 1541 c 0
 739 1508 691 1491 655 1491 c 2
 598 1491 l 1
 587 1571 570 1678 546 1757 c 1xe8
516 31 m 2
 513 31 l 2
 734 31 746 848 746 1190 c 0
 746 1241 746 1281 746 1307 c 0
 746 1319 745 1330 745 1341 c 0
 745 1369 754 1389 817 1389 c 0
 895 1389 899 1336 899 1290 c 0
 899 1221 881 1151 881 1084 c 0
 881 1027 869 970 869 913 c 0
 869 901 872 890 872 878 c 1
 815 672 916 -31 479 -31 c 0
 165 -31 132 257 132 473 c 0xe8
 132 693 147 821 147 1013 c 0xd8
 147 1114 140 1213 114 1306 c 1
 114 1355 l 1
 205 1355 252 1289 252 1232 c 2
 252 241 l 2
 252 152 325 31 516 31 c 2
EndSplineSet
EndChar

StartChar: udieresis
Encoding: 252 252 217
Width: 1024
Flags: MW
HStem: -31 62<513 516 516 623.5> 1491 144<773.5 813>
VStem: 102 92 102 161 542 150 574 118
LayerCount: 2
Fore
SplineSet
235 1491 m 0xd8
 184 1491 158 1521 158 1558 c 0
 158 1598 196 1632 249 1632 c 0
 299 1632 342 1602 342 1563 c 0
 342 1521 286 1491 235 1491 c 0xd8
704 1560 m 0
 704 1599 748 1635 799 1635 c 0
 847 1635 888 1598 888 1562 c 0
 888 1520 839 1491 787 1491 c 0
 741 1491 704 1525 704 1560 c 0
516 31 m 2
 513 31 l 2
 734 31 746 848 746 1190 c 0
 746 1241 746 1281 746 1307 c 0
 746 1319 745 1330 745 1341 c 0
 745 1369 754 1389 817 1389 c 0
 895 1389 899 1336 899 1290 c 0
 899 1221 881 1151 881 1084 c 0
 881 1027 869 970 869 913 c 0
 869 901 872 890 872 878 c 1
 815 672 916 -31 479 -31 c 0
 165 -31 132 257 132 473 c 0
 132 693 147 821 147 1013 c 0
 147 1114 140 1213 114 1306 c 1
 114 1355 l 1
 205 1355 252 1289 252 1232 c 2
 252 241 l 2xe4
 252 152 325 31 516 31 c 2
EndSplineSet
EndChar

StartChar: ugrave
Encoding: 249 249 218
Width: 1024
Flags: MW
HStem: -31 62<512 515 515 622.5> 1562 130<471 471.5 420 507>
VStem: 101 92 112 81 295 396 573 118
LayerCount: 2
Fore
SplineSet
420 1692 m 1xe8
 523 1692 880 1614 880 1531 c 0
 880 1507 846 1491 818 1491 c 0
 776 1491 595 1549 545 1564 c 1
 530 1563 515 1562 499 1562 c 0
 443 1562 383 1573 383 1624 c 0
 383 1649 390 1678 420 1692 c 1xe8
515 31 m 2
 512 31 l 2
 733 31 745 848 745 1190 c 0
 745 1241 745 1281 745 1307 c 0
 745 1319 744 1330 744 1341 c 0
 744 1369 753 1389 816 1389 c 0
 894 1389 898 1336 898 1290 c 0
 898 1221 880 1151 880 1084 c 0
 880 1027 868 970 868 913 c 0
 868 901 871 890 871 878 c 1
 814 672 915 -31 478 -31 c 0
 164 -31 131 257 131 473 c 0xe4
 131 693 146 821 146 1013 c 0xd8
 146 1114 139 1213 113 1306 c 1
 113 1355 l 1
 204 1355 251 1289 251 1232 c 2
 251 241 l 2
 251 152 324 31 515 31 c 2
EndSplineSet
EndChar

StartChar: yacute
Encoding: 253 253 219
Width: 763
Flags: MW
HStem: -28 21G<398.5 456.5> 1748 20G<678 701.5>
VStem: 62 444 253 346 286 97
LayerCount: 2
Fore
SplineSet
779 1712 m 0xd0
 779 1636 485 1534 419 1480 c 1
 375 1480 329 1495 329 1534 c 2
 329 1536 l 2
 329 1591 615 1723 678 1768 c 1
 725 1768 779 1755 779 1712 c 0xd0
372 364 m 0xc8
 372 689 81 1040 81 1288 c 2
 81 1299 l 1
 141 1333 l 1
 244 1331 351 951 385 877 c 1
 424 954 476 1362 593 1362 c 0
 624 1362 658 1346 658 1319 c 0xe0
 658 1118 498 932 498 726 c 2
 498 109 l 2
 498 53 497 -28 416 -28 c 0
 381 -28 355 -6 342 17 c 1
 372 62 372 300 372 364 c 0xc8
EndSplineSet
EndChar

StartChar: ydieresis
Encoding: 255 255 220
Width: 762
Flags: MW
HStem: -28 21G<399.5 457.5> 1480 144<655.5 695>
VStem: 31 141 63 444 287 97 451 141
LayerCount: 2
Fore
SplineSet
117 1480 m 0xec
 66 1480 40 1510 40 1547 c 0
 40 1587 78 1621 131 1621 c 0
 180 1621 223 1591 223 1552 c 0
 223 1510 167 1480 117 1480 c 0xec
586 1549 m 0
 586 1588 630 1624 681 1624 c 0
 729 1624 769 1587 769 1551 c 0
 769 1509 721 1480 669 1480 c 0
 622 1480 586 1514 586 1549 c 0
373 364 m 0
 373 689 82 1040 82 1288 c 2
 82 1299 l 1
 141 1333 l 1
 244 1331 352 951 386 877 c 1
 425 954 477 1362 594 1362 c 0
 625 1362 659 1346 659 1319 c 0xd0
 659 1118 499 932 499 726 c 2
 499 109 l 2
 499 53 498 -28 417 -28 c 0
 382 -28 356 -6 343 17 c 1
 373 62 373 300 373 364 c 0
EndSplineSet
EndChar

StartChar: zcaron
Encoding: 382 382 221
Width: 723
Flags: MW
HStem: -3 21G<148 184.5> 13 95 1257 103 1481 404<497 633> 1889 20G<376 376>
VStem: 73 116 156 326 376 106
LayerCount: 2
Fore
SplineSet
706 1831 m 1x7a
 709 1795 l 2
 709 1794 692 1793 692 1792 c 0
 692 1766 612 1600 612 1547 c 0
 612 1513 596 1481 545 1481 c 0
 449 1481 299 1794 290 1862 c 1
 376 1909 l 1
 445 1838 l 1
 446 1797 501 1687 521 1644 c 1
 547 1723 566 1804 576 1885 c 1
 633 1885 l 2
 635 1885 636 1885 637 1885 c 0
 650 1885 664 1886 677 1886 c 0
 698 1886 715 1882 715 1862 c 0
 715 1852 709 1840 706 1831 c 1x7a
627 1303 m 0
 627 909 267 515 246 108 c 1
 291 108 l 2
 329 108 365 112 403 112 c 1
 403 113 l 1
 449 113 511 110 511 63 c 0
 511 26 458 13 419 13 c 0x7d
 367 13 313 19 261 19 c 0
 226 19 202 -3 167 -3 c 0
 129 -3 95 19 95 49 c 0
 95 458 464 855 489 1257 c 1xbd
 416 1255 345 1245 272 1245 c 0
 233 1245 203 1273 203 1302 c 0
 203 1357 389 1360 473 1360 c 0
 480 1360 488 1360 495 1360 c 0
 546 1360 627 1356 627 1303 c 0
EndSplineSet
EndChar

StartChar: foursuperior
Encoding: 8308 8308 222
Width: 742
Flags: MW
HStem: -37 21G<475 529.5> 1524 20G<192 235>
VStem: 96 81 127 118 274 105 305 105 305 122 305 220
LayerCount: 2
Fore
SplineSet
397 587 m 1xd2
 397 590 l 2xe2
 397 783 356 986 356 1162 c 0
 356 1193 405 1208 438 1208 c 1
 493 1172 l 1
 493 1139 493 1106 493 1073 c 0xe8
 493 914 496 754 527 597 c 1
 546 598 575 602 603 602 c 0
 644 602 683 594 683 558 c 0xe1
 683 514 642 508 596 508 c 0
 576 508 533 506 533 490 c 0xe4
 533 437 541 191 561 156 c 1
 558 144 555 131 555 118 c 0
 555 104 558 90 568 77 c 1
 568 40 l 2
 568 10 554 -37 505 -37 c 0
 445 -37 425 24 425 60 c 2
 425 67 l 1
 434 91 434 116 434 141 c 0
 434 208 415 273 415 340 c 0
 415 370 418 399 418 429 c 0
 418 450 416 471 412 492 c 1
 364 490 290 481 230 481 c 1
 230 480 l 1
 190 480 156 494 125 513 c 1
 125 540 128 566 137 592 c 1
 128 629 125 667 125 707 c 0xe2
 125 845 165 992 165 1125 c 2
 165 1504 l 2
 165 1526 168 1544 216 1544 c 0
 254 1544 319 1525 319 1493 c 0
 319 1441 299 1387 299 1334 c 0
 299 1309 303 1284 316 1260 c 1
 316 1253 l 1
 320 1239 321 1224 321 1209 c 0
 321 1187 319 1165 319 1143 c 0
 319 969 258 796 258 622 c 0
 258 607 260 591 264 576 c 1
 317 577 364 581 397 587 c 1xd2
EndSplineSet
EndChar

StartChar: uni00AD
Encoding: 173 173 223
Width: 855
Flags: MW
HStem: 656 21G<211.5 271> 778 20G<595 653.5>
VStem: 112 442
LayerCount: 2
Fore
SplineSet
721 739 m 0
 721 666 309 656 233 656 c 0
 190 656 146 680 146 715 c 0
 146 787 558 798 632 798 c 0
 675 798 721 775 721 739 c 0
EndSplineSet
EndChar

StartChar: Amacron
Encoding: 256 256 224
Width: 928
Flags: MW
HStem: -1 21G<634 634> 1691 96 1771 20G<576.5 682.5>
VStem: 242 442 486 38 488 36
LayerCount: 2
Fore
SplineSet
889 1736 m 0xb0
 889 1699 842 1691 803 1691 c 0
 777 1691 698 1687 611 1687 c 0
 473 1687 314 1696 314 1743 c 0
 314 1784 394 1787 431 1787 c 0xd0
 457 1787 534 1791 619 1791 c 0
 746 1791 889 1782 889 1736 c 0xb0
79 64 m 1
 498 1544 l 1
 681 1526 l 1
 834 21 l 1
 772 9 717 1 634 -1 c 1
 634 321 l 1xc4
 327 373 l 1
 221 23 l 1
 79 64 l 1
632 448 m 1xc8
 570 1298 l 1
 572 1316 l 1
 344 465 l 1
 581 442 l 1
 632 448 l 1xc8
EndSplineSet
EndChar

StartChar: amacron
Encoding: 257 257 225
Width: 886
Flags: MW
HStem: -18 21G<712 744> -10 21G<155.5 228> 1484 96 1564 20G<525 631>
VStem: 202 442 431 147 481 97
LayerCount: 2
Fore
SplineSet
838 1529 m 0x58
 838 1492 791 1484 752 1484 c 0x64
 726 1484 646 1480 559 1480 c 0
 422 1480 263 1489 263 1536 c 0
 263 1577 342 1580 380 1580 c 0x68
 406 1580 483 1584 567 1584 c 0
 695 1584 838 1575 838 1529 c 0x58
568 375 m 1
 562 400 561 425 561 451 c 0x64
 561 648 515 843 489 1038 c 1
 433 832 337 619 333 408 c 1
 379 385 511 378 568 375 c 1
600 1321 m 1
 601 1322 l 1
 601 988 752 635 752 332 c 0
 752 319 737 304 737 291 c 0
 737 240 784 100 784 42 c 2
 784 40 l 2
 784 16 774 -9 744 -18 c 1
 680 -18 626 -9 626 50 c 0
 626 64 626 80 626 97 c 0xa2
 626 186 617 305 505 305 c 2
 416 305 l 1
 389 314 358 315 328 315 c 2
 311 315 l 1
 303 255 281 -10 175 -10 c 0
 136 -10 90 12 90 45 c 1
 207 383 302 754 362 1100 c 0
 374 1169 371 1307 419 1363 c 1
 509 1363 l 2
 550 1363 600 1359 600 1321 c 1
EndSplineSet
EndChar

StartChar: Abreve
Encoding: 258 258 226
Width: 928
Flags: MW
HStem: -1 21G<636 636> 1687 275<410 656>
VStem: 489 36
LayerCount: 2
Fore
SplineSet
803 1868 m 1
 803 1851 l 1
 754 1765 727 1687 585 1687 c 0
 420 1687 361 1812 361 1920 c 2
 361 1930 l 1
 410 1962 l 1
 502 1962 479 1821 552 1782 c 1
 608 1782 l 2
 635 1782 669 1845 669 1863 c 0
 669 1908 669 1953 744 1953 c 0
 780 1953 814 1930 814 1901 c 0
 814 1895 805 1875 803 1868 c 1
81 64 m 1
 500 1544 l 1
 683 1526 l 1
 836 21 l 1
 774 9 719 1 636 -1 c 1
 636 321 l 1
 329 373 l 1
 223 23 l 1
 81 64 l 1
634 448 m 1
 572 1298 l 1
 574 1316 l 1
 346 465 l 1
 583 442 l 1
 634 448 l 1
EndSplineSet
EndChar

StartChar: abreve
Encoding: 259 259 227
Width: 885
Flags: MW
HStem: -18 21G<712 744> -10 21G<155.5 228> 1480 275<357 603> 1555 20G<498 554 554 567.5>
VStem: 236 342 431 147 481 97
LayerCount: 2
Fore
SplineSet
749 1661 m 1x58
 749 1644 l 1
 701 1558 674 1480 532 1480 c 0
 367 1480 307 1605 307 1713 c 2
 307 1723 l 1
 357 1755 l 1x68
 449 1755 425 1614 498 1575 c 1
 554 1575 l 2
 581 1575 615 1638 615 1656 c 0
 615 1701 615 1746 691 1746 c 0
 727 1746 761 1723 761 1694 c 0
 761 1688 752 1668 749 1661 c 1x58
568 375 m 1
 562 400 561 425 561 451 c 0x64
 561 648 515 843 489 1038 c 1
 433 832 337 619 333 408 c 1
 379 385 511 378 568 375 c 1
600 1321 m 1
 601 1322 l 1
 601 988 752 635 752 332 c 0
 752 319 737 304 737 291 c 0
 737 240 784 100 784 42 c 2
 784 40 l 2
 784 16 774 -9 744 -18 c 1
 680 -18 626 -9 626 50 c 0
 626 64 626 80 626 97 c 0xa2
 626 186 617 305 505 305 c 2
 416 305 l 1
 389 314 358 315 328 315 c 2
 311 315 l 1
 303 255 281 -10 175 -10 c 0
 136 -10 90 12 90 45 c 1
 207 383 302 754 362 1100 c 0
 374 1169 371 1307 419 1363 c 1
 509 1363 l 2
 550 1363 600 1359 600 1321 c 1
EndSplineSet
EndChar

StartChar: Aogonek
Encoding: 260 260 228
Width: 1003
Flags: MW
HStem: -372 65<650 677.5> 1524 20G<497 497>
VStem: 414 70 485 38 487 36
LayerCount: 2
Fore
SplineSet
859 14 m 1xe8
 767 -45 629 -151 629 -256 c 0
 629 -272 636 -307 664 -307 c 0
 705 -307 744 -292 776 -274 c 1
 776 -308 l 2
 776 -348 698 -372 657 -372 c 0
 580 -372 538 -319 538 -265 c 0
 538 -147 664 -44 788 14 c 1
 859 14 l 1xe8
78 64 m 1
 497 1544 l 1
 680 1526 l 1
 833 21 l 1
 771 9 716 1 633 -1 c 1
 633 321 l 1
 326 373 l 1
 220 23 l 1
 78 64 l 1
631 448 m 1xf0
 569 1298 l 1
 571 1316 l 1
 343 465 l 1
 580 442 l 1
 631 448 l 1xf0
EndSplineSet
EndChar

StartChar: aogonek
Encoding: 261 261 229
Width: 996
Flags: MW
HStem: -392 65<670 697> -327 309<670 744> -10 21G<155.5 228> -6 21G<808 879 879 879> 1343 20G<419 509 509 529.5>
VStem: 256 175 431 68 481 97 481 122
LayerCount: 2
Fore
SplineSet
879 -6 m 1x9a
 787 -65 649 -171 649 -276 c 0
 649 -292 656 -327 684 -327 c 0
 724 -327 763 -312 796 -294 c 1
 796 -328 l 2
 796 -368 718 -392 676 -392 c 0
 600 -392 558 -339 558 -285 c 0
 558 -167 684 -64 808 -6 c 1
 879 -6 l 1x9a
568 375 m 1
 562 400 561 425 561 451 c 0
 561 648 515 843 489 1038 c 1
 433 832 337 619 333 408 c 1x6c80
 379 385 511 378 568 375 c 1
600 1321 m 1
 601 1322 l 1
 601 988 752 635 752 332 c 0x9d
 752 319 737 304 737 291 c 0
 737 240 784 100 784 42 c 2
 784 40 l 2
 784 16 774 -9 744 -18 c 1
 680 -18 626 -9 626 50 c 0
 626 64 626 80 626 97 c 0
 626 186 617 305 505 305 c 2
 416 305 l 1
 389 314 358 315 328 315 c 2
 311 315 l 1
 303 255 281 -10 175 -10 c 0
 136 -10 90 12 90 45 c 1
 207 383 302 754 362 1100 c 0
 374 1169 371 1307 419 1363 c 1
 509 1363 l 2
 550 1363 600 1359 600 1321 c 1
EndSplineSet
EndChar

StartChar: Cacute
Encoding: 262 262 230
Width: 898
Flags: MW
HStem: -33 21G<523 591.5> -32 125<409.5 523> 1441 125<551 585.5 435 593 551 551> 1955 20G<732 755.5>
VStem: 87 119 87 479 295 331
LayerCount: 2
Fore
SplineSet
833 1919 m 0xba
 833 1843 539 1741 473 1687 c 1
 429 1687 383 1702 383 1741 c 2
 383 1743 l 2
 383 1798 669 1930 732 1975 c 1
 779 1975 833 1962 833 1919 c 0xba
523 -33 m 1
 523 -32 l 1
 149 -32 113 426 113 793 c 0
 113 883 116 967 116 1038 c 0
 116 1101 118 1165 134 1227 c 1
 129 1249 126 1271 126 1291 c 0
 126 1464 320 1566 550 1566 c 0
 621 1566 736 1532 736 1466 c 0x74
 736 1435 698 1420 662 1420 c 0
 636 1420 607 1427 593 1445 c 1
 593 1441 l 1
 551 1441 l 1
 551 1449 l 1
 295 1449 268 1295 268 1141 c 0
 268 1094 276 1047 276 1000 c 0
 276 952 252 905 252 857 c 2
 252 810 l 2
 252 553 261 93 558 93 c 0x7a
 623 93 686 113 729 152 c 1
 758 152 786 155 814 162 c 1
 814 135 l 2
 814 4 660 -33 523 -33 c 1
EndSplineSet
EndChar

StartChar: cacute
Encoding: 263 263 231
Width: 747
Flags: MW
HStem: -29 108<400.5 529.5 400.5 548> 1256 108<503 543> 1748 20G<655 678.5>
VStem: 83 135 236 346
LayerCount: 2
Fore
SplineSet
757 1712 m 0
 757 1636 463 1534 397 1480 c 1
 352 1480 307 1495 307 1534 c 2
 307 1536 l 2
 307 1591 593 1723 655 1768 c 1
 702 1768 757 1755 757 1712 c 0
108 615 m 2
 108 662 l 2
 108 1003 117 1364 563 1364 c 0
 601 1364 640 1340 640 1311 c 2
 640 1303 l 1xf8
 622 1268 575 1256 511 1256 c 0
 495 1256 480 1258 463 1258 c 0
 307 1258 284 913 284 827 c 2
 284 817 l 2
 284 685 267 554 267 422 c 0
 267 286 282 79 519 79 c 0
 540 79 560 86 576 97 c 1
 612 97 657 85 657 52 c 0
 657 -9 588 -29 508 -29 c 0
 134 -29 109 270 109 495 c 0
 109 527 108 569 108 615 c 2
EndSplineSet
EndChar

StartChar: Ccircumflex
Encoding: 264 264 232
Width: 898
Flags: MW
HStem: -33 21G<524 592.5> -32 125<410.5 524> 1441 125<552 586.5 436 594 552 552> 2099 20G<455.5 529.5>
VStem: 88 119 88 414 88 479
LayerCount: 2
Fore
SplineSet
482 1953 m 1xb4
 438 1855 422 1772 335 1688 c 1
 248 1736 l 1
 257 1805 407 2119 504 2119 c 0
 555 2119 572 2086 572 2052 c 0
 572 1966 652 1887 652 1814 c 2
 652 1762 l 1
 655 1755 676 1744 676 1737 c 0
 676 1704 628 1687 591 1687 c 2
 534 1687 l 1
 524 1767 507 1874 482 1953 c 1xb4
524 -33 m 1
 524 -32 l 1
 150 -32 114 426 114 793 c 0
 114 883 117 967 117 1038 c 0
 117 1101 119 1165 135 1227 c 1
 130 1249 127 1271 127 1291 c 0
 127 1464 321 1566 551 1566 c 0
 622 1566 737 1532 737 1466 c 0x72
 737 1435 699 1420 663 1420 c 0
 637 1420 608 1427 594 1445 c 1
 594 1441 l 1
 552 1441 l 1
 552 1449 l 1
 296 1449 269 1295 269 1141 c 0
 269 1094 277 1047 277 1000 c 0
 277 952 253 905 253 857 c 2
 253 810 l 2
 253 553 262 93 559 93 c 0x78
 624 93 687 113 730 152 c 1
 759 152 787 155 815 162 c 1
 815 135 l 2
 815 4 661 -33 524 -33 c 1
EndSplineSet
EndChar

StartChar: ccircumflex
Encoding: 265 265 233
Width: 747
Flags: MW
HStem: -29 108<400.5 529.5 400.5 548> 1256 108<503 543> 1892 20G<379 453.5>
VStem: 83 135
LayerCount: 2
Fore
SplineSet
406 1746 m 1
 362 1648 346 1565 259 1481 c 1
 172 1529 l 1
 181 1598 330 1912 428 1912 c 0
 479 1912 495 1879 495 1845 c 0
 495 1759 576 1680 576 1607 c 2
 576 1555 l 1
 579 1548 599 1537 599 1530 c 0
 599 1497 551 1480 515 1480 c 2
 458 1480 l 1
 447 1560 430 1667 406 1746 c 1
108 615 m 2
 108 662 l 2
 108 1003 117 1364 563 1364 c 0
 601 1364 640 1340 640 1311 c 2
 640 1303 l 1xf0
 622 1268 575 1256 511 1256 c 0
 495 1256 480 1258 463 1258 c 0
 307 1258 284 913 284 827 c 2
 284 817 l 2
 284 685 267 554 267 422 c 0
 267 286 282 79 519 79 c 0
 540 79 560 86 576 97 c 1
 612 97 657 85 657 52 c 0
 657 -9 588 -29 508 -29 c 0
 134 -29 109 270 109 495 c 0
 109 527 108 569 108 615 c 2
EndSplineSet
EndChar

StartChar: Cdotaccent
Encoding: 266 266 234
Width: 899
Flags: MW
HStem: -33 21G<523 591.5> -32 125<409.5 523> 1441 125<551 585.5 435 593 551 551> 1687 152<561 606.5>
VStem: 87 119 87 479 375 150
LayerCount: 2
Fore
SplineSet
487 1760 m 0xba
 487 1801 534 1839 588 1839 c 0
 638 1839 682 1800 682 1762 c 0
 682 1715 636 1687 577 1687 c 0
 528 1687 487 1723 487 1760 c 0xba
523 -33 m 1
 523 -32 l 1
 149 -32 113 426 113 793 c 0
 113 883 116 967 116 1038 c 0
 116 1101 118 1165 134 1227 c 1
 129 1249 126 1271 126 1291 c 0
 126 1464 320 1566 550 1566 c 0
 621 1566 736 1532 736 1466 c 0x74
 736 1435 698 1420 662 1420 c 0
 636 1420 607 1427 593 1445 c 1
 593 1441 l 1
 551 1441 l 1
 551 1449 l 1
 295 1449 268 1295 268 1141 c 0
 268 1094 276 1047 276 1000 c 0
 276 952 252 905 252 857 c 2
 252 810 l 2
 252 553 261 93 558 93 c 0x7a
 623 93 686 113 729 152 c 1
 758 152 786 155 814 162 c 1
 814 135 l 2
 814 4 660 -33 523 -33 c 1
EndSplineSet
EndChar

StartChar: cdotaccent
Encoding: 267 267 235
Width: 747
Flags: MW
HStem: -29 108<400.5 529.5 400.5 548> 1256 108<503 543> 1480 152<514.5 560>
VStem: 83 135 339 153
LayerCount: 2
Fore
SplineSet
441 1553 m 0
 441 1594 488 1632 541 1632 c 0
 592 1632 636 1593 636 1555 c 0
 636 1508 589 1480 531 1480 c 0
 481 1480 441 1516 441 1553 c 0
108 615 m 2
 108 662 l 2
 108 1003 117 1364 563 1364 c 0
 601 1364 640 1340 640 1311 c 2
 640 1303 l 1
 622 1268 575 1256 511 1256 c 0
 495 1256 480 1258 463 1258 c 0
 307 1258 284 913 284 827 c 2
 284 817 l 2
 284 685 267 554 267 422 c 0
 267 286 282 79 519 79 c 0
 540 79 560 86 576 97 c 1
 612 97 657 85 657 52 c 0
 657 -9 588 -29 508 -29 c 0
 134 -29 109 270 109 495 c 0
 109 527 108 569 108 615 c 2
EndSplineSet
EndChar

StartChar: Ccaron
Encoding: 268 268 236
Width: 899
Flags: MW
HStem: -32 21G<527 595.5> -31 125<413.5 527> 1442 125<555 589.5 439 597 555 555> 1688 404<568 705> 2096 20G<447 447>
VStem: 90 119
LayerCount: 2
Fore
SplineSet
777 2038 m 1xbc
 780 2002 l 2
 780 2001 763 2000 763 1999 c 0
 763 1973 684 1807 684 1754 c 0
 684 1720 667 1688 616 1688 c 0
 520 1688 371 2001 361 2069 c 1
 447 2116 l 1
 516 2045 l 1
 517 2004 572 1894 593 1851 c 1
 619 1930 637 2011 647 2092 c 1
 705 2092 l 2
 706 2092 707 2092 709 2092 c 0
 722 2092 736 2093 749 2093 c 0
 770 2093 787 2089 787 2069 c 0
 787 2059 780 2047 777 2038 c 1xbc
527 -32 m 1
 527 -31 l 1
 153 -31 117 427 117 794 c 0
 117 884 120 968 120 1039 c 0
 120 1102 122 1166 138 1228 c 1
 133 1250 130 1272 130 1292 c 0
 130 1465 324 1567 554 1567 c 0
 625 1567 740 1533 740 1467 c 0
 740 1436 702 1421 666 1421 c 0
 640 1421 611 1428 597 1446 c 1
 597 1442 l 1
 555 1442 l 1
 555 1450 l 1
 299 1450 272 1296 272 1142 c 0
 272 1095 280 1048 280 1001 c 0
 280 953 256 906 256 858 c 2
 256 811 l 2
 256 554 265 94 562 94 c 0x7c
 627 94 690 114 733 153 c 1
 762 153 790 156 818 163 c 1
 818 136 l 2
 818 5 664 -32 527 -32 c 1
EndSplineSet
EndChar

StartChar: ccaron
Encoding: 269 269 237
Width: 747
Flags: MW
HStem: -28 108<404.5 533.5 404.5 552> 1257 108<507 547> 1481 404<520 657> 1889 20G<399 399>
VStem: 86 135
LayerCount: 2
Fore
SplineSet
730 1831 m 1
 732 1795 l 2
 732 1794 715 1793 715 1792 c 0
 715 1766 636 1600 636 1547 c 0
 636 1513 619 1481 568 1481 c 0
 472 1481 323 1794 314 1862 c 1
 399 1909 l 1
 468 1838 l 1
 470 1797 524 1687 545 1644 c 1
 571 1723 589 1804 600 1885 c 1
 657 1885 l 2
 658 1885 659 1885 661 1885 c 0
 674 1885 688 1886 701 1886 c 0
 722 1886 739 1882 739 1862 c 0
 739 1852 732 1840 730 1831 c 1
112 616 m 2
 112 663 l 2
 112 1004 121 1365 567 1365 c 0
 605 1365 644 1341 644 1312 c 2
 644 1304 l 1
 626 1269 579 1257 515 1257 c 0
 499 1257 484 1259 467 1259 c 0
 311 1259 288 914 288 828 c 2
 288 818 l 2
 288 686 271 555 271 423 c 0
 271 287 286 80 523 80 c 0
 544 80 564 87 580 98 c 1
 616 98 661 86 661 53 c 0
 661 -8 592 -28 512 -28 c 0
 138 -28 113 271 113 496 c 0
 113 528 112 570 112 616 c 2
EndSplineSet
EndChar

StartChar: Dcaron
Encoding: 270 270 238
Width: 1164
Flags: MW
HStem: -3 21G<236.5 514.5> 1430 124<349 570> 1533 20G<304 348 341.5 348> 1688 404<543 680> 2096 20G<422 422>
VStem: 71 146 103 114 148 98 697 109
LayerCount: 2
Fore
SplineSet
752 2038 m 1xd980
 755 2002 l 2
 755 2001 738 2000 738 1999 c 0
 738 1973 659 1807 659 1754 c 0
 659 1720 642 1688 591 1688 c 0
 495 1688 346 2001 336 2069 c 1
 422 2116 l 1
 491 2045 l 1
 492 2004 547 1894 568 1851 c 1
 594 1930 612 2011 622 2092 c 1
 680 2092 l 2
 681 2092 682 2092 684 2092 c 0
 697 2092 711 2093 724 2093 c 0
 745 2093 762 2089 762 2069 c 0
 762 2059 755 2047 752 2038 c 1xd980
320 311 m 1
 320 115 l 1xb980
 778 255 906 616 906 855 c 0
 906 1062 858 1430 282 1430 c 1
 282 1428 l 2xdc80
 282 1055 342 684 320 311 c 1
348 1553 m 1
 349 1554 l 1
 1036 1554 915 1093 1048 870 c 1
 1048 775 l 1
 1033 756 1033 735 1033 713 c 0
 1033 509 765 -3 264 -3 c 0
 209 -3 134 16 134 67 c 1xda80
 192 114 192 246 192 308 c 0xd980
 192 535 143 760 143 984 c 0
 143 1057 151 1133 151 1208 c 0
 151 1309 92 1402 92 1482 c 0xdc80
 92 1549 221 1553 304 1553 c 0
 321 1553 335 1553 348 1553 c 1
EndSplineSet
EndChar

StartChar: dcaron
Encoding: 271 271 239
Width: 1508
Flags: MW
HStem: -13 21G<178.5 211 211 445> 992 360 1257 95
VStem: 110 135 116 129 589 109 808 195
LayerCount: 2
Fore
SplineSet
979 992 m 1xce
 979 1064 l 1
 1024 1098 1115 1140 1128 1190 c 1
 1085 1214 1051 1249 1051 1291 c 0
 1051 1343 1120 1378 1182 1378 c 0
 1252 1378 1282 1337 1304 1292 c 1
 1304 1285 l 2
 1304 1281 1300 1276 1300 1271 c 0
 1300 1179 1182 992 1059 992 c 2
 979 992 l 1xce
214 1353 m 1
 214 1352 l 1
 674 1352 908 1059 908 807 c 0
 908 777 903 740 903 704 c 2
 903 592 l 2
 903 340 881 118 445 -13 c 1
 211 -13 l 2
 146 -13 143 189 143 255 c 0xb6
 143 470 151 685 151 900 c 0
 151 1027 120 1184 120 1286 c 0
 120 1322 169 1353 214 1353 c 1
319 140 m 2
 319 91 l 1
 400 91 l 1
 719 269 766 373 766 611 c 0
 766 783 754 1230 309 1257 c 1
 292 1187 289 1115 289 1044 c 0
 289 742 319 442 319 140 c 2
EndSplineSet
EndChar

StartChar: uni0110
Encoding: 272 272 240
Width: 1394
Flags: MW
HStem: 45 21G<447 447> 1125 127 1153 121<856 926 794.5 953> 2200 20G<264.5 372>
VStem: 50 273 163 117 207 73 261 117 858 118
LayerCount: 2
Fore
SplineSet
447 45 m 1xd480
 446 47 l 1
 402 57 361 74 339 107 c 1xd180
 339 450 339 797 272 1137 c 1
 226 1132 179 1125 133 1125 c 0
 90 1125 65 1154 65 1184 c 0xd880
 65 1236 164 1244 218 1244 c 0
 222 1244 226 1244 229 1244 c 2
 269 1244 l 1xd280
 267 1548 212 1850 212 2154 c 0
 212 2182 244 2220 285 2220 c 0
 459 2220 1117 1966 1117 1831 c 0
 1117 1486 1269 1154 1269 809 c 0
 1269 507 1018 186 447 45 c 1xd480
420 1141 m 1xb880
 420 1140 l 1xd880
 430 827 485 517 491 204 c 1xd180
 1034 419 1115 677 1115 983 c 0
 1115 1314 1096 1955 364 2097 c 1
 364 1829 l 2
 364 1635 369 1440 419 1252 c 1xd480
 540 1256 709 1274 880 1274 c 0
 972 1274 1023 1230 1027 1194 c 1
 953 1153 l 1
 759 1153 564 1152 420 1141 c 1xb880
EndSplineSet
EndChar

StartChar: uni0111
Encoding: 273 273 241
Width: 886
Flags: MW
HStem: -13 21G<179.5 212 212 404> 1332 20G<215 297.5> 1333 20G<192.5 215>
VStem: 111 135 117 129 476 108
LayerCount: 2
Fore
SplineSet
215 1353 m 1xac
 215 1352 l 1
 380 1352 531 1218 642 1160 c 1
 642 1147 l 1
 740 1010 759 966 759 807 c 0
 759 777 754 740 754 704 c 0
 754 674 758 644 771 621 c 1
 703 354 778 135 404 -13 c 1
 212 -13 l 2
 147 -13 144 189 144 255 c 0xd4
 144 470 152 685 152 900 c 0
 152 1027 121 1184 121 1286 c 0
 121 1322 170 1353 215 1353 c 1xac
320 140 m 2xb4
 320 91 l 1
 375 91 l 1
 589 269 619 373 619 611 c 0
 619 783 611 1230 310 1257 c 1
 293 1187 290 1115 290 1044 c 0
 290 742 320 442 320 140 c 2xb4
EndSplineSet
EndChar

StartChar: Emacron
Encoding: 274 274 242
Width: 665
Flags: MW
HStem: -12 117<257.5 307 307 307 307 372> 750 120<411.5 431.5 390.5 442> 1423 110 1531 20G<350.5 407.5> 1691 96 1771 20G<400 506>
VStem: 118 97 118 271 118 430
LayerCount: 2
Fore
SplineSet
713 1736 m 0xe480
 713 1699 666 1691 627 1691 c 0
 601 1691 522 1687 434 1687 c 0
 297 1687 138 1696 138 1743 c 0
 138 1784 217 1787 255 1787 c 0xe880
 281 1787 358 1791 442 1791 c 0
 570 1791 713 1782 713 1736 c 0xe480
307 105 m 1
 353 107 402 111 447 111 c 0
 494 111 596 108 596 57 c 2
 596 50 l 1
 555 -11 449 -12 372 -12 c 2
 289 -12 l 2
 226 -12 154 -10 154 55 c 2
 154 1533 l 1xea
 220 1533 317 1551 384 1551 c 0
 431 1551 506 1527 506 1484 c 0xd9
 506 1432 440 1423 385 1423 c 0
 359 1423 334 1425 308 1425 c 0
 299 1425 289 1425 280 1424 c 1xea
 280 1311 301 1199 301 1086 c 0
 301 1008 289 930 288 852 c 1
 329 858 369 870 412 870 c 0
 451 870 490 844 490 813 c 0
 490 782 464 750 420 750 c 0
 403 750 379 752 354 752 c 0
 327 752 320 749 307 737 c 1
 307 105 l 1
EndSplineSet
EndChar

StartChar: emacron
Encoding: 275 275 243
Width: 682
Flags: MW
HStem: -27 104<345 399.5 345 480> 693 129<299 465.5> 1484 96 1564 20G<330 436>
VStem: 52 442 112 118 112 290 112 333
LayerCount: 2
Fore
SplineSet
643 1529 m 0xd8
 643 1492 596 1484 557 1484 c 0
 531 1484 452 1480 364 1480 c 0
 227 1480 68 1489 68 1536 c 0
 68 1577 147 1580 185 1580 c 0xe8
 211 1580 288 1584 372 1584 c 0
 500 1584 643 1575 643 1529 c 0xd8
229 -27 m 2
 162 -27 146 10 146 55 c 0
 146 94 158 140 158 174 c 0
 158 261 145 349 145 436 c 0
 145 635 163 835 163 1034 c 0
 163 1092 149 1149 149 1207 c 0
 149 1266 160 1352 260 1352 c 0
 315 1352 579 1323 579 1261 c 0xe1
 579 1229 536 1207 501 1197 c 1
 436 1214 368 1230 299 1236 c 1
 302 1207 303 1177 303 1148 c 0
 303 1050 292 952 292 854 c 0
 292 844 297 832 299 822 c 1xe4
 322 822 358 825 394 825 c 0
 458 825 523 816 523 769 c 0xe2
 523 732 492 693 439 693 c 0
 413 693 384 699 363 711 c 1
 296 711 l 1
 301 659 303 615 303 563 c 0
 303 440 292 315 292 192 c 0
 292 139 302 77 388 77 c 0
 411 77 453 82 493 82 c 0
 545 82 595 73 595 32 c 0
 595 -13 528 -27 480 -27 c 2
 229 -27 l 2
EndSplineSet
EndChar

StartChar: Ebreve
Encoding: 276 276 244
Width: 665
Flags: MW
HStem: -12 117<259 308 308 308 308 373> 750 120<412.5 433.5 392.5 443.5> 1423 110 1531 20G<352 408.5> 1687 275<118 365>
VStem: 119 97 119 259 119 271
LayerCount: 2
Fore
SplineSet
511 1868 m 1xea
 511 1851 l 1
 463 1765 436 1687 294 1687 c 0
 129 1687 69 1812 69 1920 c 2
 69 1930 l 1
 118 1962 l 1
 211 1962 187 1821 260 1782 c 1
 316 1782 l 2
 343 1782 377 1845 377 1863 c 0
 377 1908 377 1953 453 1953 c 0
 489 1953 523 1930 523 1901 c 0
 523 1895 514 1875 511 1868 c 1xea
308 105 m 1
 354 107 403 111 449 111 c 0
 495 111 597 108 597 57 c 2
 597 50 l 1
 557 -11 450 -12 373 -12 c 2
 290 -12 l 2
 228 -12 155 -10 155 55 c 2
 155 1533 l 1xe9
 221 1533 319 1551 385 1551 c 0
 432 1551 507 1527 507 1484 c 0xd9
 507 1432 441 1423 386 1423 c 0
 360 1423 336 1425 310 1425 c 0
 300 1425 290 1425 281 1424 c 1xec
 281 1311 302 1199 302 1086 c 0
 302 1008 290 930 289 852 c 1
 330 858 371 870 414 870 c 0
 453 870 492 844 492 813 c 0
 492 782 466 750 421 750 c 0
 404 750 380 752 355 752 c 0
 328 752 321 749 308 737 c 1
 308 105 l 1
EndSplineSet
EndChar

StartChar: ebreve
Encoding: 277 277 245
Width: 681
Flags: MW
HStem: -27 104<345 399.5 345 480> 693 129<299 465> 1480 275<161 408> 1555 20G<303 359 359 372.5>
VStem: 86 359 112 118 112 290 323 122
LayerCount: 2
Fore
SplineSet
554 1661 m 1xd5
 554 1644 l 1
 506 1558 479 1480 337 1480 c 0
 172 1480 112 1605 112 1713 c 2
 112 1723 l 1
 161 1755 l 1xe8
 254 1755 230 1614 303 1575 c 1
 359 1575 l 2
 386 1575 420 1638 420 1656 c 0
 420 1701 420 1746 496 1746 c 0
 532 1746 566 1723 566 1694 c 0
 566 1688 557 1668 554 1661 c 1xd5
229 -27 m 2
 161 -27 146 10 146 55 c 0xe5
 146 94 158 140 158 174 c 0
 158 261 145 349 145 436 c 0
 145 635 163 835 163 1034 c 0
 163 1092 148 1149 148 1207 c 0
 148 1266 160 1352 260 1352 c 0
 315 1352 579 1323 579 1261 c 0xe8
 579 1229 536 1207 501 1197 c 1
 436 1214 368 1230 299 1236 c 1
 302 1207 303 1177 303 1148 c 0
 303 1050 291 952 291 854 c 0
 291 844 297 832 299 822 c 1xe5
 321 822 358 825 394 825 c 0
 458 825 523 816 523 769 c 0xe2
 523 732 492 693 438 693 c 0
 412 693 384 699 363 711 c 1
 295 711 l 1
 301 659 303 615 303 563 c 0
 303 440 291 315 291 192 c 0
 291 139 302 77 388 77 c 0
 411 77 453 82 493 82 c 0
 545 82 594 73 594 32 c 0
 594 -13 528 -27 480 -27 c 2
 229 -27 l 2
EndSplineSet
EndChar

